<?xml version="1.0" encoding="utf-8"?>
<!-- Generator: Adobe Illustrator 16.0.0, SVG Export Plug-In . SVG Version: 6.00 Build 0)  -->
<!DOCTYPE svg PUBLIC "-//W3C//DTD SVG 1.1//EN" "http://www.w3.org/Graphics/SVG/1.1/DTD/svg11.dtd">
<svg version="1.1" id="Layer_1" xmlns="http://www.w3.org/2000/svg" xmlns:xlink="http://www.w3.org/1999/xlink" x="0px" y="0px"
	 width="100px" height="78px" viewBox="0 0 100 78" enable-background="new 0 0 100 78" xml:space="preserve">
<g id="Page-1">
	<g id="Nairobi-Stay" transform="translate(-596.000000, -851.000000)">
		<g id="filters" transform="translate(168.000000, 785.000000)">
			<g id="eatanddrink_11_" transform="translate(432.000000, 67.000000)">
				<g>
					<path id="Fill-1_11_" fill="#FFFFFF" d="M66.281,34.659c-0.02-0.084-0.039-0.169-0.059-0.253
						c-0.449,0.036-0.912,0.022-1.347,0.127c-0.271,0.064-0.69,0.297-0.601,0.576c0.146,0.438,0.541,0.211,0.847,0.072
						C65.509,35.006,65.895,34.833,66.281,34.659 M57.677,31.463c0.897,0.661,1.7,0.562,2.772,0.009
						C59.395,31.298,58.602,30.938,57.677,31.463 M58.141,28.834c0.162,0.373,0.41,0.443,0.691,0.497
						c2.984,0.559,5.977,0.223,8.966,0.098c1.558-0.065,2.81-1.035,4.269-1.386c0.31-0.075,0.783-0.144,0.711-0.593
						c-0.068-0.423-0.514-0.189-0.791-0.251c-0.201-0.046-0.401-0.106-0.606-0.13c-1.698-0.198-3.364-0.591-5.116-0.272
						C63.525,27.295,60.882,28.129,58.141,28.834 M56.131,28.968c0.045-0.729,0.357-1.021,1.088-1.116
						c1.867-0.241,3.668-0.779,5.471-1.333c1.365-0.418,2.814-0.573,4.234-0.792c1.936-0.299,3.815,0.244,5.717,0.464
						c0.301,0.035,0.646,0.141,0.789-0.265c0.209-0.589,0.371-1.219,0.141-1.807c-0.149-0.384-0.573-0.082-0.834-0.024
						c-1.872,0.414-3.735,0.849-5.662,0.992c-3.611,0.269-7.217,0.521-10.688-0.854c-0.514-0.203-0.643,0.039-0.647,0.441
						C55.717,26.097,55.59,27.53,56.131,28.968 M63.977,24.325c2.621,0.132,5.521-0.483,8.42-1.054
						c0.396-0.078,1.131-0.097,1.084-0.84c-0.043-0.686-0.149-1.37-0.264-2.05c-0.113-0.68-0.447-1.054-1.227-1.13
						c-2.998-0.293-5.967-0.249-8.963,0.146c-2.639,0.347-5.039,1.225-7.354,2.453c-0.446,0.236-0.637,0.424-0.086,0.768
						c0.761,0.473,1.509,0.926,2.397,1.165C59.838,24.277,61.715,24.355,63.977,24.325 M68.033,18.189
						c2.104,0.071,4.457-0.047,6.705,0.775c0.162,0.059,0.339,0.078,0.494,0.146c0.271,0.119,0.516,0.308,0.322,0.629
						c-0.136,0.226-0.382,0.291-0.613,0.066c-0.156-0.153-0.354-0.285-0.547-0.149c-0.222,0.156-0.025,0.376,0.006,0.568
						c0.007,0.034,0.014,0.068,0.021,0.101c0.289,1.254,0.704,2.445,0.201,3.81c-0.285,0.774-0.354,1.758,0.02,2.639
						c0.047,0.109,0.026,0.291-0.035,0.396c-1.116,1.872-1.056,3.997-1.328,6.053c-0.234,1.769-1.439,2.913-2.666,4.04
						c-0.787,0.722-1.799,0.85-2.768,0.941c-1.922,0.183-3.855,0.237-5.785,0.341c-0.396,0.021-0.886-0.029-0.994-0.401
						c-0.229-0.774-0.836-0.936-1.455-1.146c-1.336-0.454-2.236-1.263-2.75-2.664c-0.912-2.484-1.979-4.909-2.016-7.62
						c-0.009-0.549-0.06-1.091-0.02-1.648c0.056-0.792,0.226-1.666-0.715-2.191c-0.409-0.229-0.35-0.663-0.076-0.99
						c0.24-0.289,0.511-0.607,0.84-0.76c2.432-1.134,4.848-2.294,7.573-2.606C64.232,18.313,66.016,18.226,68.033,18.189"/>
					<g id="Group-5_11_" transform="translate(0.000000, 1.064667)">
						<defs>
							<filter id="Adobe_OpacityMaskFilter" filterUnits="userSpaceOnUse" x="16" y="2.317" width="13.335" height="70.35">
								<feColorMatrix  type="matrix" values="1 0 0 0 0  0 1 0 0 0  0 0 1 0 0  0 0 0 1 0"/>
							</filter>
						</defs>
						<mask maskUnits="userSpaceOnUse" x="16" y="2.317" width="13.335" height="70.35" id="mask-3_11_">
							<g filter="url(#Adobe_OpacityMaskFilter)">
								<polygon id="path-2_11_" fill="#FFFFFF" points="16,2.319 29.334,2.319 29.334,72.667 16,72.667 								"/>
							</g>
						</mask>
						<path id="Fill-3_11_" mask="url(#mask-3_11_)" fill="#FFFFFF" d="M23.442,4.702c-0.317,1.111-0.57,1.983-0.815,2.857
							c-0.645,2.305-1.109,4.626-0.699,7.037c0.254,1.493-0.137,2.839-0.828,4.167c-0.457,0.878-0.946,0.663-1.447,0.206
							c-0.721-0.658-0.849-1.634-0.741-2.48c0.396-3.11,0.073-6.26,0.606-9.36c0.169-0.982,0.188-1.995-0.022-2.986
							c-0.043-0.203,0.002-0.541-0.369-0.508c-0.21,0.018-0.401,0.122-0.459,0.356c-0.184,0.736-0.673,1.345-0.805,2.117
							c-0.393,2.31-0.721,4.629-0.902,6.962c-0.219,2.808-0.405,5.622,0.542,8.37c0.39,1.13,1.167,1.762,2.274,1.981
							c0.594,0.118,0.861,0.386,1.057,0.95c0.388,1.115,0.151,2.252,0.266,3.371c0.23,2.257,0.213,4.517,0.267,6.778
							c0.055,2.298,0.218,4.594,0.261,6.892c0.037,2.012,0.093,4.023,0.102,6.035c0.006,1.484-0.374,3.063,0.342,4.535
							c0.25,0.514,0.06,0.962-0.537,1.251c-1.139,0.552-1.215,0.891-0.502,1.974c0.4,0.608,0.595,1.188,0.276,1.912
							c-0.282,0.641-0.384,1.275,0.153,1.934c0.417,0.51,0.291,1.219,0.05,1.789c-0.188,0.445-0.227,0.858-0.152,1.301
							c0.141,0.842,0.508,1.767-0.883,1.9c-0.086,0.008-0.154,0.211-0.229,0.322c-0.865,1.291-1.261,2.662-0.659,4.18
							c0.241,0.605,0.455,1.239,0.806,1.78c0.602,0.929,1.587,1.595,2.617,1.267c1.214-0.389,2.252-1.182,2.64-2.633
							c0.545-2.039-0.27-3.768-1.705-4.77c-1.708-1.191-0.627-2.137-0.269-3.197c0.156-0.46,0.378-0.91-0.063-1.211
							c-1.279-0.873-0.895-1.83-0.235-2.826c0.354-0.535,0.438-0.996-0.19-1.402c-0.688-0.446-0.759-1.033-0.266-1.668
							c0.249-0.32,0.264-0.612,0.062-0.947c-0.325-0.538-0.277-1.112-0.184-1.707c0.521-3.354,0.465-6.733,0.379-10.104
							c-0.077-3.065-0.269-6.141-0.075-9.191c0.175-2.777,0.315-5.563,0.422-8.337c0.058-1.501,0.952-2.313,1.83-2.808
							c1.413-0.796,1.976-1.999,2.314-3.323c0.776-3.039,1.222-6.134,0.813-9.294c-0.105-0.819-0.12-1.649-0.189-2.473
							c-0.017-0.206-0.08-0.449-0.339-0.443c-0.18,0.004-0.232,0.212-0.315,0.367c-1.452,2.739-1.723,5.691-1.633,8.721
							c0.025,0.822,0.119,1.66-0.108,2.472c-0.198,0.711-0.765,1.201-1.406,1.159c-0.582-0.039-0.917-0.697-0.944-1.323
							c-0.12-2.79,0.121-5.561,0.441-8.331C24.125,7.175,24.084,6.009,23.442,4.702 M24.824,16.5
							c0.583-1.259,0.396-2.584,0.434-3.865c0.069-2.27,0.381-4.445,1.476-6.471c0.191-0.352,0.237-0.785,0.329-1.185
							c0.104-0.45-0.015-1.047,0.646-1.144c0.562-0.082,1.443,0.73,1.458,1.36c0.029,1.273-0.077,2.55,0.079,3.821
							c0.246,2.018-0.106,4.038-0.029,6.036c0.06,1.549-0.08,2.927-0.832,4.236c-0.577,1.004-1.167,2.125-2.258,2.571
							c-1.473,0.603-1.779,1.754-1.79,3.058c-0.039,4.921-0.794,9.833-0.323,14.753c0.272,2.829-0.085,5.646,0.117,8.465
							c0.043,0.594-0.058,1.166-0.193,1.738c-0.234,0.995-0.218,1.973,0.197,2.932c0.235,0.543,0.431,1.108-0.056,1.646
							c-0.241,0.268-0.104,0.497,0.107,0.721c0.707,0.744,0.659,1.545,0.142,2.362c-0.396,0.625-0.473,1.125,0.21,1.688
							c0.655,0.541,0.686,1.349,0.203,2.059c-0.619,0.911-0.763,1.712,0.169,2.527c0.406,0.355,0.708,0.844,1.017,1.3
							c1.402,2.077,1.243,4.444-0.412,6.35c-1.644,1.896-4.927,1.487-6.156-0.704c-0.91-1.625-1.328-3.307-0.994-5.146
							c0.193-1.059,0.868-1.848,1.541-2.631c0.086-0.102,0.277-0.146,0.311-0.254c0.205-0.658-0.531-1.354-0.077-1.937
							c0.522-0.673,0.48-1.104-0.131-1.66c-0.387-0.352-0.314-0.842-0.065-1.327c0.379-0.742,0.401-1.441-0.161-2.197
							c-0.535-0.719-0.676-1.604-0.069-2.409c0.716-0.951,0.91-2,0.952-3.187c0.179-5.06-0.138-10.105-0.216-15.158
							c-0.042-2.751-0.164-5.503-0.177-8.255c-0.009-1.635-0.531-2.433-2.077-2.948c-0.812-0.27-1.022-0.9-1.232-1.526
							c-0.383-1.142-0.854-2.305-0.936-3.483c-0.106-1.561,0.109-3.147,0.218-4.721c0.185-2.679,0.346-5.367,0.934-7.995
							c0.25-1.117,0.297-2.347,1.28-3.19c0.784-0.672,1.298-0.526,1.691,0.456c0.254,0.637,0.293,1.292,0.179,1.934
							c-0.611,3.411-0.216,6.885-0.668,10.303c-0.101,0.76,0.356,1.393,0.454,2.107c0.017,0.121,0.087,0.298,0.258,0.249
							c0.115-0.032,0.259-0.143,0.292-0.25c0.156-0.49,0.432-1.006,0.388-1.488c-0.348-3.786,0.5-7.398,1.482-11
							c0.1-0.364,0.151-0.745,0.181-1.122c0.033-0.408,0.119-0.809,0.562-0.876c0.443-0.067,0.698,0.308,0.81,0.67
							c0.302,0.982,0.675,1.941,0.653,3.009c-0.04,1.902-0.382,3.775-0.478,5.667C24.194,13.775,24.308,15.166,24.824,16.5"/>
					</g>
					<g id="Group-8_11_" transform="translate(16.000000, 0.398000)">
						<defs>
							<filter id="Adobe_OpacityMaskFilter_1_" filterUnits="userSpaceOnUse" x="16.532" y="2.268" width="11.439" height="70.774">
								<feColorMatrix  type="matrix" values="1 0 0 0 0  0 1 0 0 0  0 0 1 0 0  0 0 0 1 0"/>
							</filter>
						</defs>
						<mask maskUnits="userSpaceOnUse" x="16.532" y="2.268" width="11.439" height="70.774" id="mask-5_11_">
							<g filter="url(#Adobe_OpacityMaskFilter_1_)">
								<polygon id="path-4_11_" fill="#FFFFFF" points="16.53,2.269 27.969,2.269 27.969,73.041 16.53,73.041 								"/>
							</g>
						</mask>
						<path id="Fill-6_11_" mask="url(#mask-5_11_)" fill="#FFFFFF" d="M20.286,8.336c0,2.646,0.057,5.294-0.013,7.939
							c-0.099,3.717-0.146,7.439-0.537,11.144c-0.282,2.678,0.079,5.372-0.189,8.055c-0.406,4.065-0.393,8.147-0.411,12.228
							c-0.003,0.75,0.003,1.529,0.297,2.238c0.334,0.807,0.054,1.334-0.655,1.704c-0.37,0.194-0.739,0.382-0.903,0.796
							c-0.14,0.354-0.249,0.65,0.208,0.95c1.059,0.698,1.172,1.562,0.271,2.458c-0.548,0.546-0.499,0.967,0.028,1.35
							c0.789,0.572,0.71,1.178,0.183,1.832c-0.347,0.432-0.387,0.746-0.026,1.254c0.995,1.403,0.946,1.678-0.092,3.084
							c-1.48,2.004-1.422,6.017,0.109,7.98c0.504,0.646,0.986,0.818,1.732,0.246c1.967-1.51,2.689-4.479,1.548-6.668
							c-0.333-0.637-0.647-1.285-0.959-1.932c-0.189-0.394-0.113-0.677,0.263-0.974c0.643-0.505,0.634-1.137,0.032-1.674
							c-0.745-0.664-0.766-1.338-0.151-2.067c0.477-0.568,0.554-1.109-0.087-1.6c-0.281-0.217-0.388-0.482-0.317-0.813
							c0.302-1.406,0.231-2.785-0.128-4.183c-0.17-0.664,0.365-1.293,0.328-2.01c-0.116-2.193-0.273-4.396-0.216-6.589
							c0.064-2.438,0.344-4.869,0.537-7.303c0.087-1.099,0.307-2.201,0.256-3.292c-0.072-1.57,0.244-3.083,0.402-4.621
							c0.025-0.245,0.031-0.515,0.272-0.637c1.775-0.9,2.124-2.758,2.719-4.343c0.805-2.146,1.525-4.347,1.926-6.626
							c0.73-4.15-0.35-7.704-3.484-10.574c-0.811-0.743-1.401-1.697-2.316-2.345c-0.282-0.199-0.423-0.584-0.072-0.893
							c0.264-0.233,0.611-0.266,0.833,0.021c1.528,1.978,3.718,3.364,4.895,5.672c1.171,2.297,1.689,4.704,1.243,7.206
							c-0.729,4.088-1.998,8.025-3.895,11.739c-0.369,0.721-1.248,1.029-1.399,1.981c-0.215,1.345-0.016,2.684-0.159,4.022
							c-0.297,2.772-0.609,5.546-0.78,8.327c-0.103,1.673,0.019,3.361,0.098,5.041c0.139,2.957,0.139,5.912,0.087,8.869
							c-0.005,0.314-0.085,0.699,0.144,0.894c0.911,0.767,0.591,1.603,0.181,2.426c-0.243,0.488-0.28,0.849,0.127,1.291
							c0.583,0.634,0.779,1.44,0.306,2.193c-0.592,0.94-0.245,1.743,0.243,2.504c0.748,1.164,0.844,2.422,0.485,3.664
							c-0.473,1.641-0.98,3.291-2.575,4.323c-0.953,0.617-1.965,0.572-2.791-0.301c-0.989-1.045-1.301-2.328-1.33-3.701
							c-0.027-1.338-0.065-2.681,0.127-4.012c0.121-0.837,0.472-1.591,1.018-2.227c0.443-0.516,0.515-0.914-0.061-1.391
							c-0.308-0.256-0.541-0.627-0.735-0.986c-0.34-0.633-0.353-1.204,0.483-1.469c0.396-0.125,0.637-0.19,0.184-0.648
							c-0.987-0.998-0.924-1.936,0.101-2.908c0.243-0.23,0.199-0.357-0.036-0.57c-1.125-1.026-1.231-1.779-0.253-2.81
							c0.822-0.864,1.094-1.87,1.073-2.987c-0.089-4.744,0.115-9.479,0.348-14.218c0.128-2.599-0.07-5.23,0.144-7.827
							c0.348-4.216,0.458-8.443,0.476-12.662c0.014-3.251,0.257-6.493,0.187-9.742c-0.008-0.347-0.006-0.681,0.372-0.727
							c0.492-0.06,0.399,0.391,0.403,0.664c0.018,1.41,0.009,2.82,0.009,4.229h-0.108V8.336z"/>
					</g>
					<path id="Fill-9_11_" fill="#FFFFFF" d="M71.546,56.523c-0.224-0.313-0.474-0.441-0.796-0.449
						c-1.135-0.024-2.268-0.057-3.338,0.447c-0.367,0.176-0.792,0.41-1.16,0.364c-1.15-0.143-2.258,0.248-3.395,0.187
						c-0.424-0.023-0.822,0.109-1.164,0.361c-0.256,0.187-0.516,0.455-0.361,0.774c0.152,0.317,0.475,0.153,0.732,0.062
						c2.545-0.937,5.225-1.074,7.885-1.334C70.473,56.884,71.031,56.865,71.546,56.523 M66.843,40.086
						c-0.245,1.204-0.45,2.66-0.571,4.129c-0.213,2.564,0.218,5.076,0.571,7.598c0.12,0.849,0.232,1.709,0.214,2.563
						c-0.018,0.887,0.297,1.084,1.109,0.861c1.078-0.295,2.186-0.234,3.285-0.094c0.137,0.018,0.273,0.043,0.402,0.09
						c0.666,0.246,1.412,0.619,1.483,1.299c0.086,0.816-0.853,0.84-1.416,1.102c-1.228,0.569-2.573,0.436-3.864,0.588
						c-2.015,0.239-4.009,0.519-5.951,1.125c-1.185,0.37-1.826,0.055-2.178-0.828c-0.261-0.656,0.129-1.043,0.454-1.465
						c0.647-0.842,1.613-1.025,2.58-1.09c3.728-0.246,3.161-0.115,2.954-3.633c-0.092-1.569-0.607-3.125-0.605-4.688
						c0.002-2.401,0.061-4.818,0.459-7.205c0.051-0.303,0.098-0.625,0.039-0.918c-0.086-0.427-0.121-0.775,0.426-0.828
						c0.533-0.049,0.625,0.309,0.608,0.735C66.838,39.564,66.843,39.703,66.843,40.086"/>
					<path id="Fill-11_11_" fill="#FFFFFF" d="M36.97,67.268c-0.083,0.574-0.146,1.188-0.266,1.791
						c-0.135,0.676-0.513,1.379-1.177,1.385c-0.673,0.009-0.925-0.836-1.193-1.379c-0.318-0.646,0.84-3.213,1.498-3.543
						c0.618-0.311,0.911,0.078,1.043,0.595C36.967,66.473,36.94,66.859,36.97,67.268"/>
					<path id="Fill-13_11_" fill="#FFFFFF" d="M21.209,68.652c0.089-0.438,0.161-0.913,0.288-1.375
						c0.108-0.392,0.35-0.668,0.816-0.633c0.435,0.032,0.79,0.17,0.984,0.61c0.477,1.078-0.144,2.011-0.433,2.97
						c-0.075,0.25-0.575,0.324-0.933,0.254c-0.307-0.063-0.463-0.271-0.511-0.572C21.354,69.502,21.284,69.098,21.209,68.652"/>
				</g>
			</g>
		</g>
	</g>
</g>
</svg>
