<?xml version="1.0" encoding="UTF-8"?>
<svg width="455px" height="103px" viewBox="0 0 455 103" version="1.1" xmlns="http://www.w3.org/2000/svg" xmlns:xlink="http://www.w3.org/1999/xlink">
    <!-- Generator: Sketch 50 (54983) - http://www.bohemiancoding.com/sketch -->
    <title>Final Logo_2stack-iconleft</title>
    <desc>Created with Sketch.</desc>
    <defs></defs>
    <g id="Page-1" stroke="none" stroke-width="1" fill="none" fill-rule="evenodd">
        <g id="Coming-Soon" transform="translate(-593.000000, -303.000000)" fill="#231F20">
            <g id="Final-Logo_2stack-iconleft" transform="translate(592.000000, 303.000000)">
                <g id="Shape">
                    <path d="M455.694286,62.4 L455.694286,60.1714286 L430.139592,60.1714286 L430.139592,101.4 L455.694286,101.4 L455.694286,98.9857143 L435.175918,98.9857143 L435.175918,81.5285714 L447.300408,81.5285714 L447.300408,79.3 L435.175918,79.3 L435.175918,62.5857143 L455.694286,62.5857143 L455.694286,62.4 Z M396.377551,98.9857143 L396.377551,62.4 L401.973469,62.4 C410.180816,62.4 416.895918,68.1571429 416.895918,80.6 C416.895918,93.0428571 410.180816,98.8 401.973469,98.8 L396.377551,98.8 L396.377551,98.9857143 Z M402.533061,60.1714286 L391.154694,60.1714286 L391.154694,101.4 L402.533061,101.4 C413.538367,101.4 422.491837,93.7857143 422.491837,80.7857143 C422.491837,67.7857143 413.538367,60.1714286 402.533061,60.1714286 Z M382.760816,60.1714286 L377.537959,60.1714286 L377.537959,101.4 L382.760816,101.4 L382.760816,60.1714286 Z M366.719184,60.1714286 L366.719184,88.0285714 C366.719184,93.7857143 362.61551,99.9142857 353.662041,99.9142857 C344.708571,99.9142857 343.962449,94.3428571 343.962449,91.1857143 L343.962449,60.1714286 L338.739592,60.1714286 L338.739592,88.4 C338.739592,95.4571429 342.097143,102.328571 353.662041,102.328571 C365.226939,102.328571 369.330612,95.0857143 369.330612,88.2142857 L369.330612,60.1714286 L366.719184,60.1714286 Z M320.086531,83.5714286 L320.086531,85.9857143 L324.936327,85.9857143 L324.936327,93.7857143 C324.936327,96.2 322.324898,99.9142857 315.796327,99.9142857 C306.469796,99.9142857 303.485306,89.7 303.485306,80.7857143 C303.485306,71.8714286 306.469796,61.6571429 315.796327,61.6571429 C320.1353,61.8407887 324.108125,64.1307794 326.428571,67.7857143 L328.480408,66.4857143 C325.712445,62.1348282 320.965981,59.4245055 315.796327,59.2428571 C305.350612,59.2428571 297.889388,68.9 297.889388,80.7857143 C297.889388,92.6714286 305.537143,102.328571 315.796327,102.328571 C322.022568,102.23151 327.657544,98.6351545 330.345714,93.0428571 L330.345714,83.5714286 L319.9,83.5714286 L320.086531,83.5714286 Z M276.065306,60.1714286 L273.267347,60.1714286 L263.194694,82.8285714 L252.562449,60.1714286 L243.422449,60.1714286 L255.92,87.1 L255.92,101.4 L264.313878,101.4 L264.313878,86.5428571 L276.065306,60.1714286 Z M237.64,60.1714286 L204.997143,60.1714286 L204.997143,62.5857143 L217.121633,62.5857143 L217.121633,101.4 L225.51551,101.4 L225.51551,62.5857143 L237.826531,62.5857143 L237.826531,60.1714286 L237.64,60.1714286 Z M197.535918,60.1714286 L189.142041,60.1714286 L189.142041,101.4 L197.722449,101.4 L197.722449,60.1714286 L197.535918,60.1714286 Z M179.442449,92.8571429 C176.449726,97.1009996 171.593013,99.6568847 166.385306,99.7285714 C158.737551,99.7285714 156.312653,89.1428571 156.312653,80.6 C156.312653,72.0571429 158.737551,61.4714286 166.385306,61.4714286 C171.089969,61.4808608 175.541381,63.5945512 178.509796,67.2285714 L180.561633,65.7428571 C177.176328,61.3701772 171.930315,58.8273745 166.385306,58.8714286 C155.566531,58.8714286 147.545714,68.5285714 147.545714,80.4142857 C147.545714,92.3 155.566531,101.957143 166.385306,101.957143 C172.315354,101.840809 177.844146,98.9508959 181.307755,94.1571429 L179.442449,92.8571429 Z" fill-rule="nonzero"></path>
                    <path d="M415.963265,4.08571429 L415.963265,36.2142857 L392.646939,4.08571429 L385.745306,4.08571429 L385.745306,45.3142857 L388.543265,45.3142857 L388.543265,7.24285714 L416.522857,45.8714286 L418.761224,45.8714286 L418.761224,4.08571429 L415.963265,4.08571429 Z M360.004082,11.8857143 L367.092245,30.2714286 L352.915918,30.2714286 L360.004082,11.8857143 Z M347.133469,45.3142857 L351.983265,32.6857143 L367.838367,32.6857143 L372.688163,45.3142857 L378.284082,45.3142857 L362.055918,3.15714286 L360.750204,3.15714286 L344.522041,45.3142857 L347.133469,45.3142857 Z M326.615102,3.15714286 C316.169388,3.15714286 308.708163,12.8142857 308.708163,24.7 C308.708163,36.5857143 316.355918,46.2428571 326.615102,46.2428571 C331.851557,46.1221806 336.681122,43.4043731 339.485714,39 L337.433878,37.8857143 C335.113431,41.5406492 331.140606,43.8306399 326.801633,44.0142857 C317.288571,44.0142857 314.490612,33.8 314.490612,24.8857143 C314.490612,15.9714286 317.288571,5.57142857 326.801633,5.57142857 C331.140606,5.75507437 335.113431,8.04506509 337.433878,11.7 L339.485714,10.4 C336.717751,6.04911395 331.971287,3.3387912 326.801633,3.15714286 L326.615102,3.15714286 Z M299.754694,4.08571429 L294.531837,4.08571429 L294.531837,45.3142857 L299.754694,45.3142857 L299.754694,4.08571429 Z M262.448571,22.8428571 L262.448571,6.5 L268.977143,6.5 C275.132653,6.5 277.930612,9.84285714 277.930612,14.1142857 C278.098269,16.5258121 277.208939,18.8914831 275.492139,20.6007699 C273.775339,22.3100568 271.399269,23.1954948 268.977143,23.0285714 L262.448571,23.0285714 L262.448571,22.8428571 Z M281.474694,31.5714286 C280.847889,27.5042778 277.398079,24.4598742 273.267347,24.3285714 C279.422857,23.4 283.34,19.8714286 283.34,14.3 C283.34,8.72857143 277.18449,4.27142857 269.350204,4.27142857 L257.412245,4.27142857 L257.412245,45.3142857 L262.635102,45.3142857 L262.635102,25.4428571 L270.469388,25.4428571 C272.859192,25.3441971 275.01091,26.8744123 275.692245,29.1571429 L278.490204,45.5 L283.713061,45.5 L281.474694,31.5714286 Z M249.204898,6.5 L249.204898,4.08571429 L223.650204,4.08571429 L223.650204,45.3142857 L228.873061,45.3142857 L228.873061,25.6285714 L240.997551,25.6285714 L240.997551,23.4 L228.873061,23.4 L228.873061,6.68571429 L249.391429,6.68571429 L249.204898,6.5 Z M197.722449,12.0714286 L204.810612,30.4571429 L190.634286,30.4571429 L197.722449,12.0714286 Z M184.851837,45.5 L189.701633,32.8714286 L205.556735,32.8714286 L210.406531,45.5 L216.002449,45.5 L199.774286,3.34285714 L198.468571,3.34285714 L182.240408,45.5 L184.851837,45.5 Z" fill-rule="nonzero"></path>
                    <path d="M13.8032653,63.7 C13.7648479,63.0815432 13.7648479,62.4613139 13.8032653,61.8428571 C13.9242711,61.4401192 13.8422093,61.0039828 13.5829916,60.6721615 C13.3237739,60.3403402 12.9193988,60.1537948 12.497551,60.1714286 C12.020987,60.118371 11.5443816,60.2707533 11.1879466,60.590141 C10.8315115,60.9095286 10.6292746,61.3654306 10.6322449,61.8428571 C10.741362,63.4618659 10.6157186,65.0880824 10.2591837,66.6714286 C9.69959184,69.6428571 9.88612245,69.6428571 12.6840816,69.0857143 L12.8706122,69.0857143 C13.6167347,68.7142857 14.3628571,68.3428571 13.9897959,67.2285714 C13.7395149,66.069745 13.6765466,64.8785817 13.8032653,63.7" fill-rule="nonzero"></path>
                    <path d="M7.27469388,69.4571429 C8.02081633,69.4571429 9.14,68.5285714 8.76693878,67.7857143 C8.39387755,67.0428571 8.76693878,64.8142857 8.58040816,63.5142857 L8.58040816,62.5857143 C8.76693878,61.2857143 8.58040816,59.9857143 7.08816327,59.9857143 C5.59591837,59.9857143 5.22285714,61.2857143 5.22285714,62.4 C5.3462501,64.2551111 5.3462501,66.1163174 5.22285714,67.9714286 C5.14157582,68.470121 5.32039994,68.9757617 5.69757464,69.3137334 C6.07474934,69.651705 6.59857835,69.7756846 7.08816327,69.6428571" fill-rule="nonzero"></path>
                    <path d="M21.4510204,57.5714286 C21.2644898,56.8285714 22.1971429,55.3428571 20.3318367,55.7142857 C19.6727226,55.6568855 19.021871,55.8927463 18.5540274,56.3585424 C18.0861838,56.8243386 17.8492863,57.4723418 17.9069388,58.1285714 C17.8542505,58.5231596 17.962803,58.9222948 18.2082623,59.2365042 C18.4537216,59.5507136 18.8155556,59.7537142 19.2126531,59.8 C20.4100445,59.7113354 21.3619661,58.7635797 21.4510204,57.5714286" fill-rule="nonzero"></path>
                    <path d="M32.0832653,43.0857143 C33.3440924,43.2698339 34.5931372,42.6846205 35.2542857,41.6 C35.3956329,41.4682346 35.4585167,41.2730799 35.4205419,41.0840371 C35.3825672,40.8949943 35.2491312,40.7389318 35.0677551,40.6714286 L30.9640816,39.9285714 C30.8104466,39.9702602 30.6819267,40.0751419 30.610713,40.216946 C30.5394992,40.3587502 30.5323371,40.5240452 30.5910204,40.6714286 C30.9640816,41.6 30.5910204,43.0857143 32.0832653,42.9" fill-rule="nonzero"></path>
                    <path d="M18.0934694,49.5857143 C18.28,50.5142857 18.0934694,51.6285714 19.7722449,51.6285714 C21.4510204,51.6285714 22.0106122,51.4428571 22.0106122,50.1428571 C22.0106122,48.8428571 20.5183673,48.4714286 19.3991837,48.2857143 C19.0634413,48.1182337 18.6595602,48.1675682 18.3744396,48.4108878 C18.0893189,48.6542073 17.9785805,49.0440449 18.0934694,49.4" fill-rule="nonzero"></path>
                    <path d="M7.6477551,71.5 C7.08743954,71.4407639 6.53025657,71.636876 6.1318263,72.0335626 C5.73339603,72.4302492 5.53642189,72.9849937 5.59591837,73.5428571 C5.59591837,74.2857143 5.40938776,75.4 6.52857143,75.2142857 C7.6477551,75.0285714 8.95346939,74.8428571 8.95346939,73.3571429 C9.0649749,72.9348512 8.98425561,72.4851033 8.73275796,72.1273933 C8.48126031,71.7696833 8.0844496,71.540231 7.6477551,71.5" fill-rule="nonzero"></path>
                    <path d="M35.4408163,55.5285714 C35.0285892,55.4642066 34.6102913,55.5998752 34.31524,55.8936353 C34.0201886,56.1873954 33.8839236,56.6038626 33.9485714,57.0142857 C33.9485714,58.3142857 34.135102,59.2428571 35.4408163,59.2428571 C35.8677653,59.2964256 36.297157,59.1638799 36.6187864,58.8792382 C36.9404159,58.5945965 37.1229687,58.1855722 37.1195918,57.7571429 C36.9330612,56.6428571 37.1195918,55.3428571 35.4408163,55.3428571" fill-rule="nonzero"></path>
                    <path d="M12.1244898,71.6857143 C11.1918367,71.6857143 10.0726531,71.8714286 10.0726531,73.1714286 C9.95164729,73.5741665 10.0337091,74.0103029 10.2929268,74.3421242 C10.5521444,74.6739455 10.9565195,74.8604909 11.3783673,74.8428571 C11.8549313,74.8959147 12.3315367,74.7435324 12.6879718,74.4241447 C13.0444068,74.1047571 13.2466438,73.6488551 13.2436735,73.1714286 C13.2436735,72.2428571 13.0571429,71.6857143 12.1244898,71.8714286" fill-rule="nonzero"></path>
                    <path d="M24.8085714,43.8285714 C25.7412245,43.8285714 26.4873469,43.4571429 26.4873469,42.5285714 C26.5481192,42.0198722 26.3712281,41.5115196 26.0073957,41.1492794 C25.6435632,40.7870392 25.132976,40.6109223 24.6220408,40.6714286 C23.5028571,40.6714286 23.1297959,41.0428571 23.3163265,41.9714286 C23.5028571,42.9 23.3163265,43.8285714 24.8085714,43.8285714" fill-rule="nonzero"></path>
                    <path d="M18.4665306,44.2 C19.3991837,44.0142857 20.3318367,44.0142857 20.3318367,42.7142857 C20.3851275,42.2398073 20.2320754,41.7652878 19.9112838,41.4104126 C19.5904923,41.0555374 19.1325863,40.8541855 18.6530612,40.8571429 C17.7204082,40.8571429 17.3473469,41.7857143 17.7204082,42.9 C18.0934694,44.0142857 16.6012245,44.3857143 18.4665306,44.2" fill-rule="nonzero"></path>
                    <path d="M66.404898,75.2142857 C65.2857143,75.2142857 66.0318367,74.1 65.8453061,73.5428571 C65.6587755,72.9857143 66.0318367,72.4285714 66.7779592,72.4285714 C67.5240816,72.4285714 67.8971429,72.9857143 67.7106122,73.7285714 C67.8609635,74.1151075 67.7833855,74.5527893 67.5092292,74.8647396 C67.2350729,75.1766899 66.8096556,75.3113442 66.404898,75.2142857 M68.6432653,71.5 C68.5995796,71.2995852 68.4746209,71.1260672 68.2979931,71.0205543 C68.1213653,70.9150414 67.9087841,70.8869218 67.7106122,70.9428571 C66.5914286,71.5 65.2857143,70.7571429 64.3530612,71.5 C63.4204082,72.2428571 64.7261224,73.1714286 64.5395918,73.9142857 C64.5237968,73.9751918 64.5237968,74.039094 64.5395918,74.1 C64.7261224,75.0285714 63.2338776,76.3285714 64.5395918,76.8857143 C65.5499438,77.0019605 66.5735577,76.8745688 67.5240816,76.5142857 C67.9211791,76.4679999 68.2830131,76.2649993 68.5284724,75.9507899 C68.7739317,75.6365805 68.8824842,75.2374453 68.8297959,74.8428571 C68.8624537,74.2621372 68.7333519,73.6837216 68.4567347,73.1714286 C68.3662119,72.6179306 68.3662119,72.053498 68.4567347,71.5" fill-rule="nonzero"></path>
                    <path d="M64.5395918,90.6285714 C63.4204082,90.6285714 63.7934694,89.7 63.6069388,89.1428571 C63.4204082,88.5857143 63.2338776,87.6571429 64.1665306,87.8428571 C65.0559818,87.9277585 65.7600316,88.6287271 65.8453061,89.5142857 C65.7992266,89.8606413 65.6150597,90.1739517 65.3343265,90.3835802 C65.0535932,90.5932087 64.6999264,90.6815082 64.3530612,90.6285714 M64.3530612,86.7285714 C63.0473469,86.7285714 61.9281633,87.1 62.3012245,88.5857143 C62.6742857,90.0714286 60.9955102,91.7428571 63.0473469,92.3 C65.0991837,92.8571429 67.337551,91.1857143 67.5240816,89.8857143 C67.2183544,88.3512592 66.059452,87.1253141 64.5395918,86.7285714" fill-rule="nonzero"></path>
                    <path d="M65.6587755,82.4571429 C64.9126531,82.4571429 64.3530612,82.4571429 64.3530612,81.5285714 C64.3530612,80.6 65.0991837,80.7857143 65.6587755,80.6 C65.9723608,80.5276218 66.3012672,80.6213608 66.5288858,80.8479833 C66.7565044,81.0746058 66.8506555,81.4020728 66.7779592,81.7142857 C66.7779592,82.4571429 66.2183673,82.6428571 65.6587755,82.4571429 M65.6587755,79.3 C63.4204082,79.1142857 63.2338776,79.4857143 63.0473469,82.2714286 C62.8608163,85.0571429 64.9126531,83.9428571 65.8453061,84.1285714 C66.7779592,84.3142857 67.8971429,83.3857143 68.0836735,81.1571429 C68.2702041,78.9285714 66.7779592,79.4857143 65.6587755,79.3" fill-rule="nonzero"></path>
                    <path d="M45.7,75.9571429 C44.3942857,75.9571429 45.3269388,74.8428571 44.9538776,74.4714286 C44.8288667,73.8844794 44.9963739,73.2735595 45.4035911,72.8312667 C45.8108083,72.3889739 46.4075598,72.1698058 47.0057143,72.2428571 C47.9383673,72.0571429 47.9383673,72.8 47.9383673,73.3571429 C47.990431,74.0289725 47.7581259,74.6918955 47.2976046,75.1856711 C46.8370832,75.6794467 46.1902547,75.9591396 45.5134694,75.9571429 M47.3787755,70.5714286 C45.3184153,70.5714286 43.6481633,72.2343709 43.6481633,74.2857143 C43.6481633,75.4 43.275102,76.5142857 43.8346939,77.2571429 C44.3942857,78 45.8865306,77.0714286 47.0057143,77.2571429 C47.4020369,77.3096005 47.8029266,77.2015231 48.1185171,76.957138 C48.4341076,76.712753 48.6380005,76.3525025 48.6844898,75.9571429 C48.8710204,75.2142857 49.057551,74.2857143 49.057551,73.7285714 C49.2072515,72.4318636 48.5400578,71.1771241 47.3787755,70.5714286" fill-rule="nonzero"></path>
                    <path d="M47.5653061,89.1428571 C47.5653061,90.2571429 46.6326531,90.2571429 45.7,90.2571429 C44.7673469,90.2571429 44.7673469,89.7 44.9538776,88.9571429 C44.8892298,88.5467197 45.0254948,88.1302525 45.3205461,87.8364924 C45.6155974,87.5427324 46.0338953,87.4070637 46.4461224,87.4714286 C47.5653061,87.4714286 47.5653061,88.5857143 47.5653061,89.3285714 M47.0057143,86.3571429 C46.1770861,86.0438106 45.2414237,86.3543331 44.7673469,87.1 C43.8075327,88.0119138 43.3254699,89.3146437 43.4616327,90.6285714 C43.0885714,92.1142857 43.8346939,92.4857143 45.5134694,92.1142857 L47.0057143,92.1142857 C47.9624322,92.0185649 48.6893083,91.2144593 48.6844898,90.2571429 C48.9377546,88.7472818 48.1843408,87.2470487 46.8191837,86.5428571" fill-rule="nonzero"></path>
                    <path d="M46.4461224,80.0428571 C46.7103078,79.9618663 46.9978179,80.0329333 47.1932804,80.2275404 C47.3887429,80.4221476 47.4601224,80.7083994 47.3787755,80.9714286 C47.5044428,81.3233275 47.4446819,81.7145065 47.219609,82.0132904 C46.9945361,82.3120743 46.6340866,82.4787238 46.2595918,82.4571429 C45.9582293,82.5895093 45.6090875,82.5537934 45.3410557,82.36318 C45.0730239,82.1725665 44.9258549,81.8553262 44.9538776,81.5285714 C44.9538776,80.4142857 45.8865306,80.6 46.2595918,80.2285714 M45.5134694,84.1285714 L46.0730612,84.1285714 C47.3787755,84.6857143 47.7518367,83.5714286 48.3114286,82.6428571 C48.8934112,81.5589866 48.7451239,80.2302414 47.9383673,79.3 C47.2579848,78.7164273 46.2754921,78.6411817 45.5134694,79.1142857 C43.8346939,79.4857143 43.8346939,80.7857143 43.8346939,82.0857143 C43.8563617,82.3328635 43.8563617,82.5814222 43.8346939,82.8285714 C43.6481633,84.1285714 44.0212245,84.8714286 45.5134694,84.1285714" fill-rule="nonzero"></path>
                    <path d="M76.6640816,32.3142857 C77.4102041,32.3142857 77.5967347,31.7571429 77.4102041,30.8285714 C77.0776415,28.7305623 77.1408993,26.5892082 77.5967347,24.5142857 C77.7832653,24.1428571 77.9697959,23.5857143 77.2236735,23.4 C76.477551,23.2142857 76.477551,23.7714286 76.2910204,24.1428571 C75.884182,25.4657553 75.6952052,26.8455201 75.7314286,28.2285714 C75.7314286,29.5285714 75.7314286,30.2714286 75.7314286,31.0142857 C75.7314286,31.7571429 75.544898,32.5 76.477551,32.3142857" fill-rule="nonzero"></path>
                    <path d="M79.2755102,31.0142857 C79.2755102,31.3857143 79.4620408,31.9428571 80.0216327,31.7571429 C80.2565316,31.7646038 80.4812321,31.6614381 80.628047,31.4787226 C80.7748618,31.2960072 80.8266292,31.0551005 80.7677551,30.8285714 C80.7677551,29.9 80.7677551,28.9714286 80.7677551,28.0428571 C80.7677551,27.1142857 80.5812245,25.8142857 80.5812245,24.7 C80.6440581,24.5240505 80.6141777,24.328461 80.5016412,24.1790691 C80.3891048,24.0296772 80.20888,23.9463524 80.0216327,23.9571429 C79.8449098,23.8945842 79.6484606,23.9243339 79.4984119,24.0363778 C79.3483633,24.1484218 79.2646723,24.3278578 79.2755102,24.5142857 C79.6485714,26.5571429 79.0889796,28.6 79.2755102,30.8285714" fill-rule="nonzero"></path>
                    <path d="M73.3065306,43.6428571 C73.1858096,43.372696 73.2015396,43.0614427 73.3488884,42.8047108 C73.4962372,42.5479788 73.7575866,42.3764653 74.0526531,42.3428571 C74.3801977,42.2877009 74.7154261,42.3802659 74.9676485,42.5955104 C75.2198709,42.8107549 75.3630192,43.1264326 75.3583673,43.4571429 C75.3583673,45.6857143 75.544898,47.7285714 75.3583673,49.9571429 C75.1718367,52.1857143 75.3583673,51.6285714 74.2391837,51.4428571 C73.12,51.2571429 73.4930612,50.5142857 73.4930612,49.7714286 C73.4930612,49.0285714 73.4930612,48.2857143 73.4930612,47.7285714 C73.5852674,46.3640147 73.5226955,44.9934583 73.3065306,43.6428571 M81.3273469,50.7 C81.3820955,50.9467675 81.3334593,51.2050921 81.1926615,51.4153646 C81.0518637,51.625637 80.8310682,51.7696911 80.5812245,51.8142857 C80.3333723,51.8687947 80.0739122,51.8203714 79.8627154,51.6801897 C79.6515187,51.5400081 79.5068315,51.3201789 79.4620408,51.0714286 C79.1713207,48.7279514 79.1713207,46.3577629 79.4620408,44.0142857 C79.6404514,43.4690465 80.2053681,43.1476497 80.7677551,43.2714286 C81.5138776,43.2714286 81.5138776,44.0142857 81.5138776,44.3857143 C81.5138776,44.7571429 81.5138776,46.6142857 81.5138776,47.7285714 C81.5138776,48.8428571 81.3273469,49.7714286 81.5138776,50.8857143 M81.3273469,40.8571429 C81.3330848,41.1392513 81.2096739,41.4086526 80.991955,41.589291 C80.774236,41.7699295 80.485832,41.8422054 80.2081633,41.7857143 C79.5679493,41.6892214 78.9232739,41.9301937 78.505021,42.4223294 C78.0867681,42.914465 77.9547799,43.587351 78.1563265,44.2 C78.2639096,46.5537936 78.2015724,48.9122407 77.9697959,51.2571429 C77.7832653,52.9285714 78.902449,53.1142857 80.2081633,53.3 C81.5138776,53.4857143 81.8869388,53.1142857 81.7004082,54.4142857 C81.5138776,55.7142857 80.7677551,55.3428571 80.0216327,55.3428571 L74.6122449,55.3428571 C74.0526531,55.3428571 73.3065306,56.0857143 73.12,54.9714286 C72.9334694,53.8571429 72.9334694,53.1142857 74.0526531,52.9285714 C75.1718367,52.7428571 76.1044898,53.1142857 76.2910204,52.1857143 C76.5921796,50.9085314 76.7176808,49.5965358 76.6640816,48.2857143 C76.6640816,46.2428571 75.9179592,44.2 76.8506122,42.3428571 C77.7832653,40.4857143 76.2910204,41.2285714 75.7314286,41.2285714 C74.6578257,41.497887 73.5477622,40.9452842 73.12,39.9285714 C72.8941694,39.6518393 72.5027092,39.5738898 72.1873469,39.7428571 C71.3025297,40.0192602 70.3381504,39.7238268 69.762449,39 C69.4161086,38.8326493 69.2545111,38.4304237 69.3893878,38.0714286 C69.4793642,37.6320999 69.8717925,37.3195311 70.3220408,37.3285714 C70.9498733,37.2463588 71.5882981,37.3099219 72.1873469,37.5142857 C73.12,37.8857143 73.8661224,37.8857143 74.2391837,36.7714286 C74.4921327,36.1984461 75.1192582,35.8862556 75.7314286,36.0285714 C78.2469552,36.1772246 80.7440279,36.5501463 83.1926531,37.1428571 C83.6047251,37.1428571 83.9387755,37.4754456 83.9387755,37.8857143 C83.8487991,38.325043 83.4563708,38.6376117 83.0061224,38.6285714 C81.1408163,38.4428571 80.9542857,39.3714286 80.9542857,40.8571429 M75.544898,20.4285714 L75.544898,20.2428571 C78.5293878,19.1285714 77.2236735,16.9 77.2236735,15.0428571 C77.3430051,12.194176 77.2807031,9.34082671 77.0371429,6.5 C76.8896593,5.88225851 77.1064737,5.23466174 77.5967347,4.82857143 C78.1485731,6.24795986 78.4025008,7.76485819 78.3428571,9.28571429 C78.9539825,12.0915257 79.0801439,14.980539 78.7159184,17.8285714 C78.6550449,18.2379472 78.7935757,18.6517207 79.0889796,18.9428571 C82.4465306,23.5857143 82.8195918,28.7857143 82.4465306,34.1714286 C82.4745533,34.4981833 82.3273843,34.8154237 82.0593525,35.0060371 C81.7913207,35.1966505 81.4421789,35.2323665 81.1408163,35.1 C79.1636131,34.7998337 77.1706233,34.6138086 75.1718367,34.5428571 C74.6198032,34.5505362 74.1446138,34.156278 74.0526531,33.6142857 C73.6795918,29.1571429 73.3065306,24.7 75.544898,20.4285714 M69.762449,87.2857143 C69.2028571,90.8142857 69.762449,94.7142857 69.0163265,98.2428571 C69.0163265,98.8 69.0163265,99.1714286 68.4567347,99.3571429 L61.7416327,100.1 C60.9955102,100.1 60.8089796,99.5428571 60.8089796,99.1714286 C60.8089796,98.8 60.8089796,97.6857143 60.8089796,96.9428571 L61.1820408,96.9428571 C61.3685714,90.8142857 61.3685714,84.6857143 61.555102,78.3714286 C61.7416327,75.2142857 62.1146939,72.0571429 62.1146939,68.9 C61.9542365,68.5905019 62.0313,68.2115655 62.3000453,67.9885912 C62.5687906,67.7656169 62.95705,67.7584812 63.2338776,67.9714286 L69.5759184,68.5285714 C69.8592669,68.5228587 70.1298523,68.6457294 70.3112848,68.8624956 C70.4927172,69.0792617 70.5653108,69.3664036 70.5085714,69.6428571 C70.7160524,75.5341627 70.4666043,81.4326255 69.762449,87.2857143 M59.8763265,70.5714286 C59.1302041,70.5714286 59.3167347,69.6428571 59.1302041,69.0857143 C59.0575077,68.7735014 59.1516588,68.4460344 59.3792774,68.2194119 C59.6068961,67.9927894 59.9358025,67.8990504 60.2493878,67.9714286 C61.1820408,67.9714286 60.622449,68.7142857 60.622449,69.2714286 C60.622449,69.8285714 60.622449,70.7571429 59.6897959,70.7571429 M55.9591837,100.657143 C55.3995918,100.842857 55.2130612,100.657143 55.3995918,99.9142857 C55.4770775,99.0038413 55.8731753,98.1493853 56.5187755,97.5 C56.7972435,98.3377276 56.9235712,99.2181517 56.8918367,100.1 C57.0783673,100.842857 56.1457143,100.657143 55.7726531,100.657143 M50.3632653,87.6571429 C50.1767347,91.3714286 50.1767347,95.0857143 49.9902041,98.8 C49.8036735,102.514286 48.8710204,101.028571 46.2595918,100.842857 L42.1559184,100.285714 C41.0367347,100.285714 41.2232653,99.3571429 41.2232653,98.8 C41.2232653,98.2428571 41.5963265,96.0142857 41.5963265,94.7142857 C41.9693878,87.8428571 42.5289796,80.9714286 42.9020408,74.1 C42.9020408,73.1714286 43.0885714,72.2428571 43.0885714,71.3142857 C43.0602845,70.7079785 43.3313648,70.1261686 43.8145713,69.756098 C44.2977778,69.3860273 44.9321274,69.2744008 45.5134694,69.4571429 C46.985177,69.7647388 48.4978967,69.8274929 49.9902041,69.6428571 C50.7363265,69.4571429 50.9228571,70.0142857 50.9228571,70.5714286 C50.9228571,76.3285714 51.1093878,81.9 50.7363265,87.6571429 M30.777551,69.2714286 C30.9772311,73.2331191 30.9149197,77.2035974 30.5910204,81.1571429 C30.6190431,81.4838976 30.4718741,81.801138 30.2038423,81.9917514 C29.9358105,82.1823648 29.5866687,82.2180807 29.2853061,82.0857143 C28.3049257,81.8790167 27.2994171,81.8164474 26.3008163,81.9 C25.5546939,82.0857143 25.5546939,81.3428571 25.7412245,80.9714286 C26.6738776,76.3285714 25.9277551,71.6857143 26.8604082,67.0428571 C27.0469388,65.9285714 26.6738776,65.5571429 25.7412245,65.7428571 L25.5546939,65.7428571 C24.4355102,66.1142857 23.1297959,66.4857143 22.5702041,65 C22.0106122,63.5142857 23.8759184,62.7714286 25.3681633,62.5857143 L26.1142857,62.5857143 C28.5391837,62.5857143 28.7257143,62.4 28.5391837,60.3571429 C28.2735811,58.3228434 28.2735811,56.2628709 28.5391837,54.2285714 C28.6821251,53.6190802 28.3685623,52.9946992 27.7930612,52.7428571 C27.0450983,52.294641 26.5317444,51.5428418 26.3882252,50.6854956 C26.2447061,49.8281494 26.4854126,48.9512235 27.0469388,48.2857143 C28.9122449,45.6857143 29.844898,45.3142857 31.7102041,46.4285714 C33.0002293,47.073295 33.8295972,48.3721254 33.8685947,49.8087158 C33.9075921,51.2453062 33.1498991,52.5868424 31.8967347,53.3 C30.777551,53.8571429 30.0314286,54.4142857 30.777551,55.9 C31.1755284,57.0428195 31.1755284,58.285752 30.777551,59.4285714 C30.5838238,60.0951394 30.4588244,60.7796274 30.4044898,61.4714286 C30.2179592,63.1428571 30.5910204,63.8857143 32.4563265,63.3285714 C32.8097723,63.2034541 33.2026707,63.2629535 33.502768,63.4870414 C33.8028652,63.7111293 33.9702472,64.0700013 33.9485714,64.4428571 C34.135102,65.1857143 33.5755102,65.3714286 33.0159184,65.5571429 C32.4563265,65.7428571 30.5910204,66.6714286 30.777551,69.4571429 M29.844898,85.0571429 L26.8604082,85.0571429 C26.1142857,85.0571429 25.3681633,84.6857143 25.5546939,83.9428571 C25.7412245,83.2 26.4873469,83.7571429 27.0469388,83.7571429 L30.2179592,84.1285714 C30.5910204,84.1285714 30.9640816,84.1285714 30.9640816,84.6857143 C30.9640816,85.2428571 30.5910204,85.0571429 30.2179592,85.2428571 M27.0469388,36.9571429 L25.9277551,36.9571429 L17.5338776,29.7142857 L17.5338776,29.1571429 C20.309656,29.7311292 23.1803268,29.6676157 25.9277551,28.9714286 C28.6881853,28.0540936 31.6142406,27.737436 34.5081633,28.0428571 L35.4408163,28.0428571 C36.56,28.6 38.2387755,27.8571429 38.6118367,28.9714286 C38.984898,30.0857143 37.6791837,30.6428571 36.9330612,31.3857143 L36.1869388,32.1285714 C32.4563265,36.5857143 32.4563265,36.5857143 26.6738776,36.4 M13.9897959,56.8285714 C13.4302041,57.7571429 12.6840816,56.8285714 12.1244898,56.6428571 L13.0571429,55.7142857 L13.8032653,54.6 C14.3888726,55.1121531 14.5433846,55.9582501 14.1763265,56.6428571 M9.14,56.0857143 C7.74136797,55.8437974 6.67463175,54.7058676 6.52857143,53.3 C6.47335618,51.5625818 7.63581734,50.0194167 9.32653061,49.5857143 C10.8187755,49.5857143 12.3110204,51.4428571 12.3110204,53.4857143 C11.9719514,54.9701656 10.6683262,56.039041 9.14,56.0857143 M103.151429,76.8857143 C102.778367,72.2428571 103.151429,67.6 102.591837,62.7714286 L101.845714,54.9714286 C101.286122,54.0428571 91.7730612,54.4142857 91.0269388,54.4142857 C90.6598772,54.2326244 90.2284373,54.2331263 89.8618031,54.4156411 C89.4951689,54.598156 89.2359017,54.9414962 89.1616327,55.3428571 C88.7460891,56.2842482 88.4938089,57.2889525 88.4155102,58.3142857 C88.2289796,61.6571429 88.7885714,65 88.2289796,68.5285714 C87.5896588,71.4564017 87.4634472,74.4722237 87.8559184,77.4428571 L87.8559184,78.7428571 C85.8040816,78.3714286 82.4465306,78.5571429 81.5138776,78.3714286 C80.5812245,78.1857143 81.5138776,75.7714286 81.7004082,74.4714286 C82.0734694,69.8285714 81.8869388,65.3714286 82.4465306,60.7285714 C82.3933611,60.3832243 82.4820488,60.0311052 82.6925987,59.7516006 C82.9031487,59.4720959 83.2178363,59.288735 83.5657143,59.2428571 C84.8019304,59.2428571 85.8040816,58.2450917 85.8040816,57.0142857 C85.9110186,56.372846 85.7535669,55.7155772 85.3673627,55.1912399 C84.9811585,54.6669027 84.3988547,54.3198286 83.7522449,54.2285714 C83.4534787,54.1832321 83.1858284,54.0195214 83.0101684,53.7746737 C82.8345084,53.529826 82.7657717,53.2246559 82.8195918,52.9285714 C82.5216875,49.4700717 82.4593681,45.9954557 82.6330612,42.5285714 C82.3989453,41.1687794 83.0787519,39.8151164 84.3118367,39.1857143 C86.1771429,38.2571429 86.1771429,36.9571429 84.684898,35.2857143 C84.0795134,34.5623429 83.8086081,33.6183236 83.9387755,32.6857143 C84.1766975,28.9709265 83.669423,25.2461496 82.4465306,21.7285714 C81.6338142,19.8273065 81.069611,17.8300299 80.7677551,15.7857143 C80.3946939,11.3285714 79.2755102,7.05714286 79.4620408,2.6 C79.6485714,-1.85714286 78.3428571,1.3 77.4102041,1.11428571 C76.477551,0.928571429 76.477551,1.85714286 76.2910204,2.6 C76.1044898,3.34285714 76.477551,8.54285714 76.2910204,11.5142857 C76.1044898,14.4857143 76.1044898,17.4571429 74.0526531,20.0571429 C73.4975565,20.9545976 73.1769275,21.9761201 73.12,23.0285714 C72.5923345,26.2826324 72.3427331,29.5753779 72.3738776,32.8714286 C72.3738776,34.3571429 72.3738776,35.4714286 70.3220408,35.2857143 C69.2509082,35.1714432 68.2734082,35.9013598 68.0836735,36.9571429 C67.6597449,37.8323217 67.9850405,38.8849056 68.8297959,39.3714286 L70.8816327,40.6714286 C71.5230622,40.9948568 71.9476586,41.6289641 72.0008163,42.3428571 C72.3214632,45.6874592 72.1960199,49.0596051 71.6277551,52.3714286 C71.2546939,54.9714286 71.4412245,54.9714286 68.8297959,55.1571429 C67.765618,55.1527564 66.8746943,55.9591424 66.7779592,57.0142857 C66.5914286,58.3142857 67.5240816,58.5 68.6432653,58.6857143 C69.3479622,58.6633316 70.0220636,58.9728287 70.4625082,59.520975 C70.9029528,60.0691214 71.058255,60.7918415 70.8816327,61.4714286 C71.0681633,62.9571429 70.8816327,64.4428571 70.8816327,65.9285714 C70.8816327,67.4142857 70.5085714,67.0428571 69.762449,66.8571429 C67.2391035,66.4129633 64.6694809,66.2881644 62.1146939,66.4857143 C59.8763265,66.6714286 59.3167347,66.3 59.5032653,64.0714286 C59.6897959,61.8428571 58.9436735,60.3571429 59.1302041,58.5 C59.1392841,58.0517221 58.8253414,57.6610112 58.3840816,57.5714286 C58.045939,57.4846881 57.8134467,57.1760551 57.8244898,56.8285714 C58.0110204,54.4142857 57.264898,52 58.0110204,49.7714286 C58.2122021,49.1523943 57.9854271,48.4750467 57.4514286,48.1 C57.3806092,48.0200498 57.2787014,47.9742483 57.1716327,47.9742483 C57.0645639,47.9742483 56.9626561,48.0200498 56.8918367,48.1 C56.4685419,48.546613 56.3253053,49.1883565 56.5187755,49.7714286 C57.0870296,52.1720662 56.9576403,54.6841168 56.1457143,57.0142857 C55.4306543,58.5257868 55.0490346,60.1722349 55.0265306,61.8428571 C55.0265306,63.7 54.2804082,65.1857143 54.2804082,67.0428571 C54.2804082,67.4531258 53.9463578,67.7857143 53.5342857,67.7857143 C51.4475199,68.5474048 49.2232203,68.8637713 47.0057143,68.7142857 C45.1404082,68.5285714 43.0885714,67.9714286 41.5963265,70.2 C41.406696,70.421541 41.1045804,70.512403 40.8234722,70.4324379 C40.542364,70.3524728 40.3340643,70.116416 40.2906122,69.8285714 C40.1370452,69.3490013 40.0738066,68.845307 40.1040816,68.3428571 C40.4771429,64.6285714 40.2906122,60.9142857 40.4771429,57.3857143 C40.6636735,53.8571429 40.4771429,45.1285714 40.2906122,39 C40.2906122,37.8857143 39.917551,37.3285714 38.6118367,37.3285714 C37.4828793,37.318753 36.3578724,37.1942992 35.2542857,36.9571429 C36.7822062,34.5773355 38.5990448,32.3941954 40.6636735,30.4571429 C42.1559184,28.7857143 41.9693878,28.2285714 39.7310204,27.6714286 C35.6427854,26.5391568 31.3217044,26.5391568 27.2334694,27.6714286 C23.086597,28.9077644 18.6579522,28.8429223 14.5493878,27.4857143 C13.9897959,27.3 13.4302041,27.1142857 13.0571429,27.8571429 C12.9355459,28.1009744 12.9275436,28.38565 13.0352526,28.6358711 C13.1429616,28.8860922 13.355531,29.0766508 13.6167347,29.1571429 C17.5338776,31.0142857 20.1453061,34.5428571 24.2489796,37.1428571 C22.4115853,37.5513329 20.513698,37.6143189 18.6530612,37.3285714 C14.922449,36.7714286 13.8032653,37.8857143 13.9897959,41.6 C14.1763265,45.3142857 13.8032653,49.7714286 13.8032653,53.6714286 C13.5103144,52.3613056 13.0063882,51.1070035 12.3110204,49.9571429 C11.3318301,48.7266342 9.62453784,48.3403114 8.20734694,49.0285714 C6.83051906,49.9075241 5.7819107,51.2125481 5.22285714,52.7428571 C4.29020408,54.7857143 6.52857143,55.5285714 7.08816327,57.2 L4.84979592,57.2 C4.48273434,57.0183387 4.05129447,57.0188406 3.68466028,57.2013554 C3.31802609,57.3838703 3.05875888,57.7272105 2.9844898,58.1285714 C2.5689462,59.0699624 2.31666606,60.0746667 2.23836735,61.1 C2.05183673,64.4428571 2.61142857,67.7857143 2.05183673,71.3142857 C1.41621596,74.2425884 1.29003101,77.2577737 1.67877551,80.2285714 C2.61142857,84.1285714 1.86530612,88.0285714 1.86530612,91.9285714 C1.86530612,95.8285714 2.05183673,98.4285714 2.23836735,101.585714 C2.23836735,101.957143 2.05183673,102.7 2.79795918,102.514286 C3.32590152,102.459998 3.76830808,102.09294 3.91714286,101.585714 C3.93774126,101.205164 3.87406152,100.824757 3.73061224,100.471429 C2.61142857,97.3142857 3.35755102,94.1571429 3.17102041,91 C2.9844898,87.8428571 4.66326531,82.2714286 3.17102041,78 C2.93182245,77.2185849 2.86814179,76.3943594 2.9844898,75.5857143 C3.49816918,71.7703204 3.68537286,67.9183759 3.54408163,64.0714286 C3.57510432,62.7642487 3.69977466,61.4609389 3.91714286,60.1714286 C3.91714286,59.4534584 4.50173106,58.8714286 5.22285714,58.8714286 L13.0571429,58.3142857 C13.881287,58.3142857 14.5493878,58.9794627 14.5493878,59.8 C14.6680032,62.4806902 14.9796881,65.1494494 15.4820408,67.7857143 C15.7288243,68.819189 15.7919543,69.8877032 15.6685714,70.9428571 C15.4820408,73.5428571 15.2955102,76.1428571 15.4820408,78.5571429 C15.6685714,80.9714286 15.855102,85.6142857 15.6685714,89.1428571 C15.4820408,92.6714286 15.1089796,96.5714286 14.922449,100.285714 C14.922449,100.842857 14.7359184,101.771429 15.6685714,101.771429 C16.3182913,101.590461 16.722551,100.946477 16.6012245,100.285714 C16.6012245,99.3571429 16.6012245,98.6142857 16.6012245,97.6857143 C16.7877551,91.3714286 17.3473469,85.2428571 16.9742857,78.9285714 C16.6012245,72.6142857 16.9742857,69.6428571 16.4146939,64.8142857 C15.2955102,56.6428571 15.4820408,48.4714286 15.2955102,40.1142857 C15.2434863,39.6212354 15.3916245,39.1279424 15.7069406,38.7442426 C16.0222567,38.3605429 16.4785727,38.1182917 16.9742857,38.0714286 C18.9575035,37.8762047 20.951674,37.8141596 22.9432653,37.8857143 C27.7262646,37.3753358 32.5561843,37.5002392 37.3061224,38.2571429 C37.7856476,38.2541855 38.2435535,38.4555374 38.5643451,38.8104126 C38.8851366,39.1652878 39.0381887,39.6398073 38.984898,40.1142857 C38.984898,41.9714286 39.3579592,43.8285714 39.3579592,45.6857143 C39.3579592,52.3714286 39.1714286,59.0571429 38.984898,65.7428571 C38.984898,67.2285714 39.7310204,69.0857143 38.6118367,69.8285714 C37.4926531,70.5714286 35.6273469,70.2 34.135102,70.2 C32.6428571,70.2 32.6428571,70.5714286 32.4563265,69.6428571 C32.0462382,68.7481926 32.2736322,67.691665 33.0159184,67.0428571 L34.3216327,66.4857143 C35.3901896,66.2114048 36.0494625,65.1447747 35.8138776,64.0714286 C35.8282243,62.8705902 34.9538961,61.8418153 33.7620408,61.6571429 C31.7102041,61.6571429 31.8967347,60.5428571 32.2697959,59.2428571 C32.3990312,58.50708 32.4614601,57.7612113 32.4563265,57.0142857 C32.5760107,54.4646076 34.4206084,52.321995 36.9330612,51.8142857 C37.9267005,51.4630841 38.4912391,50.4192436 38.2387755,49.4 C38.2387755,48.2857143 37.6791837,47.3571429 36.56,47.7285714 C35.4408163,48.1 35.2542857,47.3571429 34.6946939,46.6142857 C34.135102,45.8714286 29.6583673,43.0857143 27.0469388,46.6142857 C26.5776527,47.4339439 25.8592307,48.0841965 24.995102,48.4714286 C24.4747893,48.6574782 24.1004284,49.1146877 24.0222434,49.6595876 C23.9440584,50.2044875 24.1748634,50.747771 24.6220408,51.0714286 C25.6169256,52.038999 26.4371898,53.1697789 27.0469388,54.4142857 C27.42,54.9714286 27.7930612,55.7142857 26.3008163,55.5285714 C24.8085714,55.3428571 24.8085714,56.6428571 24.6220408,57.5714286 C24.501035,57.9741665 24.5830968,58.4103029 24.8423145,58.7421242 C25.1015322,59.0739455 25.5059073,59.2604909 25.9277551,59.2428571 C26.3008163,59.2428571 27.0469388,58.5 27.0469388,59.8 C27.0469388,61.1 26.8604082,61.4714286 25.7412245,61.2857143 C24.6220408,61.1 22.3836735,62.5857143 21.2644898,64.0714286 C20.8600646,64.5633015 20.7086602,65.2145816 20.8548925,65.833349 C21.0011248,66.4521164 21.4283275,66.9678495 22.0106122,67.2285714 L23.5028571,67.6 C24.8085714,67.6 25.1816327,67.9714286 25.1816327,69.2714286 C24.965619,76.2349154 24.3427975,83.1799874 23.3163265,90.0714286 C22.9569847,93.4047132 22.9569847,96.7667154 23.3163265,100.1 C23.3163265,100.471429 23.3163265,100.842857 23.6893878,100.842857 C24.0881165,100.875528 24.4633581,100.651369 24.6220408,100.285714 C24.7756079,99.8061441 24.8388464,99.3024498 24.8085714,98.8 C24.3438363,95.473154 24.3438363,92.0982745 24.8085714,88.7714286 C25.1816327,86.3571429 25.1816327,86.1714286 27.6065306,86.5428571 C30.0314286,86.9142857 30.777551,86.9142857 30.4044898,90.0714286 C30.0314286,93.2285714 30.4044898,91.1857143 30.2179592,91.5571429 C29.891222,94.081967 29.8287099,96.6337474 30.0314286,99.1714286 C30.0314286,99.5428571 29.844898,100.285714 30.5910204,100.285714 C30.8743689,100.291427 31.1449543,100.168556 31.3263868,99.9517901 C31.5078193,99.735024 31.5804129,99.4478821 31.5236735,99.1714286 C31.5772427,98.8019146 31.5772427,98.4266568 31.5236735,98.0571429 C31.2500018,94.0970658 31.3123999,90.1210598 31.7102041,86.1714286 C31.7102041,84.6857143 32.6428571,83.3857143 32.4563265,82.0857143 C32.1023802,79.0038531 31.9776868,75.9001617 32.0832653,72.8 C32.0832653,72.0571429 32.2697959,71.5 33.202449,71.6857143 C34.135102,71.8714286 37.6791837,71.3142857 39.917551,71.5 C42.1559184,71.6857143 41.5963265,72.2428571 41.5963265,73.5428571 C41.2232653,77.6285714 40.8502041,81.7142857 40.6636735,85.8 C40.4771429,89.8857143 40.1040816,94.5285714 39.7310204,98.8 C39.3579592,103.071429 39.1714286,101.585714 42.1559184,101.957143 C44.856806,102.522284 47.6393785,102.585247 50.3632653,102.142857 C52.2285714,101.585714 54.0938776,102.7 55.9591837,102.514286 L67.7106122,101.4 C69.9489796,101.214286 70.695102,100.471429 70.8816327,98.4285714 C71.2546939,92.6714286 71.0681633,86.9142857 72.0008163,81.3428571 C72.2417804,79.8074968 72.3043695,78.2496172 72.1873469,76.7 C71.8161417,73.4294554 71.8161417,70.1276874 72.1873469,66.8571429 C72.1873469,66.3 72.0008163,65.3714286 73.12,65.5571429 C74.2391837,65.7428571 77.0371429,65.5571429 79.0889796,66.1142857 C81.1408163,66.6714286 80.2081633,66.4857143 80.3946939,65.7428571 C80.4673902,65.4306443 80.3732391,65.1031772 80.1456205,64.8765547 C79.9180019,64.6499323 79.5890955,64.5561932 79.2755102,64.6285714 C77.2839094,64.6864957 75.2906128,64.6244777 73.3065306,64.4428571 C72.5604082,64.4428571 72.0008163,64.4428571 72.1873469,63.5142857 C72.3738776,62.5857143 72.1873469,62.0285714 73.4930612,62.2142857 L79.835102,62.9571429 C80.5812245,63.1428571 80.9542857,62.9571429 80.9542857,62.4 C81.0110251,62.1235464 80.9384315,61.8364046 80.756999,61.6196384 C80.5755666,61.4028723 80.3049811,61.2800016 80.0216327,61.2857143 L79.0889796,61.2857143 C77.0694217,61.4389288 75.0395375,61.1863038 73.12,60.5428571 C72.7469388,60.3571429 72.0008163,60.3571429 72.1873469,59.8 C72.3738776,59.2428571 71.8142857,57.9428571 70.5085714,57.9428571 C69.9706653,57.9476513 69.4717994,57.6638326 69.2028571,57.2 C72.3738776,57.7571429 75.1718367,56.4571429 78.1563265,56.6428571 C81.1408163,56.8285714 82.0734694,57.7571429 83.9387755,56.2714286 C85.8040816,54.7857143 84.4983673,56.4571429 84.684898,56.6428571 C84.8714286,56.8285714 84.4983673,58.3142857 83.3791837,57.9428571 C82.26,57.5714286 81.7004082,58.1285714 81.5138776,59.6142857 C81.239652,61.9564364 81.1150477,64.3135578 81.1408163,66.6714286 C81.1408163,67.7857143 80.9542857,68.7142857 79.2755102,68.3428571 C77.9434235,68.1918042 76.5946898,68.3836373 75.3583673,68.9 C74.9206378,69.1954247 74.3919889,69.3270085 73.8661224,69.2714286 C73.3065306,69.0857143 72.7469388,68.5285714 72.5604082,69.6428571 C72.3738776,70.7571429 73.3065306,70.5714286 73.8661224,70.5714286 C74.8314615,70.629552 75.7954528,70.4375975 76.6640816,70.0142857 L79.2755102,69.6428571 C79.7763947,69.5619315 80.284258,69.7399731 80.6237153,70.1154971 C80.9631725,70.4910212 81.087697,71.0125577 80.9542857,71.5 C80.7677551,74.8428571 81.1408163,91.7428571 80.7677551,96.9428571 C80.7677551,97.6857143 80.7677551,98.8 82.0734694,97.8714286 L82.0734694,94.1571429 C81.8869388,89.7 81.7004082,85.2428571 81.7004082,80.6 L88.2289796,80.6 C88.4155102,83.3857143 88.042449,86.1714286 88.042449,88.9571429 C88.042449,91.7428571 88.2289796,95.4571429 88.4155102,98.6142857 C88.4155102,98.9857143 88.2289796,99.7285714 88.975102,99.5428571 C89.5030444,99.4885698 89.9454509,99.1215112 90.0942857,98.6142857 C90.1148841,98.2337352 90.0512044,97.8533289 89.9077551,97.5 C88.7885714,94.3428571 89.5346939,91.1857143 89.3481633,88.0285714 C89.1616327,84.8714286 90.8404082,79.3 89.3481633,75.0285714 C89.1089653,74.2471564 89.0452846,73.4229308 89.1616327,72.6142857 C89.6762107,68.7989734 89.8634181,64.9469525 89.7212245,61.1 C89.7541091,59.7929308 89.878767,58.4897516 90.0942857,57.2 C90.0942857,56.4820298 90.6788739,55.9 91.4,55.9 L99.2342857,56.2714286 C100.05843,56.2714286 100.726531,56.9366055 100.726531,57.7571429 C100.844504,60.4378842 101.156195,63.1066892 101.659184,65.7428571 C101.905967,66.7763319 101.969097,67.8448461 101.845714,68.9 C101.659184,71.5 101.472653,74.1 101.659184,76.5142857 C101.845714,78.9285714 102.032245,83.5714286 101.845714,87.1 C101.659184,90.6285714 101.286122,94.5285714 101.099592,98.2428571 C101.099592,98.8 100.913061,99.7285714 101.845714,99.7285714 C102.345259,99.4956536 102.643902,98.9753156 102.591837,98.4285714 C102.591837,97.5 102.591837,96.7571429 102.591837,95.8285714 C102.778367,89.5142857 103.337959,83.3857143 102.964898,77.0714286" fill-rule="nonzero"></path>
                    <path d="M99.9804082,61.8428571 C99.9419907,61.2244004 99.9419907,60.6041711 99.9804082,59.9857143 C100.101414,59.5829764 100.019352,59.14684 99.7601345,58.8150186 C99.5009168,58.4831973 99.0965417,58.296652 98.6746939,58.3142857 C98.1981299,58.2612281 97.7215245,58.4136105 97.3650895,58.7329981 C97.0086544,59.0523858 96.8064174,59.5082878 96.8093878,59.9857143 C96.9185049,61.6047231 96.7928615,63.2309396 96.4363265,64.8142857 C95.8767347,67.7857143 96.0632653,67.7857143 98.8612245,67.2285714 L99.0477551,67.2285714 C99.7938776,66.8571429 100.54,66.4857143 100.166939,65.3714286 C99.9166578,64.2126022 99.8536894,63.0214388 99.9804082,61.8428571" fill-rule="nonzero"></path>
                    <path d="M94.5710204,61.6571429 L94.5710204,60.7285714 C94.757551,59.4285714 94.5710204,58.1285714 93.0787755,58.1285714 C91.5865306,58.1285714 91.2134694,59.4285714 91.2134694,60.5428571 C91.3368623,62.3979683 91.3368623,64.2591746 91.2134694,66.1142857 C91.1321881,66.6129782 91.3110122,67.1186189 91.6881869,67.4565905 C92.0653616,67.7945622 92.5891906,67.9185417 93.0787755,67.7857143 C93.824898,67.7857143 94.9440816,66.8571429 94.5710204,66.1142857 C94.1979592,65.3714286 94.5710204,63.1428571 94.3844898,61.8428571" fill-rule="nonzero"></path>
                    <path d="M99.6073469,73.1714286 C99.5689295,72.5529718 99.5689295,71.9327425 99.6073469,71.3142857 C99.7283527,70.9115478 99.6462909,70.4754114 99.3870732,70.1435901 C99.1278556,69.8117688 98.7234805,69.6252234 98.3016327,69.6428571 C97.8250687,69.5897996 97.3484633,69.7421819 96.9920282,70.0615696 C96.6355932,70.3809572 96.4333562,70.8368592 96.4363265,71.3142857 C96.5454437,72.9332945 96.4198002,74.559511 96.0632653,76.1428571 C95.5036735,79.1142857 95.6902041,79.1142857 98.4881633,78.5571429 L98.6746939,78.5571429 C99.4208163,78.1857143 100.166939,77.8142857 99.7938776,76.7 C99.5435966,75.5411736 99.4806282,74.3500102 99.6073469,73.1714286" fill-rule="nonzero"></path>
                    <path d="M94.3844898,72.8 L94.3844898,71.8714286 C94.5710204,70.5714286 94.3844898,69.2714286 92.8922449,69.2714286 C91.4,69.2714286 91.0269388,70.5714286 91.0269388,71.6857143 C91.1503317,73.5408254 91.1503317,75.4020317 91.0269388,77.2571429 C90.9456574,77.7558353 91.1244816,78.261476 91.5016563,78.5994477 C91.878831,78.9374193 92.40266,79.0613989 92.8922449,78.9285714 C93.6383673,78.9285714 94.757551,78 94.3844898,77.2571429 C94.0114286,76.5142857 94.3844898,74.2857143 94.1979592,72.9857143" fill-rule="nonzero"></path>
                </g>
            </g>
        </g>
    </g>
</svg>