<?xml version="1.0" encoding="utf-8"?>
<!-- Generator: Adobe Illustrator 16.0.0, SVG Export Plug-In . SVG Version: 6.00 Build 0)  -->
<!DOCTYPE svg PUBLIC "-//W3C//DTD SVG 1.1//EN" "http://www.w3.org/Graphics/SVG/1.1/DTD/svg11.dtd">
<svg version="1.1" id="Layer_1" xmlns="http://www.w3.org/2000/svg" xmlns:xlink="http://www.w3.org/1999/xlink" x="0px" y="0px"
	 width="100px" height="78px" viewBox="0 0 100 78" enable-background="new 0 0 100 78" xml:space="preserve">
<g id="Page-1_1_">
	<g id="Nairobi-Stay" transform="translate(-1341.000000, -856.000000)">
		<g id="filters" transform="translate(168.000000, 785.000000)">
			<g id="give_11_" transform="translate(1177.000000, 72.000000)">
				<g id="Page-1_12_">
					<g id="Group-3_11_" transform="translate(0.000000, 35.064851)">
						<defs>
							<filter id="Adobe_OpacityMaskFilter" filterUnits="userSpaceOnUse" x="5.659" y="7.334" width="81.117" height="26.406">
								<feColorMatrix  type="matrix" values="1 0 0 0 0  0 1 0 0 0  0 0 1 0 0  0 0 0 1 0"/>
							</filter>
						</defs>
						<mask maskUnits="userSpaceOnUse" x="5.659" y="7.334" width="81.117" height="26.406" id="mask-3_11_">
							<g filter="url(#Adobe_OpacityMaskFilter)">
								<polygon id="path-2_11_" fill="#FFFFFF" points="5.658,7.334 86.775,7.334 86.775,33.74 5.658,33.74 								"/>
							</g>
						</mask>
						<path id="Fill-1_11_" mask="url(#mask-3_11_)" fill="#231F20" d="M65.883,12.058c-0.355-0.129-0.445-0.172-0.541-0.193
							c-0.131-0.031-0.264-0.055-0.396-0.066c-2.789-0.236-4.787,1.271-6.65,3.055c-0.182,0.174-0.584,0.412-0.221,0.723
							c0.357,0.307,0.904,0.631,1.258,0.164c0.656-0.863,1.635-1.143,2.502-1.615C63.1,13.437,64.398,12.812,65.883,12.058
							 M85.758,13.773c-2.221,0.525-3.801,1.934-5.438,3.205c-0.648,0.506-1.49,1.012-1.426,2.074
							c0.016,0.248-0.256,0.557,0.063,0.73c0.275,0.152,0.518-0.107,0.717-0.256c1.748-1.309,3.504-2.605,5.207-3.973
							C85.377,15.156,85.803,14.595,85.758,13.773 M59.885,19.986c1.113,0.014,2.211-0.074,3.262-0.479
							c0.258-0.1,0.707,0.215,0.781-0.207c0.07-0.396-0.404-0.5-0.682-0.635c-2.541-1.24-5.305-1.896-7.908-2.975
							c-0.494-0.205-1.035-0.297-1.559-0.432c-0.182-0.049-0.379-0.172-0.555,0.021c-0.402,0.445,0.002,2.586,0.584,2.879
							C55.727,19.121,57.693,19.941,59.885,19.986 M59.875,16.259c0.424,0.418,0.9,0.326,1.311,0.443
							c0.932,0.27,2.49,0.207,3.299-0.133c3.873-1.629,7.578-3.602,11.275-5.584c0.029-0.016,0.012-0.117,0.029-0.35
							c-1.424,0.191-2.781-0.379-4.236-0.061c-2.605,0.57-4.898,1.844-7.232,3.029C62.801,14.377,61.186,14.996,59.875,16.259
							 M83.807,11.394c-1.555-1.141-2.229-1.395-3.42-1.123c-1.041,0.236-2.061,0.584-3.076,0.92
							c-1.957,0.646-3.68,1.758-5.477,2.73c-2.299,1.246-4.732,2.242-7.102,3.357c-0.301,0.141-0.885,0.17-0.697,0.654
							c0.176,0.463,0.721,0.871,1.209,0.689c0.938-0.348,1.92-0.506,2.85-0.918c3.498-1.553,7.033-3.025,10.574-4.477
							C80.297,12.562,81.898,11.82,83.807,11.394 M61.719,20.892c-2.328,0.336-4.482-0.344-6.621-0.98
							c-0.781-0.232-1.51-0.729-2.186-1.213c-0.533-0.383-0.846-1.012-0.729-1.693c0.107-0.635-0.189-1.256,0.023-1.885
							c0.123-0.359-0.229-0.359-0.424-0.412c-0.68-0.184-1.361-0.383-2.057-0.496c-1.402-0.227-2.713-0.699-4.044-1.186
							c-3.687-1.346-7.315-2.906-11.279-3.359c-1.088-0.125-2.128-0.621-3.214-0.818c-2.988-0.543-6.033-0.391-9.049-0.637
							c-1.499-0.125-2.964,0.506-4.447,0.773c-3.167,0.572-6.037,1.795-8.618,3.715c-0.156,0.115-0.364,0.262-0.542,0.068
							c-0.202-0.219,0.086-0.355,0.165-0.51c0.206-0.402,0.597-0.617,0.961-0.867c2.807-1.92,6.04-2.645,9.252-3.527
							c2.076-0.572,4.031-0.699,6.125-0.297c1.946,0.373,3.957,0.162,5.938,0.42c1.013,0.131,1.943,0.496,2.934,0.65
							c3.937,0.607,7.762,1.73,11.393,3.285c3.6,1.541,7.512,1.725,11.116,3.113c0.566,0.219,0.809-0.256,1.078-0.539
							c1.23-1.293,2.732-2.191,4.309-2.951c1.564-0.752,3.219-0.977,4.857-0.209c0.363,0.17,0.568,0.016,0.83-0.094
							c1.367-0.568,2.709-1.248,4.199-1.414c1.836-0.205,3.662-0.266,5.48,0.307c0.842,0.266,1.717-0.23,2.496-0.514
							c1.936-0.703,3.475-0.078,4.857,1.176c0.348,0.313,0.74,0.396,1.096,0.611c1.227,0.736,1.545,2.549,0.627,3.732
							c-0.578,0.744-1.285,1.361-2.021,1.963c-2.695,2.205-5.697,3.949-8.568,5.891c-1.123,0.758-2.395,1.229-3.596,1.84
							c-4.535,2.313-9.258,4.166-14.016,5.969c-3.205,1.217-6.568,1.734-9.811,2.746c-0.879,0.273-1.817,0.301-2.637-0.25
							c-1.297-0.873-2.771-1.211-4.271-1.459c-0.941-0.154-1.84-0.445-2.692-0.834c-4.63-2.115-9.519-3.557-14.206-5.516
							c-2.428-1.014-4.904-1.836-7.42-2.586c-1.354-0.406-2.713-0.549-4.086-0.527c-1.729,0.027-3.43-0.131-5.128-0.412
							c-0.428-0.072-0.854-0.166-1.292,0.002c-0.44,0.172-0.77-0.053-0.833-0.467c-0.076-0.488,0.347-0.531,0.686-0.48
							c3.299,0.504,6.666,0.365,9.943,0.896c3.289,0.533,6.352,1.941,9.449,3.176c2.935,1.17,5.921,2.207,8.885,3.299
							c0.158,0.059,0.331,0.084,0.481,0.156c2.951,1.398,6.141,2.131,9.164,3.266c2.385,0.896,4.36,0.674,6.678,0.152
							c5.852-1.318,11.332-3.613,16.799-5.949c3.396-1.453,6.74-3.068,9.785-5.215c0.236-0.166,0.428-0.27,0.354-0.621
							c-0.361-1.711,0.391-2.865,1.803-3.764c1.844-1.172,3.51-2.641,5.641-3.314c0.475-0.15,0.393-0.359,0.119-0.637
							c-0.412-0.416-0.916-0.395-1.42-0.285c-1.152,0.246-2.256,0.654-3.346,1.1c-4.637,1.902-9.254,3.855-13.928,5.67
							c-0.982,0.383-1.768,0.863-2.508,1.58c-1.506,1.457-3.527,1.762-5.455,2.168c-2.094,0.443-4.223,0.727-6.342,1.041
							c-0.838,0.125-1.676-0.078-2.492-0.25c-1.58-0.33-3.142-0.75-4.721-1.086c-1.107-0.234-2.088-0.754-3.072-1.266
							c-0.601-0.313-1.197-0.615-1.867-0.742c-0.344-0.064-0.753-0.139-0.667-0.578c0.104-0.539,0.553-0.352,0.904-0.27
							c0.886,0.209,1.646,0.721,2.479,1.051c4.047,1.602,8.155,2.752,12.569,1.795c1.414-0.307,2.848-0.521,4.27-0.805
							C60.508,21.459,61.172,21.33,61.719,20.892"/>
					</g>
					<g id="Group-6_11_" transform="translate(0.000000, 0.475377)">
						<defs>
							<filter id="Adobe_OpacityMaskFilter_1_" filterUnits="userSpaceOnUse" x="5.224" y="7.159" width="81.115" height="26.388">
								<feColorMatrix  type="matrix" values="1 0 0 0 0  0 1 0 0 0  0 0 1 0 0  0 0 0 1 0"/>
							</filter>
						</defs>
						<mask maskUnits="userSpaceOnUse" x="5.224" y="7.159" width="81.115" height="26.388" id="mask-5_11_">
							<g filter="url(#Adobe_OpacityMaskFilter_1_)">
								<polygon id="path-4_11_" fill="#FFFFFF" points="5.224,7.159 86.34,7.159 86.34,33.547 5.224,33.547 								"/>
							</g>
						</mask>
						<path id="Fill-4_11_" mask="url(#mask-5_11_)" fill="#231F20" d="M26.304,28.745c0.029,0.075,0.059,0.149,0.089,0.225
							c0.228,0.043,0.454,0.105,0.684,0.125c2.749,0.237,4.726-1.248,6.57-2.998c0.198-0.188,0.694-0.422,0.262-0.791
							c-0.354-0.303-0.889-0.614-1.259-0.136c-0.658,0.854-1.633,1.141-2.504,1.61C28.88,27.464,27.585,28.093,26.304,28.745
							 M6.25,27.152c2.472-0.75,4.351-2.287,6.176-3.923c0.434-0.39,0.69-0.809,0.68-1.392c-0.005-0.249,0.259-0.558-0.07-0.727
							c-0.275-0.142-0.516,0.115-0.716,0.264c-1.748,1.308-3.505,2.605-5.206,3.973C6.62,25.744,6.188,26.306,6.25,27.152
							 M31.771,20.898c-0.977-0.168-2.182,0.371-3.441,0.492c-0.432,0.042-0.361,0.34-0.068,0.54
							c0.362,0.246,0.725,0.522,1.129,0.669c2.49,0.907,4.992,1.787,7.494,2.663c0.476,0.167,0.969,0.283,1.458,0.411
							c0.152,0.04,0.313,0.106,0.449-0.077c0.348-0.465,0.004-2.554-0.533-2.826C36.314,21.787,34.318,20.946,31.771,20.898
							 M32.279,24.486c-1.146-0.181-2.033-0.457-2.84-0.949c-0.203-0.125-0.429-0.139-0.66,0.022
							c-1.694,1.181-3.656,1.827-5.508,2.684c-2.435,1.128-4.695,2.568-7.107,3.867c1.45-0.054,2.814,0.535,4.302,0.205
							c2.604-0.577,4.896-1.848,7.231-3.034C29.214,26.511,30.832,25.895,32.279,24.486 M8.212,29.487
							c1.48,1.157,2.24,1.429,3.476,1.13c1.039-0.251,2.052-0.613,3.071-0.942c1.964-0.633,3.644-1.844,5.477-2.726
							c2.357-1.133,4.674-2.367,7.1-3.362c0.295-0.121,0.788-0.202,0.641-0.602c-0.178-0.482-0.741-0.892-1.197-0.715
							c-0.904,0.35-1.861,0.467-2.76,0.865c-3.53,1.565-7.091,3.06-10.666,4.521C11.721,28.322,10.122,29.089,8.212,29.487
							 M30.276,19.979c2.26-0.302,4.38,0.33,6.478,0.972c0.844,0.258,1.629,0.777,2.37,1.283c0.476,0.324,0.714,0.891,0.71,1.507
							c-0.004,0.662,0.039,1.331-0.047,1.983c-0.051,0.39,0.186,0.394,0.38,0.448c0.712,0.2,1.41,0.437,2.153,0.529
							c1.17,0.144,2.297,0.47,3.4,0.898c3.852,1.496,7.672,3.087,11.825,3.62c1.088,0.139,2.129,0.623,3.215,0.82
							c3.021,0.547,6.102,0.4,9.15,0.649c1.434,0.117,2.832-0.477,4.25-0.736c3.227-0.593,6.178-1.805,8.807-3.783
							c0.133-0.1,0.289-0.179,0.545-0.033c-0.117,0.651-0.613,0.992-1.127,1.342c-2.836,1.933-6.086,2.706-9.346,3.552
							c-2.068,0.537-4.023,0.684-6.123,0.3c-2.01-0.367-4.092-0.193-6.135-0.427c-0.982-0.113-1.896-0.439-2.826-0.69
							c-1.08-0.291-2.174-0.44-3.258-0.668c-3.301-0.693-6.408-1.961-9.507-3.256c-0.964-0.403-1.983-0.599-3.024-0.729
							c-2.075-0.26-4.031-1.026-6.043-1.553c-0.73-0.191-1.189-0.13-1.666,0.409c-1.141,1.286-2.617,2.114-4.119,2.867
							c-1.62,0.811-3.329,1.068-5.037,0.254c-0.416-0.198-0.653,0.056-0.926,0.173c-1.676,0.716-3.359,1.583-5.2,1.475
							c-1.453-0.086-2.944,0.234-4.398-0.426c-0.726-0.33-1.637,0.228-2.39,0.502c-1.874,0.684-3.403,0.153-4.803-1.049
							c-0.36-0.311-0.745-0.495-1.155-0.705c-1.295-0.667-1.603-2.564-0.646-3.786c0.583-0.745,1.292-1.355,2.03-1.957
							c2.695-2.204,5.702-3.939,8.568-5.887c1.15-0.781,2.458-1.258,3.688-1.884c4.477-2.278,9.14-4.103,13.833-5.889
							c3.202-1.218,6.565-1.739,9.809-2.747c0.915-0.284,1.88-0.316,2.733,0.26c1.266,0.856,2.713,1.169,4.174,1.432
							c1.307,0.234,2.539,0.666,3.699,1.299c1.852,1.007,3.926,1.41,5.854,2.212c3.572,1.489,7.209,2.818,10.826,4.189
							c2.779,1.053,5.652,2.009,8.734,1.776c1.385-0.104,2.754,0.151,4.123,0.34c0.561,0.078,1.107,0.258,1.689,0.051
							c0.439-0.157,0.768,0.103,0.795,0.52c0.029,0.479-0.402,0.476-0.736,0.44c-1.139-0.121-2.277-0.249-3.412-0.405
							c-1.906-0.261-3.855-0.02-5.736-0.343c-2.381-0.409-4.725-1.061-6.951-2.046c-2.65-1.172-5.428-2.007-8.105-3.1
							c-2.957-1.207-6.047-2.074-8.914-3.522c-1.48-0.749-3.32-0.424-4.73-1.271c-2.269-1.363-4.388-0.794-6.75-0.252
							c-5.813,1.333-11.27,3.595-16.701,5.924c-3.393,1.455-6.751,3.044-9.787,5.211c-0.266,0.19-0.478,0.286-0.396,0.688
							c0.327,1.613-0.339,2.763-1.683,3.63c-1.89,1.221-3.61,2.729-5.812,3.418c-0.399,0.125-0.357,0.333-0.116,0.583
							c0.499,0.517,1.095,0.428,1.697,0.262c2.695-0.741,5.231-1.902,7.802-2.974c3.171-1.322,6.333-2.67,9.552-3.866
							c0.739-0.275,1.333-0.553,1.854-1.13c1.527-1.691,3.678-2.034,5.735-2.472c2.126-0.453,4.282-0.803,6.442-1.042
							c1.764-0.194,3.416,0.654,5.143,0.857c2.602,0.308,4.766,1.798,7.208,2.521c0.275,0.082,0.523,0.247,0.428,0.578
							c-0.09,0.312-0.359,0.322-0.658,0.297c-0.764-0.064-1.41-0.457-2.027-0.814c-1.91-1.107-4.068-1.358-6.125-1.972
							c-2.904-0.867-5.738-0.419-8.582,0.118C33.394,19.05,31.773,19.22,30.276,19.979"/>
					</g>
				</g>
			</g>
		</g>
	</g>
</g>
</svg>
