<?xml version="1.0" encoding="UTF-8"?>
<svg width="23px" height="23px" viewBox="0 0 23 23" version="1.1" xmlns="http://www.w3.org/2000/svg" xmlns:xlink="http://www.w3.org/1999/xlink">
    <!-- Generator: Sketch 49.3 (51167) - http://www.bohemiancoding.com/sketch -->
    <title>instagram</title>
    <desc>Created with Sketch.</desc>
    <defs></defs>
    <g id="Symbols" stroke="none" stroke-width="1" fill="none" fill-rule="evenodd">
        <g id="Footer-Copy" transform="translate(-1390.000000, -22.000000)" fill="#000000">
            <g id="Group-4" transform="translate(193.000000, 15.000000)">
                <g id="Group-3" transform="translate(1135.000000, 5.000000)">
                    <g id="instagram-copy" transform="translate(62.000000, 2.000000)">
                        <g id="instagram">
                            <path d="M11.39075,2.07191667 C14.4305833,2.07191667 14.79475,2.08341667 15.9965,2.14091667 C19.0804167,2.28083333 20.52175,3.7605 20.6655,6.854 C20.7210833,8.06533333 20.7306667,8.43141667 20.7306667,11.5 C20.7306667,14.5743333 20.7191667,14.9365833 20.6635833,16.1479167 C20.52175,19.2375833 19.08425,20.7210833 15.9945833,20.8629167 C14.7928333,20.9185 14.4344167,20.9280833 11.3888333,20.9280833 C8.349,20.9280833 7.98675,20.9185 6.78691667,20.861 C3.6915,20.7210833 2.25783333,19.23375 2.116,16.146 C2.06425,14.9346667 2.05275,14.5743333 2.05275,11.5 C2.05275,8.4295 2.06425,8.06533333 2.11791667,6.85208333 C2.25975,3.7605 3.69916667,2.28083333 6.78883333,2.139 C7.99058333,2.08341667 8.35091667,2.07191667 11.39075,2.07191667 Z M11.39075,0 C8.29725,0 7.91008333,0.0134166667 6.69491667,0.069 C2.55875,0.260666667 0.25875,2.57791667 0.069,6.75816667 C0.0115,7.98483333 0,8.37775 0,11.5 C0,14.6241667 0.0134166667,15.0151667 0.069,16.24375 C0.25875,20.41825 2.553,22.74125 6.69491667,22.931 C7.91008333,22.9865833 8.29725,23 11.39075,23 C14.4880833,23 14.8733333,22.9865833 16.0904167,22.931 C20.22275,22.7393333 22.5246667,20.4220833 22.7163333,16.24375 C22.7680833,15.0151667 22.7834167,14.62225 22.7834167,11.5 C22.7834167,8.37583333 22.7680833,7.98675 22.7163333,6.75816667 C22.5285,2.5875 20.2304167,0.260666667 16.0904167,0.069 C14.8733333,0.0153333333 14.4880833,0 11.39075,0 Z M11.39075,5.59475 C8.16308333,5.59475 5.54108333,8.23975 5.54108333,11.5 C5.54108333,14.7621667 8.16116667,17.4071667 11.39075,17.4071667 C14.62225,17.4071667 17.2385,14.7621667 17.2385,11.5 C17.2385,8.23783333 14.62225,5.59475 11.39075,5.59475 Z M11.39075,15.3333333 C9.28433333,15.3218333 7.58616667,13.6083333 7.59575,11.5 C7.59575,9.384 9.29391667,7.66666667 11.39075,7.66666667 C13.49525,7.67433333 15.1991667,9.38975 15.1915,11.4961667 C15.1915,11.4961667 15.1915,11.4980833 15.1915,11.5 C15.1915,13.6179167 13.4875833,15.3333333 11.39075,15.3333333 Z M17.4704167,3.98283333 C16.71525,3.98666667 16.1,4.60383333 16.1038333,5.36283333 C16.1038333,6.12375 16.7171667,6.74283333 17.4704167,6.74283333 C18.2313333,6.74091667 18.8408333,6.12183333 18.837,5.36475 C18.837,5.36475 18.837,5.36475 18.837,5.36283333 C18.8446667,4.60383333 18.2313333,3.98666667 17.47425,3.98283333 L17.4704167,3.98283333 Z" id="Shape" fill-rule="nonzero"></path>
                        </g>
                    </g>
                </g>
            </g>
        </g>
    </g>
</svg>