<?xml version="1.0" encoding="utf-8"?>
<!-- Generator: Adobe Illustrator 16.0.0, SVG Export Plug-In . SVG Version: 6.00 Build 0)  -->
<!DOCTYPE svg PUBLIC "-//W3C//DTD SVG 1.1//EN" "http://www.w3.org/Graphics/SVG/1.1/DTD/svg11.dtd">
<svg version="1.1" id="Layer_1" xmlns="http://www.w3.org/2000/svg" xmlns:xlink="http://www.w3.org/1999/xlink" x="0px" y="0px"
	 width="100px" height="78px" viewBox="0 0 100 78" enable-background="new 0 0 100 78" xml:space="preserve">
<g id="Page-1_1_">
	<g id="Nairobi-Stay" transform="translate(-200.000000, -858.000000)">
		<g id="filters" transform="translate(168.000000, 785.000000)">
			<g id="read_11_" transform="translate(36.000000, 75.000000)">
				<g id="Page-1_12_">
					<path id="Fill-1_11_" fill="#231F20" d="M6.154,25.893c0.62-0.275,1.178,0.419,1.563-0.274c0.1-0.18,0.129-0.596-0.094-0.584
						C7.119,25.061,6.561,25.131,6.154,25.893 M15.37,31.38c-0.009,0.107-0.019,0.214-0.029,0.322
						c1.004,0.141,1.996,0.445,3.05-0.044C17.384,31.566,16.377,31.472,15.37,31.38 M5.719,30.552
						c-0.603-0.116-1.008-0.204-1.417-0.272c-0.478-0.081-0.448,0.269-0.459,0.574c-0.008,0.214-0.399,0.484,0.081,0.631
						c0.248,0.076,0.487,0.194,0.64-0.191C4.729,30.874,5.184,30.796,5.719,30.552 M54.235,48.261
						c-0.715,0.064-1.338,0.104-1.952,0.183c-0.271,0.034-0.589,0.174-0.286,0.51C52.364,49.358,53.838,48.972,54.235,48.261
						 M30.803,47.56c1.171,0.455,2.284-0.129,3.435-0.262C33.09,47.237,31.937,47.021,30.803,47.56 M48.867,50.593
						c-2.06-0.303-4.056-0.178-6.009,0.494C44.86,50.921,46.864,50.757,48.867,50.593 M8.8,33.066
						c-4.391-0.373-5.349-0.241-5.564,0.702C4.959,33.235,6.771,33.444,8.8,33.066 M33.371,52.526
						c1.642,0.287,4.853-0.439,5.92-1.324C37.17,51.454,35.424,52.675,33.371,52.526 M19.565,50.698
						c1.612,0.41,2.984,0.332,4.356,0.074C22.546,50.229,21.174,50.323,19.565,50.698 M40.078,35.534
						c2.79,0.322,5.556,0.865,8.358,0.517C45.66,35.629,42.878,35.285,40.078,35.534 M15.121,50.407
						c0.563,0.088,1.121,0.074,1.398-0.48c0.111-0.223,0.066-0.604-0.169-0.848c-0.775-0.801-2.76-0.996-3.704-0.404
						c-0.339,0.213-0.438,0.527-0.468,0.861c-0.041,0.457,0.346,0.389,0.63,0.447C13.58,50.144,14.322,50.47,15.121,50.407
						 M69.229,41.806c-3.934,1.475-8.021,2.543-11.821,4.385C61.592,45.397,65.565,44.032,69.229,41.806 M28.086,51.126
						c1.108,0.01,2.115-0.115,3.041-0.627c0.583-0.322,0.597-0.875,0.47-1.398c-0.132-0.536-0.521-0.397-0.898-0.215
						c-0.106,0.051-0.309-0.01-0.426-0.084c-1.367-0.869-2.808-0.219-4.211-0.192c-0.328,0.006-0.75,0.077-0.84,0.596
						c-0.253,1.481-0.246,1.5,1.25,1.754C27.03,51.054,27.586,51.19,28.086,51.126 M76.408,20.923
						c-3.308,0.497-6.533,1.328-9.714,2.285c-3.551,1.069-7.293,1.474-10.682,3.092c-0.254,0.121-0.738-0.234-0.748,0.405
						c-0.007,0.484,0.059,0.942,0.412,1.263c0.391,0.352,0.576-0.17,0.85-0.299c0.377-0.178,0.715-0.447,1.1-0.597
						c3.783-1.481,7.689-2.581,11.57-3.766C71.619,22.566,74.088,21.963,76.408,20.923 M80.418,19.04
						c-1.685,0.348-3.412,0.136-5.078,0.531c-3.681,0.874-7.364,1.737-11.048,2.601c-2.73,0.64-5.486,1.168-8.148,2.085
						c-0.771,0.266-1.176,0.666-0.968,1.305C63.526,23.097,71.979,21.104,80.418,19.04 M60.604,26.755
						c0.012,0.071,0.021,0.143,0.033,0.213c1.155-0.154,2.327-0.237,3.467-0.475c5.668-1.182,11.24-2.709,16.668-4.753
						c0.598-0.225,1.237-0.335,1.834-0.565c0.387-0.149,0.717-0.359,0.496-0.947c-0.205-0.548-0.461-0.589-0.931-0.393
						c-0.346,0.145-0.726,0.211-1.08,0.333c-3.429,1.185-6.856,2.365-10.336,3.4C67.356,24.579,63.985,25.688,60.604,26.755
						 M81.248,18.927c1.726-0.211,1.999-0.39,1.672-1.642c-0.259-0.991-1.183-0.486-1.854-0.394
						c-4.394,0.6-8.715,1.587-13.068,2.407c-3.639,0.684-7.326,1.129-10.838,2.418c-0.924,0.338-1.389,0.893-1.676,2.009
						c3.338-1.212,6.664-1.737,9.916-2.559c5.064-1.28,10.139-2.513,15.309-3.283c0.404-0.06,0.979-0.382,1.234,0.173
						C82.158,18.526,81.563,18.606,81.248,18.927 M81.297,24.692c-0.354-0.196-0.567-0.068-0.787-0.052
						c-2.016,0.146-3.948,0.685-5.879,1.234c-5.333,1.519-10.854,2.381-15.963,4.703c-0.769,0.348-0.938,0.909-1.205,1.503
						c-0.133,0.297-0.049,0.626,0.287,0.774c0.341,0.15,0.707,0.149,0.854-0.264c0.127-0.363,0.321-0.634,0.692-0.668
						c2.86-0.267,5.489-1.444,8.248-2.096c2.507-0.593,4.954-1.386,7.438-2.049c3.106-0.829,6.069-2.141,9.227-2.814
						c0.326-0.07,0.714-0.09,0.807-0.503c0.073-0.322-0.113-0.615-0.317-0.827c-0.341-0.354-0.688-0.082-1.035,0.071
						C82.853,24.061,82.11,24.625,81.297,24.692 M82.978,15.075c-1.078-0.349-2.069-0.75-3.146-0.964
						c-2.445-0.483-4.922-0.777-7.365-1.282c-2.049-0.422-3.945-1.348-5.994-1.694c-3.964-0.67-7.992-0.689-11.982-1.087
						c-3.738-0.374-7.482-0.017-11.225-0.016c-0.563,0-1.52-0.35-1.158,0.923c0.031,0.107-0.198,0.419-0.303,0.416
						c-0.787-0.021-1.141,0.701-1.74,0.99c-0.381,0.184-0.774,0.511-1.149,0.21c-0.492-0.396-0.769-0.07-1.069,0.19
						c-0.834,0.723-1.633,1.485-2.478,2.195c-0.363,0.305-1.035,0.847-1.257,0.468c-0.764-1.305-0.957-0.028-1.366,0.208
						c-0.384,0.221-0.687,0.691-1.188,0.555c-0.541-0.145,0.041-0.702-0.277-0.986c-0.512,0.032-0.91,0.34-1.32,0.591
						c-0.936,0.574-1.842,1.193-2.785,1.751c-0.25,0.148-0.623,0.192-0.786-0.183c-0.165-0.381,0.118-0.573,0.411-0.678
						c1.551-0.556,2.836-1.618,4.334-2.273c0.271-0.12,0.607-0.436,0.829-0.194c0.728,0.793,1.004,0.017,1.429-0.333
						c0.336-0.276,0.535-0.804,1.082-0.717c0.605,0.097,0.189,0.802,0.555,1.149c0.388-0.287,0.804-0.471,1.035-0.791
						c0.64-0.883,1.728-1.241,2.352-2.128c0.171-0.244,0.523-0.391,0.691-0.19c0.982,1.174,1.349-0.111,1.838-0.502
						c0.471-0.376,0.379-0.828-0.35-0.848c-1.184-0.033-2.348-0.231-3.473-0.566c-1.662-0.497-3.24-0.244-4.883,0.157
						c-3.867,0.944-7.588,2.349-11.394,3.487c-3.118,0.933-6.222,1.906-9.22,3.188c-0.342,0.146-0.729,0.206-0.714,0.797
						c2.003,0.192,4.001,0.355,5.993,0.579c3.917,0.438,7.805,1.149,11.747,1.359c2.99,0.16,5.994-0.024,8.982,0.248
						c5.646,0.516,11.221,1.623,16.876,2.072c0.681,0.054,1.349,0.046,2.009-0.168c0.902-0.293,1.797-0.645,2.721-0.825
						c6.886-1.335,13.777-2.624,20.66-3.957C80.938,16.029,82.103,16.088,82.978,15.075 M56.789,39.048
						c7.228-2.393,14.125-5.246,21.131-7.805c0.677-0.247,1.381-0.411,2.062-0.645c0.408-0.139,0.748-0.14,0.996,0.258
						c0.319,0.514-0.265,0.575-0.451,0.74c-0.406,0.361-0.832,0.617-1.519,0.37c-0.765-0.276-1.551,0.222-2.28,0.5
						c-4.816,1.839-9.627,3.701-14.429,5.583c-1.114,0.438-2.347,0.561-3.323,1.397c2.049-0.627,4.118-1.19,6.142-1.894
						c4.653-1.615,9.237-3.453,14.038-4.605c0.982-0.236,1.683-1.018,2.684-1.165c0.418-0.062,0.912-0.294,1.038,0.275
						c0.101,0.457-0.424,0.542-0.765,0.676c-3.276,1.292-6.738,1.984-10.053,3.182c-4.555,1.646-9.172,3.115-13.771,4.642
						c-1.037,0.344-1.831,1.229-2.982,1.309c-0.222,0.016-0.315,0.289-0.236,0.438c0.185,0.34,0.488,0.092,0.701,0.023
						c2.201-0.719,4.41-1.418,6.586-2.207c4.521-1.637,9.021-3.333,13.535-4.992c1.844-0.678,3.84-0.873,5.631-1.736
						c0.371-0.179,0.695-0.043,0.896,0.266c0.266,0.403-0.016,0.741-0.281,0.998c-0.201,0.192-0.441,0.632-0.791,0.083
						c-0.242-0.38-0.604-0.144-0.926-0.068c-5.59,1.323-10.816,3.699-16.205,5.606c-2.75,0.973-5.527,1.866-8.293,2.799
						c-1.297,0.437-1.441,0.853-0.811,2.084c0.275,0.535,0.58,0.688,1.178,0.463c6.029-2.28,12.064-4.549,18.109-6.792
						c1.813-0.673,3.637-1.302,5.291-2.329c0.174-0.107,0.373-0.181,0.533-0.061c0.975,0.734,1.771,0.081,2.604-0.313
						c0.134-0.063,0.261-0.15,0.399-0.198c0.43-0.15,0.922-0.176,1.045,0.325c0.113,0.453-0.35,0.809-0.729,0.834
						c-1.793,0.117-3.395,0.866-4.911,1.671c-2.665,1.414-5.61,2.142-8.266,3.504c-2.538,1.304-5.099,2.519-7.78,3.457
						c-2.283,0.799-4.586,1.586-7.045,1.691c-0.25,0.012-0.652-0.152-0.627,0.385c0.023,0.506,0.404,0.355,0.67,0.377
						c1.049,0.088,2.018-0.274,2.992-0.582c5.428-1.701,10.838-3.457,16.285-5.09c1.957-0.586,3.951-1.063,5.897-1.691
						c0.685-0.219,1.366-0.452,1.896-1c0.223-0.229,0.549-0.28,0.84-0.081c0.232,0.157,0.398,0.403,0.302,0.682
						c-0.082,0.231-0.174,0.506-0.505,0.56c-2.361,0.377-4.531,1.461-6.876,1.895c-4.535,0.838-8.687,2.945-13.155,4
						c-2.658,0.627-5.137,1.869-7.848,2.313c-0.168,0.029-0.503,0.006-0.439,0.23c0.205,0.723-0.293,0.801-0.752,0.998
						c-0.498,0.215-0.924,0.762-0.574,1.15c0.408,0.453,0.526,1.514,1.572,1.135c7.563-2.732,15.461-4.4,22.945-7.383
						c1.617-0.646,3.295-1.139,4.878-1.883c0.302-0.144,0.706-0.336,0.903,0.071c0.219,0.445-0.295,0.566-0.533,0.728
						c-0.999,0.668-2.209,0.772-3.322,1.139c-4.898,1.604-9.674,3.58-14.67,4.893c-2.455,0.644-4.916,1.273-7.291,2.187
						c-0.563,0.215-1.164,0.403-1.643,0.754c-1.066,0.78-2.111,0.721-3.158,0.067c-0.68-0.422-1.391-0.662-2.162-0.524
						c-5.818,1.019-11.691,0.772-17.557,0.908c-5.199,0.12-10.334-0.425-15.491-0.873c-2.712-0.236-5.443-0.509-8.181-0.343
						c-1.19,0.072-2.325-0.131-3.444-0.588c-1.959-0.799-4.048-0.428-6.079-0.504c-1.418-0.051-1.51-0.049-1.225-1.461
						c0.183-0.906,0.132-1.824,0.063-2.738c-0.066-0.879,0.164-1.461,1.177-1.586c1.823-0.225,3.545-0.725,4.977-1.996
						c0.561-0.495,0.986-0.95,1.065-1.771c0.21-2.147,0.528-4.284,0.809-6.473c-1.388-0.357-2.833-0.368-4.267-0.315
						c-0.809,0.03-1.032-0.213-0.829-0.977c0.322-1.215-0.093-2.656,1.112-3.595c-0.573-0.74,0.074-1.479,0.003-2.227
						c-0.114-1.182,0.067-2.231,1.394-2.72c0.563-0.208,1.032-0.704,1.6-0.855c1.35-0.358,1.646-1.22,1.66-2.514
						c0.016-1.556,0.326-3.107,0.452-4.665c0.049-0.609,0.282-0.895,0.849-1.158c5.874-2.732,12.171-4.203,18.271-6.261
						c2.547-0.86,5.181-1.462,7.773-2.182c0.334-0.093,0.645-0.131,0.984,0.05c2.256,1.206,4.76,1.37,7.195,1.279
						c5.896-0.22,11.77,0.046,17.644,0.439c3.249,0.218,6.442,0.703,9.569,1.767c3.556,1.21,7.342,1.417,11.024,2.07
						c0.972,0.172,1.462,0.479,1.857,1.667c0.334,1.002,0.207,1.812,0.211,2.709c0.003,0.342,0.106,0.417,0.424,0.507
						c0.835,0.237,0.74,0.691,0.095,1.046c-0.544,0.299-0.457,0.563-0.171,0.986c0.461,0.678,0.229,1.113-0.53,1.368
						c-6.041,2.01-12.093,4.044-18.334,5.253c-3.188,0.618-6.328,1.5-9.558,1.94c-0.772,0.105-0.84-0.217-0.961-0.668
						c-0.453-1.677-0.601-3.383-0.179-5.083c0.174-0.696,0.048-0.851-0.684-1c-3.27-0.67-6.633-0.684-9.885-1.383
						c-6.066-1.305-12.25-0.8-18.357-1.381c-3.958-0.376-7.897-0.961-11.849-1.431c-1.277-0.151-2.582-0.003-3.843-0.346
						c-0.462-0.125-0.624,0.015-0.719,0.536c-0.385,2.15-0.536,4.31-0.544,6.487c-0.003,0.685,0.209,0.929,0.968,1.019
						c3.463,0.412,6.904,1.011,10.369,1.398c3.053,0.341,6.145,0.151,9.202,0.581c2.516,0.354,5.076,0.435,7.547,1.031
						c2.164,0.522,4.328,0.376,6.44,0.091c2.615-0.354,5.224-0.367,7.841-0.455c0.754-0.025,1.53,0.046,2.239-0.281
						c0.388-0.18,0.666-0.014,0.938,0.186c0.17,0.125,0.188,0.351,0.027,0.501c-0.242,0.227-0.474,0.529-0.852,0.492
						c-4.299-0.417-8.539,0.222-12.787,0.702c-2.041,0.23-3.982-0.385-5.955-0.72c-4.721-0.803-9.48-1.119-14.259-1.326
						c-2.303-0.1-4.593-0.503-6.887-0.791c-1.201-0.15-2.43-0.156-3.59-0.552c-0.845-0.29-1.899,0.005-2.342,0.306
						c-0.877,0.596-0.076,1.955-0.499,2.957c-0.148,0.353,0.437,0.444,0.758,0.459c0.906,0.045,1.806,0.21,2.721,0.069
						c0.599-0.092,1.211-0.15,1.816-0.143c0.722,0.009,0.971-0.273,0.76-0.975c-0.284-0.1-0.479,0.152-0.727,0.187
						c-0.308,0.044-0.716,0.317-0.85-0.196c-0.108-0.417,0.135-0.787,0.524-0.906c0.567-0.175,1.165-0.26,1.755-0.352
						c0.126-0.019,0.37,0.066,0.396,0.154c0.365,1.223,1.5,0.684,2.232,0.865c0.563,0.139,1.328,0.066,1.994-0.055
						c0.231-0.042,0.552-0.253,0.625,0.186c0.052,0.313-0.161,0.525-0.434,0.587c-1.019,0.234-2.075,0.305-3.092,0.183
						c-0.532-0.064-0.935-0.016-1.567,0.22c1.156,0.427,2.183,0.486,3.208,0.627c3.786,0.52,7.625,0.476,11.397,1.056
						c2.369,0.365,4.756,0.249,7.113,0.541c2.453,0.306,4.92,0.185,7.381,0.372c1.825,0.139,3.685-0.176,5.53-0.241
						c2.257-0.08,4.517-0.181,6.771-0.125c0.891,0.021,1.285-0.409,1.505-1.052c0.354-1.042,0.922-1.477,2.056-1.841
						c6.027-1.938,12.186-3.377,18.286-5.022c2.476-0.667,5.054-0.932,7.448-1.929c0.16-0.067,0.424-0.113,0.535-0.029
						c0.816,0.615,0.611,1.63,0.875,2.46c0.197,0.627-0.518,0.625-0.817,0.69c-2.517,0.553-4.974,1.299-7.421,2.094
						c-5.79,1.88-11.666,3.466-17.538,5.067c-0.854,0.233-1.67,0.726-2.414,1.232c-0.942,0.642-0.965,1.711-0.217,2.651
						c0.17,0.213,0.272,0.164,0.454,0.084c4.906-2.144,10.162-3.324,15.05-5.508c3.303-1.475,6.746-2.469,10.25-3.283
						c0.535-0.125,0.958-0.454,1.46-0.616c0.42-0.136,0.799-0.001,0.943,0.396c0.199,0.553-0.289,0.445-0.594,0.533
						c-2.506,0.718-4.994,1.51-7.518,2.16c-1.928,0.496-3.654,1.473-5.514,2.119c-3.219,1.118-6.439,2.222-9.633,3.407
						c-1.556,0.577-3.17,1.026-4.621,1.869c-0.095,0.055-0.256,0.143-0.301,0.106c-1.307-1.047-2.839-0.222-4.261-0.478
						c-1.489-0.269-3.065-0.413-4.633-0.349c-1.585,0.064-3.181-0.066-4.769-0.158c-1.553-0.09-3.101-0.257-4.652-0.354
						c-1.549-0.098-3.102-0.131-4.65-0.227c-2.835-0.178-5.667-0.451-8.504-0.554c-2.398-0.087-4.806-0.045-7.207,0.041
						c-3.342,0.119-6.656-0.312-9.983-0.449c-0.77-0.032-0.978,0.166-1.058,0.837c-0.186,1.552-0.405,3.101-0.611,4.649
						c-0.005,0.037-0.016,0.074-0.029,0.111c-0.252,0.701,0.982,0.641,0.69,1.377c-0.202,0.508-0.928,0.613-0.855,1.381
						c0.079,0.84,0.254,1.416,1.155,1.707c2.504,0.811,5.127,0.469,7.662,0.887c3.211,0.527,6.359-0.482,9.53-0.291
						c5.718,0.346,11.456,0.104,17.164,0.693c1.296,0.135,2.63,0.412,3.916-0.166c0.252-0.113,0.583-0.063,0.746,0.147
						c0.815,1.05,1.963,0.943,3.071,0.91c1.14-0.033,2.275-0.162,3.414-0.19c0.808-0.021,1.05-0.49,0.793-1.107
						c-0.36-0.873-0.342-1.922-1.118-2.613c-0.181-0.158-0.16-0.355-0.044-0.508c1.125-1.457,1.416-3.346,2.478-4.836
						c0.234-0.33,0.431-0.82,0.966-0.505C57.493,38.212,56.933,38.563,56.789,39.048"/>
					<g id="Group-5_11_" transform="translate(0.000000, 34.081866)">
						<defs>
							<filter id="Adobe_OpacityMaskFilter" filterUnits="userSpaceOnUse" x="-2.91" y="7.781" width="98.91" height="24.325">
								<feColorMatrix  type="matrix" values="1 0 0 0 0  0 1 0 0 0  0 0 1 0 0  0 0 0 1 0"/>
							</filter>
						</defs>
						<mask maskUnits="userSpaceOnUse" x="-2.91" y="7.781" width="98.91" height="24.325" id="mask-3_1_">
							<g filter="url(#Adobe_OpacityMaskFilter)">
								<polygon id="path-2_1_" fill="#FFFFFF" points="-2.908,7.78 96,7.78 96,32.107 -2.908,32.107 								"/>
							</g>
						</mask>
						<path id="Fill-3_11_" mask="url(#mask-3_1_)" fill="#231F20" d="M22.185,27.261c1.045,0.197,1.567-0.215,2.098-1.004
							C23.467,26.472,22.836,26.648,22.185,27.261 M54.631,29.318c0.16-0.479,0.287-0.855,0.445-1.324
							c-0.657,0.102-1.244,0.195-2.001,0.313C53.672,28.694,54.099,28.972,54.631,29.318 M31.658,23.361
							c-0.509,0.074-1.166-0.064-1.382,0.475c-0.098,0.244,0.336,0.85,0.768,0.764c0.557-0.108,1.26-0.322,1.416-0.92
							C32.556,23.314,31.953,23.427,31.658,23.361 M29.214,23.634c-1.021,0-2.046,0.021-3.068-0.008
							c-0.604-0.018-0.205,0.35-0.266,0.555c-0.132,0.447,0.105,0.486,0.38,0.34C27.175,24.034,28.237,24.206,29.214,23.634
							 M30.272,26.175c0.824-0.027,1.707,0.613,2.332-0.225c0.172-0.227,0.597-0.502,0.299-0.844c-0.188-0.217-0.564-0.166-0.848,0
							C31.461,25.458,30.867,25.819,30.272,26.175 M41.076,22.068h8.233C46.551,21.337,43.797,21.736,41.076,22.068 M83.479,14.454
							c0.174,0,0.356,0.035,0.521-0.008c2.774-0.713,5.261-2.264,8.09-2.844c0.481-0.101,0.589-0.933,0.218-1.193
							c-0.252-0.18-2.688,0.449-2.646,0.703c0.212,1.244-0.826,1.135-1.422,1.26C86.508,12.732,85.082,13.759,83.479,14.454
							 M19.7,29.044c1.154,0.166,2.307,0.41,3.478,0.246c5.716-0.811,11.462-1.051,17.226-0.996
							c1.742,0.016,3.482,0.002,5.225,0.002c-0.002-0.098-0.004-0.195-0.006-0.293C36.949,27.402,28.33,28.318,19.7,29.044
							 M10.317,21.718c1.286,0.338,2.382,0.758,3.63,0.627c2.899-0.307,5.811-0.322,8.728-0.293
							c2.352,0.025,4.721,0.185,7.055-0.334c-1.16-0.072-2.31,0.146-3.483-0.082c-2.529-0.492-5.069-0.717-7.66-0.311
							c-2.161,0.342-4.343,0.631-6.552,0.4C11.524,21.673,11.004,21.456,10.317,21.718 M56.772,21.3
							c1.03,0.391,1.947,0.184,2.873-0.188c2.815-1.127,5.676-2.111,8.654-2.729c1.555-0.32,3.168-0.597,4.588-1.253
							c1.705-0.788,3.477-1.299,5.236-1.879c1.549-0.51,3.154-0.848,4.625-1.586C73.842,15.368,65.379,18.583,56.772,21.3
							 M62.649,24.069c4.351-0.494,8.168-1.85,12.023-3.061c5.889-1.853,11.785-3.673,17.678-5.511
							c0.76-0.235,1.512-0.494,2.271-0.735c0.383-0.121,0.604-0.359,0.461-0.767c-0.158-0.438-0.521-0.213-0.774-0.144
							c-1.386,0.386-2.746,0.865-4.144,1.193c-5.13,1.209-10.104,2.941-15.132,4.494C70.909,20.816,66.834,22.23,62.649,24.069
							 M5.502,25.989c-0.214,0.75,0.013,0.998,0.706,1.188c4.343,1.191,8.76,1.217,13.2,0.955c0.28-0.016,0.569,0.061,0.619-0.438
							c0.118-1.172,0.389-2.326,0.495-3.498c0.071-0.785,0.468-1.076,1.121-1.109c-1.015-0.221-2.08-0.117-3.14-0.133
							c-1.097-0.014-2.187,0.059-3.282,0.184c-1.349,0.154-2.721,0.281-4.062-0.131c-1.28-0.393-2.592-0.508-3.926-0.549
							c-1.646-0.051-1.573-0.082-1.867,1.518c-0.145,0.789,0.39,1.119,0.755,1.472c0.372,0.358,0.905,0.104,1.313-0.267
							c0.292-0.264,0.718-0.754,1.058-0.352c0.555,0.654,0.938,0.174,1.341-0.053c0.742-0.414,1.052-0.188,1.094,0.613
							c0.012,0.213-0.103,0.455,0.189,0.698c0.352-0.211,0.742-0.43,1.115-0.676c0.716-0.474,1.359-0.668,1.884,0.28
							c0.142,0.257,0.72,0.355,0.342,0.769c-0.312,0.343-0.956,0.351-1.12,0.025c-0.494-0.984-0.904-0.4-1.394-0.066
							c-0.466,0.318-0.948,0.759-1.53,0.662c-0.704-0.119-0.194-0.946-0.585-1.336c-0.585,0.248-1.318,1.067-1.658,0.688
							c-0.627-0.701-0.894-0.117-1.235,0.088C6.249,26.939,5.7,27.146,5.502,25.989 M33.133,26.931c2.218,0,4.336,0.066,6.449-0.014
							c4.91-0.186,9.795,0.975,14.721,0.24c0.761-0.113,0.925-0.219,0.787-1c-0.2-1.135-0.729-2.375,0.665-3.447
							c-3.443,0.123-6.648,0.191-9.854,0.244c-2.871,0.049-5.731,0.236-8.566-0.414c-0.689-0.158-1.501-0.58-1.751,0.637
							c-0.038,0.188-0.399,0.43-0.619,0.438c-0.625,0.021-0.762,0.493-0.834,0.903C33.972,25.431,33.58,26.232,33.133,26.931
							 M8.67,21.579c-0.601-0.365-1.014-0.398-1.422-0.469c-0.239-0.043-0.588-0.086-0.498-0.463c0.08-0.332,0.358-0.289,0.648-0.26
							c1.694,0.184,3.389,0.354,5.086,0.498c1.936,0.161,3.868-0.007,5.764-0.359c2.623-0.488,5.212-0.338,7.805,0.139
							c1.315,0.242,2.634,0.031,3.948,0.084c2.794,0.109,5.594,0.381,8.382,0.283c4.502-0.156,9.002-0.33,13.507-0.441
							c0.83-0.021,1.659-0.125,2.487-0.213c0.433-0.047,0.926-0.123,1,0.432c0.09,0.679-0.614,0.707-0.942,0.666
							c-1.068-0.137-2.106,0.084-3.158,0.104c-0.391,0.006-0.849-0.146-1.104,0.222c1.679,0,3.392,0.018,5.103-0.015
							c0.389-0.006,0.521-0.34,0.574-0.729c0.155-1.164,1.133-1.695,2.319-1.328c0.412,0.129,0.817-0.066,1.215-0.188
							c5.839-1.776,11.611-3.771,17.517-5.326c2.42-0.639,4.877-1.146,7.272-1.864c2.164-0.646,4.136-1.82,6.293-2.572
							c-2.5-0.672-4.979-1.174-7.543-1.102c-0.205,0.006-0.354,0.065-0.506,0.198c-0.205,0.181-0.379,0.593-0.728,0.25
							c-0.236-0.229-0.528-0.524-0.432-0.883c0.102-0.367,0.457-0.466,0.825-0.461c2.112,0.018,4.218,0.073,6.302,0.524
							c1.531,0.33,3.031,0.865,4.648,0.752c0.52-0.037,0.896,0.301,0.521,0.904c-0.246,0.398-0.289,0.83-0.078,1.199
							c0.463,0.811,0.074,1.057-0.646,1.242c-5.281,1.355-10.359,3.385-15.639,4.746c-3.889,1.004-7.883,1.561-11.695,2.873
							c-1.607,0.555-3.307,0.854-4.756,1.854c-0.574,0.395-1.354,0.365-2.016,0.555c-1.039,0.297-1.668,1.211-2.744,1.418
							c-0.65,0.125-0.364,0.883-0.242,1.388c0.379,1.561,0.378,1.549,1.758,0.754c4.801-2.771,9.979-4.621,15.218-6.32
							c0.388-0.125,0.837-0.116,1.349-0.705c-1.307,0.351-2.387,0.562-3.412,0.927c-4.217,1.498-8.541,2.678-12.692,4.358
							c-0.351,0.144-0.733,0.188-1.011,0.49c-0.188,0.207-0.43,0.354-0.704,0.207c-0.104-0.056-0.189-0.234-0.199-0.365
							c-0.034-0.396,0.291-0.496,0.574-0.599c2.354-0.84,4.698-1.709,7.067-2.5c5.252-1.752,10.556-3.34,15.955-4.547
							c2.967-0.662,5.937-1.271,8.715-2.549c0.638-0.293,1.115,0.398,1.73,0.125c1.455-0.646,3.07-0.906,4.447-1.725
							c0.803-0.48,1.087-0.354,1.102,0.555c0.002,0.148,0.041,0.305,0.092,0.447c0.476,1.361,0.447,1.256-1.014,1.666
							c-2.77,0.775-5.501,1.686-8.249,2.537c-6.442,1.992-12.854,4.098-19.343,5.924c-2.834,0.797-5.773,1.215-8.473,2.48
							c-0.346,0.162-0.724,0.264-1.039,0.465c-0.607,0.387-1.328,0.717-1.73,1.271c-0.418,0.571,0.568,1.141,0.189,1.844
							c3.6-0.656,6.672-2.295,9.926-3.41c3.154-1.082,6.383-1.938,9.584-2.877c4.615-1.355,9.22-2.744,13.941-3.693
							c0.517-0.105,1.008-0.326,1.52-0.467c0.396-0.109,0.871-0.068,0.951,0.361c0.092,0.494-0.363,0.752-0.803,0.752
							c-2.427-0.002-4.703,0.774-6.996,1.393c-7.976,2.145-15.969,4.236-23.639,7.373c-1.053,0.43-2.107,0.854-3.263,0.959
							c-0.504,0.047-1,0.291-1.302,0.658c-0.625,0.76-1.361,0.943-2.288,0.824c-3.062-0.396-6.144-0.258-9.197-0.088
							c-3.536,0.198-7.053-0.104-10.569-0.037c-5.691,0.104-11.384,0.135-17.073,0.254c-2.046,0.043-4.08,0.379-6.09-0.256
							c-0.309-0.099-0.586,0.043-0.882,0.104c-0.415,0.088-0.755,0.221-1.175-0.349c-0.431-0.582-1.407-0.315-2.16-0.328
							c-2.582-0.043-5.167,0.003-7.729-0.411c-0.075-0.013-0.153-0.022-0.221-0.056c-0.501-0.229-1.463,0.465-1.498-0.645
							c-0.031-0.986-0.126-1.965,1.192-2.5c1.528-0.621,2.982-1.477,4.262-2.588c0.414-0.359,0.863-0.773,1.475-0.813
							c0.269-0.019,0.455-0.113,0.426-0.402c-0.171-1.652,0.827-3.08,0.882-4.686c0.012-0.328,0.125-0.601,0.383-0.796
							c0.108-0.082,0.178-0.274,0.372-0.182c0.224,0.106,0.211,0.289,0.127,0.479c-0.174,0.389-0.213,0.799-0.249,1.221
							c-0.15,1.75-0.162,1.75,1.571,1.801C7.847,21.585,8.148,21.579,8.67,21.579"/>
					</g>
					<path id="Fill-6_11_" fill="#231F20" d="M12.446,40.751c-0.528,0.717-0.937,1.301-1.382,1.857
						c-0.159,0.197-0.417,0.395-0.685,0.313c-0.322-0.1-0.255-0.447-0.248-0.69c0.027-0.916,0.077-1.83,0.148-2.742
						c0.026-0.329,0.21-0.61,0.594-0.524c0.377,0.084,0.263,0.42,0.205,0.658c-0.109,0.444-0.222,0.885-0.109,1.428
						c0.773-0.324,1.04-1.058,1.454-1.644c0.188-0.269,0.24-0.733,0.684-0.631c0.55,0.127,0.263,0.624,0.303,0.965
						c0.05,0.433-0.271,0.89,0.134,1.369c0.504-0.302,0.56-0.867,0.763-1.32c0.112-0.255,0.167-0.536,0.506-0.502
						c0.32,0.033,0.368,0.318,0.456,0.578c0.21,0.615,0.003,1.638,0.707,1.754c0.687,0.113,0.832-0.957,1.322-1.41
						c0.167-0.153,0.294-0.35,0.441-0.522c0.282-0.336,0.466-0.926,1.013-0.746c0.628,0.207,0.037,0.826,0.25,1.213
						c1.175-0.74,1.188-0.734,1.42,0.783c0.603-0.01,0.837-0.578,1.253-0.848c0.438-0.285,0.864-0.937,1.338-0.689
						c0.463,0.24,0.883,0.711,1.295,1.104c0.229,0.219,0.287,0.611,0.447,0.912c0.165,0.309,0.043,0.533-0.213,0.666
						c-0.503,0.26-0.905-0.381-1.574-0.066c-0.732,0.345-0.525-0.662-0.738-1.071c-0.015-0.027-0.052-0.043-0.168-0.134
						c-0.392,0.357-0.791,0.746-1.217,1.103c-0.589,0.492-1.166,0.785-1.448-0.348c-0.446,0.368-0.81,1.11-1.269,0.84
						c-0.574-0.34,0.143-1.117-0.155-1.797c-0.508,0.416-0.837,0.901-1.189,1.379c-0.809,1.101-1.207,1.051-1.801-0.17
						c-0.065-0.136-0.164-0.255-0.245-0.377c-0.087,0.016-0.186,0.002-0.214,0.041c-0.398,0.547-0.707,1.2-1.467,1.319
						C12.856,42.831,12.829,42.714,12.446,40.751"/>
					<path id="Fill-8_11_" fill="#231F20" d="M13.324,23.501c0.417,0,0.833-0.012,1.25,0.003c0.748,0.026,1.025-0.299,1.087-1.076
						c0.147-1.85,0.194-1.844-1.69-2.156c-0.336-0.055-0.675-0.103-1.006-0.182c-1.465-0.353-1.529-0.36-1.605,1.195
						C11.236,23.76,10.653,23.396,13.324,23.501 M10.772,19.898c-0.259-1.08,0.203-1.272,1.027-0.984
						c1.336,0.465,2.706,0.719,4.119,0.782c0.724,0.033,0.979,0.444,0.832,1.166c-0.184,0.892-0.347,1.762-0.013,2.696
						c0.233,0.654-0.32,1.05-0.899,0.882c-1.619-0.468-3.23-0.029-4.836-0.021c-0.88,0.004-0.864-0.25-0.768-0.872
						C10.424,22.304,10.601,21.059,10.772,19.898"/>
					<path id="Fill-10_11_" fill="#231F20" d="M47.833,26.665c2.521,0.21,2.832,0.012,2.966-1.891
						c0.003-0.038-0.003-0.076,0.002-0.114c0.073-0.559-0.118-0.83-0.729-0.845c-1.205-0.028-2.42,0.089-3.609-0.229
						c-0.346-0.092-0.55,0.105-0.66,0.452c-0.512,1.608,0.059,2.488,1.694,2.593C47.606,26.637,47.722,26.651,47.833,26.665
						 M48.835,27.414c-0.305,0.015-0.605,0.039-0.908,0.042c-3.074,0.022-3.695-0.778-2.927-3.768
						c0.185-0.714,0.504-1.121,1.373-0.925c1.33,0.298,2.69,0.392,4.062,0.367c0.873-0.016,1.438,0.273,1.258,1.372
						c-0.096,0.578-0.221,1.215-0.006,1.811c0.336,0.926-0.318,1.043-0.924,1.104c-0.638,0.065-1.285,0.015-1.928,0.015
						C48.835,27.426,48.835,27.42,48.835,27.414"/>
					<path id="Fill-12_11_" fill="#231F20" d="M40.138,42.153c0.969-0.387,1.713-1.02,2.663-1.176
						c0.691-0.115,1.238,0.07,1.136,0.813c-0.095,0.682,0.106,0.715,0.604,0.545c0.345-0.117,0.729-0.152,0.985,0.049
						c0.562,0.439,1.056,0.222,1.574-0.014c0.394-0.182,0.781-0.262,1.205-0.094c0.295,0.117,0.773,0.064,0.602,0.598
						c-0.117,0.361-0.52,0.619-0.803,0.432c-0.576-0.379-1.015-0.026-1.487,0.123c-0.601,0.191-1.146,0.601-1.731-0.112
						c-0.292-0.354-0.708,0.03-1.027,0.182c-0.785,0.367-1.027,0.068-0.996-0.713c0.039-0.979-0.176-1.099-1.092-0.623
						c-0.47,0.244-0.912,0.547-1.387,0.779c-0.644,0.315-1.158,0.202-1.185-0.613c-0.028-0.842-0.39-0.76-0.925-0.448
						c-0.162,0.096-0.342,0.188-0.522,0.215c-0.267,0.037-0.619,0.248-0.715-0.25c-0.081-0.42,0.124-0.713,0.489-0.754
						c0.342-0.037,0.652-0.091,0.979-0.216C40.063,40.272,40.104,40.31,40.138,42.153"/>
					<path id="Fill-14_11_" fill="#231F20" d="M28.776,42.38c-0.012-1.174,1.336-2.918,2.295-2.971
						c0.556-0.031,1.574,1.168,1.578,1.855c0.009,1.209-1.325,2.725-2.375,2.701C29.487,43.946,28.786,43.202,28.776,42.38"/>
					<path id="Fill-16_11_" fill="#231F20" d="M37.731,30.948c1.373-0.518,2.867,0.169,4.232-0.476
						c0.4-0.19,0.744,0.021,0.984,0.356c0.074,0.104,0.127,0.335,0.066,0.409c-0.227,0.279-0.556,0.132-0.848,0.127
						c-0.15-0.003-0.348-0.078-0.448-0.01c-1.239,0.83-2.628,0.09-3.924,0.378c-0.459,0.103-1.271,0.323-1.269-0.446
						C36.528,30.543,37.308,31.024,37.731,30.948"/>
					<path id="Fill-18_11_" fill="#231F20" d="M51.283,17.627c1.526-0.271,2.993-1.069,4.502-1.702
						c0.838-0.352,1.016-1.737,0.329-2.323c-0.76-0.648-0.75,0.566-1.204,0.769c-0.066,0.029-0.114,0.118-0.181,0.133
						c-1.471,0.321-2.59,1.381-3.969,1.899c-0.434,0.163-1.258,0.166-1.17,0.657c0.104,0.58,0.911,0.473,1.456,0.539
						C51.086,17.604,51.123,17.608,51.283,17.627 M54.783,13.182c0.469-0.123,0.758-0.485,1.086-0.796
						c0.358-0.34,0.784-0.304,1.164-0.09c0.432,0.244,0.006,0.519-0.046,0.778c-0.047,0.227-0.057,0.435,0.02,0.668
						c0.497,1.542,0.125,2.612-1.357,3.239c-1.979,0.837-3.987,1.749-6.238,1.046c-0.443-0.139-0.867-0.159-1.338-0.059
						c-0.49,0.104-1.219,0.247-0.732-0.729c0.207-0.417-0.158-0.316-0.324-0.351c-0.632-0.129-1.271-0.214-1.899-0.356
						c-0.986-0.224-1.095-0.607-0.416-1.396c0.963-1.119,2.282-1.656,3.625-2.049c1.418-0.414,2.883-0.699,4.346-0.904
						C53.499,12.068,54.519,11.905,54.783,13.182"/>
					<path id="Fill-20_11_" fill="#231F20" d="M23.718,17.707c-0.486-0.067-0.857,0.078-0.927-0.377
						c-0.051-0.346,0.096-0.577,0.431-0.709c2.918-1.155,5.66-2.671,8.396-4.19c1.832-1.018,3.916-1.433,5.703-2.533
						c0.283-0.174,0.623-0.258,0.803,0.057c0.184,0.319-0.197,0.436-0.391,0.585c-0.516,0.394-1.06,0.738-1.697,0.9
						c-2.191,0.556-4.162,1.6-6.064,2.789c-1.675,1.045-3.588,1.624-5.229,2.741C24.356,17.233,24.117,17.791,23.718,17.707"/>
					<path id="Fill-22_11_" fill="#231F20" d="M64.215,15.393c1.013,1.212,1.873,0.085,2.834-0.466
						c0.279-0.16,0.634-0.153,0.787,0.185c0.179,0.386-0.153,0.575-0.438,0.642c-0.687,0.163-1.185,0.667-1.806,0.939
						c-0.571,0.251-1.112,0.518-1.586-0.199c-0.364-0.551-0.823-0.138-1.221-0.012c-0.604,0.193-1.188,0.455-1.788,0.666
						c-0.176,0.061-0.403,0.041-0.495-0.153c-0.088-0.192,0.008-0.408,0.197-0.472C61.803,16.149,62.789,15.431,64.215,15.393"/>
					<path id="Fill-24_11_" fill="#231F20" d="M51.545,58.603c-0.633,1.248-1.424,1.525-2.294,0.889
						c-0.466-0.344-0.898-0.525-1.468-0.313c-0.603,0.225-1.167,0.444-1.798-0.095c-0.385-0.327-0.868,0.099-1.239,0.313
						c-0.539,0.313-1.524,0.727-1.64,0.561c-0.778-1.129-1.563-0.291-2.35-0.178c-0.262,0.037-0.408-0.168-0.423-0.428
						c-0.015-0.264,0.144-0.521,0.366-0.496c0.966,0.104,1.894-1.238,2.92-0.01c0.302,0.358,0.861-0.105,1.26-0.271
						c0.717-0.295,1.389-0.625,2.152-0.151c0.303,0.186,0.58-0.035,0.863-0.123c0.407-0.127,0.869-0.209,1.215,0.035
						C49.842,58.853,50.578,59.13,51.545,58.603"/>
				</g>
			</g>
		</g>
	</g>
</g>
</svg>
