<?xml version="1.0" encoding="utf-8"?>
<!-- Generator: Adobe Illustrator 16.0.0, SVG Export Plug-In . SVG Version: 6.00 Build 0)  -->
<!DOCTYPE svg PUBLIC "-//W3C//DTD SVG 1.1//EN" "http://www.w3.org/Graphics/SVG/1.1/DTD/svg11.dtd">
<svg version="1.1" id="Layer_1" xmlns="http://www.w3.org/2000/svg" xmlns:xlink="http://www.w3.org/1999/xlink" x="0px" y="0px"
	 width="100px" height="78px" viewBox="0 0 100 78" enable-background="new 0 0 100 78" xml:space="preserve">
<g id="Page-1_1_">
	<g id="Nairobi-Stay" transform="translate(-957.000000, -867.000000)">
		<g id="filters" transform="translate(168.000000, 785.000000)">
			<g id="see_11_" transform="translate(793.000000, 83.000000)">
				<g id="Page-1_12_">
					<g id="Group-3_11_" transform="translate(0.000000, 0.460261)">
						<defs>
							<filter id="Adobe_OpacityMaskFilter" filterUnits="userSpaceOnUse" x="-2.195" y="18.028" width="96.39" height="38.722">
								<feColorMatrix  type="matrix" values="1 0 0 0 0  0 1 0 0 0  0 0 1 0 0  0 0 0 1 0"/>
							</filter>
						</defs>
						<mask maskUnits="userSpaceOnUse" x="-2.195" y="18.028" width="96.39" height="38.722" id="mask-3_11_">
							<g filter="url(#Adobe_OpacityMaskFilter)">
								<polygon id="path-2_11_" fill="#FFFFFF" points="-2.194,18.028 94.193,18.028 94.193,56.748 -2.194,56.748 								"/>
							</g>
						</mask>
						<path id="Fill-1_11_" mask="url(#mask-3_11_)" fill="#FFFFFF" d="M61.843,24.942c-1.276,0.885-1.594,2.044-2.342,2.878
							C60.339,27.069,61.277,26.406,61.843,24.942 M21.97,24.967c1.674,0.144,2.609-0.658,3.061-2.476
							C23.892,23.12,22.971,23.909,21.97,24.967 M61.426,29.685c-1.181,0.631-2.328,1.216-3.631,1.45
							c-0.273,0.05-0.749,0.243-0.552,0.716c0.137,0.327,0.452,0.336,0.79,0.187C59.313,31.467,60.607,30.928,61.426,29.685
							 M2.471,40.716c1.543-1.506,2.9-2.829,4.258-4.151C5.02,37.53,3.242,38.426,2.471,40.716 M35.359,41.042
							c-1.872-1.775-4.051-1.686-6.339-0.914C31.183,40.128,33.282,40.496,35.359,41.042 M51.314,22.138
							c-0.914-0.491-1.455,0.025-2.063,0.504c-1.211,0.957-2.1,2.272-3.42,3.103c-0.221,0.138-0.727,0.221-0.373,0.629
							c0.248,0.285,0.676,0.298,0.912-0.089c0.535-0.874,1.436-1.305,2.174-1.932C49.423,23.608,50.477,23.093,51.314,22.138
							 M60.585,25.176c-0.416-0.267-0.681-0.208-0.937,0.049c-1.563,1.568-3.28,2.983-4.569,4.814
							c-0.152,0.216-0.613,0.399-0.228,0.75c0.252,0.229,0.519-0.031,0.703-0.178C57.505,29.064,58.968,27.064,60.585,25.176
							 M0.599,43.678c-0.232-2.993,1.368-5.049,3.319-6.981c-1.076,0.161-2.14,0.199-2.708,1.222
							c-0.71,1.278-1.293,2.612-1.768,4.009C-0.949,43.085-0.467,43.456,0.599,43.678 M31.059,19.357
							c-0.308-0.029-0.47-0.099-0.56-0.044c-2.1,1.259-3.873,2.873-5.181,4.977c-0.13,0.208-0.288,0.53,0.073,0.679
							c0.371,0.153,0.853,0.284,1.107-0.108C27.786,22.887,29.796,21.531,31.059,19.357 M28.466,25.312
							c0.386,0.041,0.649-0.177,0.871-0.483c1.063-1.468,2.538-2.487,3.885-3.647c0.303-0.262,0.96-0.451,0.6-0.968
							c-0.263-0.38-0.799-0.67-1.383-0.417c-0.438,0.189-0.863,0.334-1.248,0.691c-1.28,1.189-2.111,2.708-3.107,4.105
							C27.741,25.073,27.851,25.325,28.466,25.312 M39.638,39.68c-0.258,0.074-0.602,0.156-0.932,0.274
							c-0.43,0.155-1.145,0.113-1.077,0.739c0.056,0.52,0.757,0.398,1.136,0.412c1.764,0.063,3.154,0.773,4.223,2.188
							c0.158,0.209,0.404,0.351,0.592,0.541c0.502,0.514,0.849,0.191,1.199-0.205c0.423-0.479,0.187-0.772-0.225-1.092
							c-0.734-0.57-1.432-1.191-2.158-1.771C41.614,40.146,40.731,39.757,39.638,39.68 M36.675,21.212
							c-0.361-0.239-1.008-0.737-1.204-0.47c-0.552,0.75-1.44,0.766-2.052,1.262c-1.032,0.834-2.078,1.677-2.766,2.867
							c-0.201,0.351-0.78,0.655-0.209,1.083c0.455,0.341,1.028,0.646,1.52,0.009c1.18-1.526,2.631-2.758,4.107-3.966
							C36.3,21.809,36.616,21.668,36.675,21.212 M38.888,48.998c1.609-0.991,2.584-2.403,3.846-3.493
							c0.203-0.176,0.35-0.356,0.234-0.688c-0.359-1.035-2.357-2.465-3.469-2.604c-1.069-0.137-1.035,0.45-0.768,1.09
							C39.501,45.133,39.759,46.969,38.888,48.998 M36.216,41.771c0.73,3.005,0.479,5.671-1.096,8.062
							c-1.697,2.577-4.232,3.176-7.261,2.577c1.716,2.123,6.687,0.515,9.03-2.672C38.901,47.007,38.79,43.735,36.216,41.771
							 M41.45,22.302c-0.15-0.142-0.252-0.299-0.394-0.363c-0.968-0.441-1.996-0.872-3.034-0.48
							c-2.345,0.887-3.682,2.922-5.143,4.821c-0.474,0.616-0.256,0.853,0.201,1.274c0.861,0.793,1.309,0.08,1.694-0.467
							c1.182-1.675,2.829-2.853,4.271-4.248c0.303-0.292,0.795-0.703,1.119-0.284c0.394,0.507-0.303,0.584-0.574,0.807
							c-1.614,1.324-3.221,2.657-4.453,4.373c-0.244,0.337-0.912,0.71-0.254,1.211c0.61,0.464,0.837-0.229,1.145-0.539
							c1.719-1.734,2.91-3.966,4.961-5.392C41.187,22.876,41.275,22.58,41.45,22.302 M58.357,22.189
							c-0.437-0.303-0.719-0.523-1.022-0.705c-1.512-0.904-2.269-0.818-3.519,0.412c-0.252,0.25-0.473,0.342-0.814,0.161
							c-0.496-0.263-0.857,0.032-1.139,0.409c-0.463,0.624-1.112,1.003-1.704,1.471c-0.956,0.757-1.837,1.613-2.779,2.455
							c1.81,1.12,1.757,1.071,3.021-0.275c1.629-1.736,3.789-2.788,5.619-4.274c0.215-0.174,0.633-0.149,0.75,0.271
							c0.076,0.262,0.096,0.628-0.244,0.656c-2.062,0.168-3.058,1.984-4.533,3.027c-2.215,1.564-2.143,1.82,0.109,3.234
							c0.301,0.19,0.611,0.364,0.92,0.54c0.561,0.318,1.069,0.332,1.521-0.219c1.563-1.906,3.423-3.488,5.35-4.995
							c0.643-0.501,0.02-1.014-0.191-0.969c-1.033,0.223-2.217-0.204-3.102,0.704c-1.273,1.307-2.566,2.593-3.853,3.889
							c-0.218,0.22-0.422,0.484-0.947,0.078C53.563,25.652,55.939,23.979,58.357,22.189 M11.15,48.639
							c0.005,0.043-0.046-0.137-0.034-0.313c0.124-1.847-1.007-3.455-1.002-5.244c0.001-0.881-0.327-1.383-0.959-1.738
							c-1.672-0.943-3.737-1.231-5.422,0.25c-2.32,2.041-3.952,7.762-3.02,10.797c0.34,1.104,0.76,2.214,1.883,2.611
							C7.332,56.676,11.468,54.323,11.15,48.639 M69.9,49.361c-1.461,0.285-2.602,0.369-3.699,0.744
							c-3.221,1.1-6.495,1.085-9.77,0.303c-0.932-0.223-2.019-0.278-2.67-1.084c-2-2.467-4.766-3.747-7.467-5.146
							c-0.184-0.096-0.296-0.063-0.473,0.021c-1.238,0.582-1.477,1.712-0.521,2.697c1.07,1.106,2.489,1.532,3.912,1.891
							c1.121,0.281,2,0.813,2.717,1.767c0.988,1.318,2.035,2.352,3.982,2.463c2.64,0.15,5.07-0.912,7.62-0.877
							C66.012,52.175,67.811,50.937,69.9,49.361 M31.039,41.445c-0.623,0-0.946,0.06-1.243-0.01
							c-2.158-0.492-4.51,1.891-3.908,4.278c0.119,0.478,0.055,1.002,0.189,1.469c0.443,1.548,0.797,3.421,2.453,3.895
							c1.814,0.521,3.729,0.334,5.177-1.406c1.553-1.867,1.675-4.043,1.661-6.283c-0.001-0.287-0.121-0.651-0.435-0.793
							C33.591,41.994,32.362,40.949,31.039,41.445 M73.039,47.587c0.762,0.217,1.126-0.097,1.518-0.279
							c2.282-1.074,4.512-2.281,6.851-3.211c2.647-1.051,4.858-2.568,5.847-5.317c0.955-2.661,2.506-4.816,4.504-6.717
							c0.385-0.366,0.707-0.804,1.028-1.232c0.124-0.164,0.284-0.452,0.224-0.584c-0.801-1.701-0.727-3.746-2.191-5.212
							c-0.728-0.729-1.426-1.114-2.42-1.134c-1.666-0.033-3.062,0.745-4.504,1.417c-1.117,0.52-2.195,0.823-3.367-0.06
							c-0.659-0.497-1.59-0.564-2.426-0.387c-0.539,0.114-1.103,0.224-1.574,0.04c-1.768-0.69-3.514-0.525-5.332-0.238
							c-2.637,0.417-4.631,1.96-6.946,3.431c0.771,0.232,1.251,0.094,1.733,0.072c1.861-0.086,3.689-0.69,5.566-0.447
							c2.473,0.321,4.797-0.102,7.146-0.922c2.975-1.039,6.087-1.1,9.184-0.569c2.34,0.402,2.551,2.278,1.838,3.774
							c-0.863,1.814-1.555,3.719-2.572,5.46c-2.41,4.124-6.588,6.415-9.795,9.714c-0.086,0.09-0.234,0.14-0.363,0.159
							C75.453,45.583,74.516,46.837,73.039,47.587 M30.322,38.154c1.563,0.501,3.181,0.11,4.47,1.006
							c0.771,0.536,1.428,0.445,2.221,0.052c2.031-1.01,3.998-1.029,5.818,0.567c0.671,0.586,1.531,0.974,2.126,1.619
							c0.966,1.05,1.759,0.563,2.482-0.156c2.152-2.138,4.258-4.325,6.377-6.499c0.216-0.22,0.556-0.449,0.478-0.769
							c-0.319-1.3-0.356-2.749-1.823-3.464c-0.837-0.407-1.578-1.012-2.418-1.411c-3.091-1.471-6.085-2.3-9.339-0.048
							C36.921,31.678,33.751,34.954,30.322,38.154 M12.304,51.501c3.464-2.184,5.401-5.611,8.224-8.355
							c-0.774-0.104-1.213,0.205-1.691,0.438c-1.297,0.633-2.363,1.555-3.396,2.551c-0.289,0.277-0.789,0.965-1.27,0.139
							c-0.522-0.895,0.368-3.291,1.33-3.664c1.362-0.529,2.691-1.135,3.917-1.941c1.417-0.938,2.974-1.352,4.647-1.236
							c0.461,0.031,0.743-0.113,1.051-0.408c2.7-2.594,5.396-5.193,8.127-7.755c1.055-0.991,0.984-1.635-0.205-2.477
							c-2.27-1.606-4.717-2.551-7.513-2.669c-3.009-0.127-5.737,0.277-8.08,2.505c-2.064,1.962-4.394,3.637-6.568,5.482
							c-1.75,1.484-3.458,3.021-4.926,4.843c0.193,0.124,0.26,0.196,0.34,0.214c4.308,0.995,4.485,1.277,5.302,5.53
							C12.016,46.898,12.153,49.11,12.304,51.501 M60.878,49.955c2.276-0.063,3.966-0.811,5.733-1.129
							c2.259-0.405,4.281-1.179,6.228-2.433c0.99-0.641,1.709-1.731,2.962-1.952c1.006-0.179,1.86-0.677,2.465-1.474
							c0.963-1.272,2.23-2.164,3.446-3.137c0.938-0.751,1.812-1.585,2.713-2.381c2.341-2.067,2.992-5.136,4.406-7.747
							c0.644-1.189,0.065-2.316-1.09-2.511c-2.861-0.482-5.742-0.383-8.523,0.43c-2.536,0.74-5.057,1.445-7.71,1.071
							c-2.558-0.359-4.986,0.44-7.476,0.695c-0.496,0.051-1.009,0.373-1.433,0.681c-2.33,1.699-4.572,3.536-7.258,4.671
							c-0.152,0.064-0.268,0.231-0.393,0.358c-2.441,2.479-4.87,4.973-7.333,7.431c-0.558,0.558-0.71,0.854,0.173,1.2
							c1.996,0.783,3.842,1.934,5.309,3.461C55.422,49.615,58.436,49.529,60.878,49.955 M59.771,29.355
							c2.199-0.782,3.918-1.922,5.617-3.119c3.459-2.436,7.256-3.327,11.42-2.417c0.387,0.084,0.83,0.176,1.188,0.066
							c1.196-0.372,2.246-0.151,3.28,0.522c0.888,0.577,1.752,0.261,2.634-0.16c1.469-0.704,2.873-1.574,4.644-1.417
							c1.26,0.113,2.307,0.371,3.049,1.53c0.549,0.86,1.567,1.526,1.821,2.438c0.328,1.169,0.695,2.396,0.769,3.61
							c0.049,0.833-0.67,1.694-1.295,2.115c-2.823,1.901-4.015,4.944-5.479,7.765c-1.167,2.246-3.113,3.361-5.199,4.385
							c-4.978,2.441-10.236,4.297-14.893,7.402c-1.08,0.721-2.337,0.832-3.575,0.905c-1.43,0.086-2.812,0.403-4.19,0.741
							c-1.811,0.442-3.627,0.295-5.422-0.024c-1.004-0.179-1.697-0.923-2.252-1.774c-0.791-1.211-1.85-1.903-3.287-2.289
							c-1.642-0.438-3.31-1.063-4.351-2.619c-0.393-0.588-0.766-0.59-1.268-0.116c-1.849,1.743-3.783,3.394-5.522,5.257
							c-0.412,0.441-0.724,1.391-1.685,0.639c-0.307-0.242-0.602,0.258-0.899,0.41c-1.824,0.938-3.593,1.815-5.798,1.334
							c-1.638-0.357-2.467-1.461-3.269-2.695c-1.638-2.523-2.567-5.227-1.88-8.297c0.066-0.3,0.212-0.607-0.176-0.824
							c-0.413-0.231-0.796-0.12-1.125,0.121c-1.221,0.896-2.376,1.863-3.207,3.17c-0.754,1.188-1.144,2.471-2.711,3.229
							c-1.594,0.771-2.585,2.729-4.107,3.766c-2.008,1.371-3.593,3.506-6.328,3.707c-5.513,0.405-7.531-2.649-6.985-8.166
							c0.12-1.213,1.004-2.346,0.358-3.643c-0.265-0.532-0.528-1.068-1.151-1.227c-0.833-0.215-0.813-0.773-0.471-1.326
							c0.782-1.268,1.143-2.672,1.621-4.061c0.454-1.32,1.308-2.708,3.097-2.751c1.878-0.044,2.783-1.465,3.743-2.776
							c1.228-1.678,2.361-3.351,4.366-4.329c1.489-0.727,3.155-0.424,4.571-1.237c0.273-0.156,0.793,0.243,0.654,0.403
							c-0.325,0.375-0.186,1.102-0.867,1.188c-0.614,0.078-1.224,0.22-1.84,0.259c-3.249,0.205-4.928,2.48-6.44,4.978
							c-0.057,0.096-0.007,0.256-0.007,0.399c0.517,0.163,0.698-0.304,1.01-0.493c0.218-0.133,0.559-0.465,0.678-0.195
							c0.574,1.302,1.047,0.117,1.326-0.111c4.722-3.864,9.409-7.771,14.095-11.68c0.441-0.369,0.877-0.767,1.225-1.223
							c1.885-2.46,5.447-3.337,8.378-2.21c2.028,0.781,3.92,1.999,6.321,1.694c0.916-0.116,1.992,0.636,2.909,1.15
							c0.439,0.247,1.001,0.945,0.228,1.408c-3.032,1.811-4.867,4.82-7.268,7.261c-2.753,2.799-5.654,5.437-8.561,8.072
							c-0.523,0.475-1.103,0.908-1.447,1.589c0.541,0.516,0.943,0.21,1.357-0.179c2.081-1.938,4.205-3.831,6.244-5.813
							c2.216-2.154,4.664-3.992,7.205-5.713c1.147-0.777,2.048-1.974,3.242-2.542c1.744-0.829,2.999-2.17,4.443-3.333
							c2.59-2.084,5.69-2.898,8.834-2.115c2.069,0.517,3.646,2.316,5.19,3.877c0.06,0.061,0.095,0.154,0.125,0.237
							c0.229,0.588,1.358,0.639,1.099,1.338c-0.264,0.706-0.94,1.271-1.488,1.848C61.419,27.98,60.503,28.381,59.771,29.355"/>
					</g>
					<path id="Fill-4_11_" fill="#FFFFFF" d="M32.793,43.467c0.483,0.026,0.794,0.352,0.923,0.702
						c0.321,0.876,0.539,1.791,0.801,2.688c0.191,0.658-0.328,0.777-0.725,0.882c-0.649,0.171-0.563-0.433-0.584-0.757
						c-0.061-0.938-0.09-1.842-0.799-2.603C31.993,43.934,32.22,43.564,32.793,43.467"/>
					<path id="Fill-6_11_" fill="#FFFFFF" d="M2.479,49.68c0.249,0.907,0.097,2.19,1.13,3.02c1.378,1.105,2.23,1.212,3.065-0.426
						c0.674-1.323,1.123-2.683,0.837-4.258c-0.221-1.211-0.484-2.445-0.209-3.729c0.289-1.349-0.095-1.646-1.391-1.224
						c-0.784,0.256-1.506,0.746-1.833,1.472C3.366,46.104,2.56,47.667,2.479,49.68 M8.431,44.415
						c-0.125,1.217,0.02,2.19,0.192,3.168c0.434,2.449-0.182,4.547-1.786,6.492c-1.226,1.485-2.735,0.964-4.021-0.191
						c-1.303-1.17-1.772-2.729-1.575-4.502c0.274-2.459,1.004-4.724,2.697-6.573c1.024-1.119,2.42-1.146,3.682-0.813
						C9,42.359,8.385,43.671,8.431,44.415"/>
					<path id="Fill-8_11_" fill="#FFFFFF" d="M6.185,46.219c-0.411,0.577,0.177,2.063-0.99,1.893
						c-1.172-0.17-0.142-1.299-0.199-1.992c-0.035-0.432-0.114-1.141,0.628-1.068C6.185,45.104,6.093,45.714,6.185,46.219"/>
				</g>
			</g>
		</g>
	</g>
</g>
</svg>
