<svg xmlns="http://www.w3.org/2000/svg" xmlns:xlink="http://www.w3.org/1999/xlink" width="364" height="387" viewBox="0 0 364 387">
    <defs>
        <path id="a" d="M.06.72h363.139v385.281H.06z"/>
    </defs>
    <g fill="none" fill-rule="evenodd">
        <mask id="b" fill="#fff">
            <use xlink:href="#a"/>
        </mask>
        <path fill="#000" d="M294.238 248.24c-22.16 0-41.918 10.558-54.558 26.878l-105.84-59.117a69.119 69.119 0 0 0 3.84-22.722c0-8-1.36-15.598-3.918-22.797l105.758-59.043c12.558 16.402 32.402 27.043 54.64 27.043 37.918 0 68.879-30.883 68.879-68.883S332.16.72 294.16.72s-68.879 30.879-68.879 68.879c0 8 1.36 15.68 3.918 22.801L123.52 151.439C110.961 134.958 91.121 124.4 68.879 124.4 30.961 124.4 0 155.279 0 193.279s30.961 68.882 68.961 68.882c22.238 0 42.078-10.64 54.719-27.121l105.761 59.121c-2.562 7.2-4 14.957-4 22.957 0 37.922 30.879 68.883 68.879 68.883s68.879-30.883 68.879-68.883-30.961-68.878-68.961-68.878zm0-225.84c26.082 0 47.282 21.199 47.282 47.281 0 26.078-21.2 47.277-47.282 47.277-26.078 0-47.277-21.199-47.277-47.277 0-26.082 21.277-47.281 47.277-47.281zM68.961 240.56c-26.082 0-47.281-21.199-47.281-47.281 0-26.079 21.199-47.278 47.281-47.278 26.078 0 47.277 21.199 47.277 47.278 0 26.082-21.277 47.281-47.277 47.281zm225.277 123.762c-26.078 0-47.277-21.204-47.277-47.282 0-26.082 21.199-47.281 47.277-47.281 26.082 0 47.282 21.199 47.282 47.281 0 26.078-21.2 47.282-47.282 47.282z" mask="url(#b)"/>
    </g>
</svg>
