<?xml version="1.0" encoding="utf-8"?>
<!-- Generator: Adobe Illustrator 16.0.0, SVG Export Plug-In . SVG Version: 6.00 Build 0)  -->
<!DOCTYPE svg PUBLIC "-//W3C//DTD SVG 1.1//EN" "http://www.w3.org/Graphics/SVG/1.1/DTD/svg11.dtd">
<svg version="1.1" id="Layer_1" xmlns="http://www.w3.org/2000/svg" xmlns:xlink="http://www.w3.org/1999/xlink" x="0px" y="0px"
	 width="23px" height="19px" viewBox="0 0 23 19" enable-background="new 0 0 23 19" xml:space="preserve">
<title>twitter</title>
<desc>Created with Sketch.</desc>
<g>
	<defs>
		<filter id="Adobe_OpacityMaskFilter" filterUnits="userSpaceOnUse" x="2.931" y="0.409" width="17.139" height="18.181">
			<feColorMatrix  type="matrix" values="1 0 0 0 0  0 1 0 0 0  0 0 1 0 0  0 0 0 1 0"/>
		</filter>
	</defs>
	<mask maskUnits="userSpaceOnUse" x="2.931" y="0.409" width="17.139" height="18.181" id="b_1_">
		<g filter="url(#Adobe_OpacityMaskFilter)">
			<path id="a_1_" fill="#FFFFFF" d="M2.933,0.409h17.136V18.59H2.933V0.409z"/>
		</g>
	</mask>
	<path mask="url(#b_1_)" d="M16.816,12.09c-1.046,0-1.979,0.496-2.575,1.27l-4.995-2.791c0.12-0.344,0.182-0.707,0.182-1.073
		c0-0.376-0.065-0.736-0.186-1.075l4.992-2.786c0.592,0.774,1.529,1.276,2.577,1.276c1.789,0,3.251-1.458,3.251-3.251
		c0-1.793-1.458-3.25-3.251-3.25s-3.248,1.458-3.248,3.25c0,0.378,0.063,0.74,0.184,1.077L8.76,7.522
		C8.167,6.745,7.231,6.246,6.182,6.246c-1.79,0-3.251,1.458-3.251,3.25c0,1.795,1.461,3.252,3.255,3.252
		c1.05,0,1.985-0.502,2.582-1.279l4.99,2.789c-0.12,0.338-0.188,0.705-0.188,1.084c0,1.789,1.455,3.248,3.248,3.248
		s3.251-1.455,3.251-3.248S18.609,12.09,16.816,12.09L16.816,12.09z M16.816,1.433c1.231,0,2.231,1,2.231,2.231
		s-1,2.231-2.231,2.231s-2.231-1.001-2.231-2.231S15.589,1.433,16.816,1.433z M6.186,11.727c-1.232,0-2.232-1-2.232-2.231
		c0-1.229,1-2.23,2.232-2.23c1.23,0,2.231,1.001,2.231,2.23C8.417,10.727,7.412,11.727,6.186,11.727z M16.816,17.566
		c-1.231,0-2.231-0.998-2.231-2.229c0-1.232,1-2.234,2.231-2.234s2.231,1.002,2.231,2.234
		C19.048,16.568,18.048,17.566,16.816,17.566z"/>
</g>
</svg>
