<?xml version="1.0" encoding="utf-8"?>
<!-- Generator: Adobe Illustrator 16.0.0, SVG Export Plug-In . SVG Version: 6.00 Build 0)  -->
<!DOCTYPE svg PUBLIC "-//W3C//DTD SVG 1.1//EN" "http://www.w3.org/Graphics/SVG/1.1/DTD/svg11.dtd">
<svg version="1.1" id="Layer_1" xmlns="http://www.w3.org/2000/svg" xmlns:xlink="http://www.w3.org/1999/xlink" x="0px" y="0px"
	 width="23px" height="19px" viewBox="0 0 23 19" enable-background="new 0 0 23 19" xml:space="preserve">
<title>twitter</title>
<desc>Created with Sketch.</desc>
<g id="Symbols">
	<g id="Footer-Copy" transform="translate(-1328.000000, -24.000000)">
		<g id="Group-4" transform="translate(193.000000, 15.000000)">
			<g id="Group-3" transform="translate(1135.000000, 5.000000)">
				<g id="twitter" transform="translate(0.000000, 4.000000)">
					<g id="Shape">
						<path d="M21.773,3.113c-0.769,0.323-1.537,0.581-2.433,0.646c0.896-0.517,1.537-1.355,1.855-2.323
							c-0.831,0.516-1.727,0.838-2.687,1.032c-0.769-0.838-1.857-1.355-3.01-1.355c-2.304,0-4.224,1.871-4.224,4.258
							c0,0.322,0.064,0.645,0.128,0.968C7.883,6.145,4.811,4.468,2.699,1.887C2.314,2.533,2.123,3.242,2.123,4.016
							c0,1.484,0.768,2.774,1.856,3.548c-0.705,0-1.344-0.193-1.92-0.516v0.064c0,2.065,1.472,3.742,3.393,4.129
							c-0.384,0.064-0.704,0.129-1.088,0.129c-0.256,0-0.512,0-0.768-0.064c0.512,1.678,2.112,2.903,3.905,2.968
							c-1.409,1.16-3.265,1.806-5.249,1.806c-0.32,0-0.705,0-1.024-0.064c1.92,1.162,4.161,1.871,6.529,1.871
							c7.744,0,11.97-6.451,11.97-12.064c0-0.194,0-0.387,0-0.516C20.492,4.662,21.196,3.952,21.773,3.113z"/>
					</g>
				</g>
			</g>
		</g>
	</g>
</g>
</svg>
