<?xml version="1.0" encoding="utf-8"?>
<!-- Generator: Adobe Illustrator 22.0.0, SVG Export Plug-In . SVG Version: 6.00 Build 0)  -->
<svg version="1.1" id="Layer_1" xmlns="http://www.w3.org/2000/svg" xmlns:xlink="http://www.w3.org/1999/xlink" x="0px" y="0px"
	 viewBox="0 0 100 78" style="enable-background:new 0 0 100 78;" xml:space="preserve">
<style type="text/css">
	.st0{filter:url(#Adobe_OpacityMaskFilter);}
	.st1{fill:#FFFFFF;}
	.st2{mask:url(#mask-3_1_);fill:#FFFFFF;}
	.st3{filter:url(#Adobe_OpacityMaskFilter_1_);}
	.st4{mask:url(#mask-5_1_);fill:#FFFFFF;}
</style>
<g id="Page-1">
	<g id="Nairobi-Stay" transform="translate(-786.000000, -845.000000)">
		<g id="filters" transform="translate(168.000000, 785.000000)">
			<g id="shop_11_" transform="translate(622.000000, 62.000000)">
				<g>
					<g id="Group-3_11_" transform="translate(0.000000, 5.000000)">
						<defs>
							<filter id="Adobe_OpacityMaskFilter" filterUnits="userSpaceOnUse" x="15" y="-1.5" width="30.3" height="72.5">
								<feColorMatrix  type="matrix" values="1 0 0 0 0  0 1 0 0 0  0 0 1 0 0  0 0 0 1 0"/>
							</filter>
						</defs>
						<mask maskUnits="userSpaceOnUse" x="15" y="-1.5" width="30.3" height="72.5" id="mask-3_1_">
							<g class="st0">
								<polygon id="path-2_1_" class="st1" points="15,-1.6 45.3,-1.6 45.3,71 15,71 								"/>
							</g>
						</mask>
						<path id="Fill-1_11_" class="st2" d="M40.1,60c-1.4-0.7-1.5-0.8-2.2-0.5C38.8,59.4,39.1,60.8,40.1,60 M36.6,67.2
							c-0.9-0.5-1.4,0.1-1.9,0.6C35.4,67.7,36.1,67.6,36.6,67.2 M29,67.6c-0.5-0.6-1.2-0.8-1.6-1.4C27.1,67,27.5,67.4,29,67.6
							 M32.3,51c1,0.9,1.7,0.9,2.4,0C33.9,50.9,33.2,51.2,32.3,51 M40.5,65.2c1.1-0.9,1.8-1.9,2-3.1c0.2-1,0.1-1.1-1.1-1.3
							C43,62.6,40.8,63.7,40.5,65.2 M39,61.3c-0.8,0.6-1.5,1.1-2.1,1.6c-0.2,0.2-0.5,0.5-0.1,0.6c0.5,0.3,1.2,0.5,1.6-0.3
							C38.6,62.7,39,62.3,39,61.3 M27.6,41.4c0.9,0.3,1.5,0.6,2.3,0.6c0.9,0,1.3-0.7,1.6-1.2c0.2-0.4-0.7-0.5-1.1-0.7
							c-0.4-0.2-0.7-0.5-1.2-0.1C28.7,40.4,28.2,40.8,27.6,41.4 M35.5,46c-2.4-0.8-4.2,0.2-6.3,1C31.6,48,33.4,47,35.5,46
							 M42.2,16.3c-1.4,2.1-1.3,3.9,0,6.1c0.1-0.7,0-1.5,0.3-2C43.3,18.9,42.4,17.7,42.2,16.3 M37.8,51.1c-0.6-0.4-0.9,0.1-1.3,0.1
							c-1.8,0.4-3.3,1.5-4.8,2.3c-0.8,0.4-1.4,1-2.1,1.6c-0.2,0.2-0.3,0.4-0.1,0.6c0.1,0.2,0.3,0.2,0.4,0.1c0.5-0.6,1.2-0.4,1.8-0.8
							C33.5,53.7,35.7,52.6,37.8,51.1 M18.9,18.8c-0.1,0-0.2,0-0.2,0c-0.2,1.6-0.4,3.1-0.6,4.7c0,0.3,0.1,0.6,0.2,0.9
							c0.6,1.1,1.5,2,2.8,2.9c-0.2-0.6-0.3-1-0.2-1.4c0.1-0.6,0.1-1.2-0.5-1.7c-0.2-0.2-0.2-0.4-0.3-0.7
							C19.6,21.9,18.7,20.5,18.9,18.8 M37.8,33.4c0-1.1-0.8-1.6-1.7-1.2c-1.9,0.8-3.4,2.4-5.3,3.3c-0.1,0.1-0.3,0.2-0.2,0.4
							c0.1,0.3,1.4,0.7,1.6,0.5c0.5-0.6,1.2-0.8,1.9-1c0.8-0.2,1.6-0.4,2.3-0.8C37.1,34.3,37.6,33.9,37.8,33.4 M23.5,2.5
							c-0.6,0.5-0.7,1-1,1.5c-0.9,1.4-1.1,3.2-2.1,4.6c-1.2,1.7-1.6,3.5-1.8,5.4c-0.1,0.8-0.2,1.6-0.1,2.4c0,0.2,0,0.6,0.3,0.6
							c0.3,0,0.4-0.3,0.5-0.5c0.4-1,0.7-1.9,1.3-2.8c0.6-0.8,0.8-1.8,0.9-2.7c0.5-2.7,0.4-5.6,1.9-8C23.5,2.9,23.4,2.8,23.5,2.5
							 M36,50.1c0.2,0,0.3,0,0.5,0c0.8,0.1,1.1-0.3,1.1-1c0-0.6-0.6-0.7-1-0.8c-0.3,0-0.6-0.1-0.9,0c-2.8,0.3-5.5-0.3-8.3-0.6
							c-0.4,0-0.9-0.4-1,0.1c-0.1,0.5,0,1.2,0.7,1.5c0.4,0.1,0.8,0.2,1.2,0.3c0.8,0.2,1.6,0.1,2.3,0.3c1.4,0.5,2.9,0.5,4.3,0.2
							C35.3,50.1,35.7,50,36,50.1 M24.7,41.6c-0.3,0.1-0.8-0.2-0.9,0.4c-0.1,0.6,0,1.4,0.5,1.6c0.7,0.2,1.4,0.8,2.2,0.7
							c0.6-0.1,1.2-0.1,1.7,0.1c2.7,0.9,5.6,0.5,8.4,1.2c0.3,0.1,0.7,0.1,0.8-0.3c0.1-0.4-0.2-0.6-0.5-0.7c-1.3-0.5-2.7-0.9-4-1.1
							c-1.2-0.2-2.4-0.4-3.6-0.7C27.7,42.2,26.2,41.7,24.7,41.6 M29.5,59.7c2.3,0.5,4.5-0.7,6.8-1c-0.6-0.3-0.8-0.6-0.5-1.2
							c0.3-0.6,0.3-1.2,0.5-1.8c0.1-0.3,0.1-0.5-0.3-0.7c-1.8-1-1.8-1-3.6,0.1c-0.4,0.2-0.7,0.5-1.2,0.7c-0.5,0.2-0.6,0.5-0.3,0.9
							c0.4,0.6,0.3,1.2-0.3,1.7C30.2,58.9,29.9,59.3,29.5,59.7 M43.3,17.3c0.3-0.8,0-1.7,0.1-2.5c0.3-1.5,0.4-3.1,0.3-4.7
							c-0.1-1-0.1-2-0.9-2.8c-0.5-0.5-0.9-1.1-1.4-1.7c-1.1-1.4-1.9-3-3.2-4.3C40,6.7,41.5,12.1,43.3,17.3 M18.4,54.5
							c0.5-0.5,0.9-0.8,1.3-1.1c0.4-0.3,0.9-0.6,0.6-1.1c-0.8-1.4-0.9-2.9-1.6-4.3c-0.9-2.1-1.7-4.3-1.9-6.6c-0.2-1.5-0.6-3-0.7-4.7
							c-0.4,0.4-0.3,0.8-0.4,1.1c-0.2,1.5-0.1,3-0.2,4.5c-0.1,0.8-0.1,1.5,0.1,2.2c0.5,1.3,0.7,2.8,1.1,4.2
							C17.4,50.5,17.9,52.4,18.4,54.5 M35.5,40.5c0.2,0,0.3-0.1,0.4-0.1c0.7,0,1.2-0.2,1.3-0.9c0.1-0.7-0.6-0.5-1-0.7
							c-2.8-1.3-5.7-2-8.3-3.7c-1-0.6-2-1.2-3.3-1.5c-0.8-0.1-0.8,0.2-0.8,0.7C23.6,36,25,36.7,26,37.3c1.2,0.7,2.5,1.5,4.1,1.5
							c0.2,0,0.4,0.1,0.4,0.3c0,0.3,0.2,0.4,0.5,0.5C32.5,39.9,34,40.2,35.5,40.5 M25.6,29.9c-1.4-0.2-1.1,0.4-1,0.9
							c0.1,0.5,0.2,0.9,0.3,1.4c0,0.6,0.3,0.9,0.8,1c1.2,0.5,2.3,1.2,3.5,1.8c0.3,0.1,0.5,0.3,0.8,0.2c0.8-0.4,1.7-0.8,2.5-1.2
							c1.5-0.8,2.7-2.1,4.3-2.7c0.4-0.1,0.2-0.3,0.1-0.6c-0.2-0.7-0.9-1.4-0.4-2c0.5-0.7,1.1-1.5,2.1-1.6c1.2-0.1,1.8-1.1,2.4-1.9
							c0.3-0.4,0.6-0.8,0.5-1.3c-0.1-1.2-0.4-2.4-0.8-3.5c-0.1-0.3-0.2-0.7-0.6-0.3c-0.1,0.1-0.3,0.2-0.4,0c-0.2-0.2-0.1-0.3,0-0.5
							c0.6-0.8,0.1-1.2-0.6-1.6c-0.7-0.3-1.5-0.5-2.3-0.4c0.2,1.2,0.8,2.2,0.7,3.4c-0.1,1.1,0,2.1,0,3.2c0,0.7,0,1.3,0,2
							c-0.1,0.7-0.4,1.3-1.4,1.2c-0.8,0-1.5,0.1-2.3,0.1c-1,0-1.8,0.6-2.8,0.5c-1.8-0.3-3.7-0.2-5.5-0.2c-0.7,0-1-0.2-1.3-1
							c-0.8-2.3-0.5-4.7-0.8-7c0-0.3,0.1-0.8-0.3-0.9c-0.5-0.1-1.2,0-1.4,0.5c-0.6,1.2-1,2.5-0.7,3.9c0.3,1.4,0.9,2.8,0.7,4.3
							c0,0.3,0.2,0.4,0.4,0.4C23.4,28.1,24.2,29,25.6,29.9 M17.8,24.8c-0.5,2.4-0.6,4.7-0.7,6.9c0,2.6-0.5,5.2,0.1,7.9
							c0.6,3,1.3,6,2.6,8.9c0.6,1.3,1,2.7,1.5,4.1c1.1,2.7,2.2,5.5,3.5,8.1c0.1,0.2,0.2,0.4,0.4,0.3c2-0.7,3.8-1.5,5-3.3
							c0.3-0.4,0-0.9-0.3-0.8c-0.6,0.2-0.8-0.2-1.2-0.3c-1.5-0.5-2-2.3-1.1-3.5c0.1-0.1,0.2-0.3,0.5-0.2c0.6,0.2,0.8,0.8,0.6,1.4
							c-0.1,0.2-0.1,0.3,0.1,0.5c0.7-0.2,1.1-0.7,1.8-1.2c-1.1-0.4-1.6-1.4-2.4-2.1c-0.2-0.2-0.6-0.3-0.3-0.6
							c0.3-0.4,0.6-0.1,0.8,0.1c0.6,0.6,1.1,1.1,1.7,1.7c0.7,0.6,1.4,0.4,2-0.1c0.1-0.1,0.4-0.3,0.2-0.4c-0.7-0.4-1-1.3-1.9-1.4
							c-1.5-0.2-3.1-0.8-4.6,0.1c-0.6,0.4-1.1,0.1-1.4-0.5c-0.5-1-0.4-2,0.3-2.8c0.6-0.7,1.5-0.8,2.3-0.5c0.7,0.2,1.4,0.4,1.8-0.5
							c0.1-0.3,0.4-0.3,0.7-0.4c0.4-0.1,0.9-0.2,1.3-0.5c-2.3-0.6-4.7-1-7-0.9c-0.8,0-1.4-0.3-1.7-1c-0.3-0.8,0.1-2.5,0.8-3
							c0.2-0.2,0.5-0.2,0.6-0.1c0.5,0.4,1.1,0.3,1.6,0.5c1.2,0.3,2.9-0.5,3.7-1.6c-0.5-0.2-1-0.6-1.5-0.7c-0.5-0.1-1.1-0.6-1.5-0.3
							c-0.3,0.3,0.1,0.9,0.3,1.4c0.1,0.3,0.2,0.8-0.2,0.9c-0.4,0.1-0.4-0.4-0.4-0.7c-0.2-1.2-0.3-2.3-1.6-2.9
							c-0.3-0.1-0.5-0.3-0.8-0.3c-0.9-0.2-1.4-0.7-1.4-1.7c0-0.5,0-0.9,0.2-1.4c0.4-1.4,0.7-1.6,2.3-1.2c-0.6-1.2,0-2.9-2-3.1
							c-0.1,0-0.1-0.1-0.2-0.1c-0.4-0.8-1.3-1.1-2-1.7C19.4,26.6,18.5,25.9,17.8,24.8 M20.3,21.6c0.2-0.5,0.2-1,0.4-1.5
							c0.4-1.3,1.1-2,2.5-2.2c1.9-0.3,3.8-1.1,5.8-0.8c1.3,0.1,2.5,0.3,3.8,0.2c0.5,0,0.8-0.7,1.3-0.4c0.8,0.4,1.4,0.1,2.1,0
							c1.4-0.3,2.7-0.2,3.8,0.7c0.5,0.4,0.6,0.2,0.9-0.2c1.1-1.7,1-3.5,0.2-5.2c-0.7-1.5-1.4-2.9-1.5-4.6c0-0.8-0.3-1.5-0.6-2.3
							c-0.5-1.2-1-2.4-1.4-3.6c-0.3-0.7-0.6-1.6-1.4-1.9c-1.6-0.5-3.2-1.1-4.9-0.8c-0.7,0.1-1.4,0.3-2.2,0.4
							c-2.4,0.3-4.1,1.6-5.1,3.6c-0.7,1.4-1.2,2.9-1.3,4.6c0,1.1-0.3,2.2-0.4,3.3c-0.1,2.2-1.8,3.8-2.2,5.9
							C19.6,18.5,19.4,20.1,20.3,21.6 M38.5,52.3c-0.4-0.4-0.9-0.3-1.3-0.1c-0.6,0.4-1.3,0.8-1.9,1.2c-0.4,0.3-0.3,0.5,0,0.7
							c0.7,0.5,1.5,0.3,2.2,0.7c0.2,0.1,0.3-0.2,0.3-0.4c0-0.3-0.1-0.6-0.2-0.9C37.2,52.3,37.2,52.3,38.5,52.3
							c-0.1,0.5,0.2,0.9,0.4,1.4c0.6,1.5,0.1,2.5-1.5,2.6c-0.9,0-0.6,0.6-0.8,1c-0.2,0.5,0.2,0.7,0.5,0.8c1.8,0.4,3.4,1.3,5.1,2
							c0.9,0.4,1,0.1,1.2-0.6c0.8-2.7,0.8-5.6,1.1-8.3c0.3-2.1,0.5-4.2-0.1-6.2c-0.1-0.5-0.1-1-0.2-1.6c-0.1-2.3,0.4-4.7,0.3-7
							c-0.2-4.1,0-8.3-0.7-12.4c-0.1-0.5-0.1-1-0.2-1.5c-0.1-0.5-0.2-1-0.6-1.4c0,1.6-0.6,2.9-1.4,4.2c-0.6,1.1-1.4,2.2-3,2.4
							c-0.5,0-0.9,0.4-1.3,0.8c-0.5,0.7-0.4,1.8,0.2,2c1,0.3,1.6,0.9,2.2,1.7c0.4,0.6,0.6,1.3,0.1,1.8c-0.3,0.4-0.2,1.7-1.4,0.9
							c0,0-0.2,0.2-0.4,0.2c-0.1,0.1-0.3,0.2-0.3,0c-0.3-1-0.8-0.2-1.1-0.1c-0.8,0.3-1.6,0.7-2.4,0.9c-0.6,0.1-1.1,0.4-1.6,0.9
							c1.3,0.2,2.3,1,3.5,1.3c0.6,0.2,1.2,0.7,1.9,0.1c0.2-0.2,0.5,0,0.7,0.3c0.6,1,0.5,2.9-0.2,3.8c-0.2,0.2-0.5,0.6-0.8,0.2
							c-0.3-0.4-0.8-0.8-0.3-1.5c0.2-0.4,0.4-0.8,0.3-1.3c-0.3,0.1-0.4,0.4-0.5,0.6c-0.8,1.1-1.1,1.3-2.5,1c-0.3-0.1-0.7-0.2-1-0.3
							c-1.5-0.4-1.8-0.3-2.8,0.8c-0.4,0.5-0.4,0.7,0.3,0.7c1.3,0.1,2.5,0.3,3.7,0.7c0.5,0.1,0.9,0.3,1.3-0.3
							c0.2-0.4,0.7-0.1,0.8,0.2c0.5,1.1,0.7,2.2,0.5,3.3c0,0.3-0.3,0.5-0.5,0.1c-0.2-0.4-0.7-0.4-1-0.3c-0.8,0.3-1.6,0.8-2.6,1.3
							c1.4,0.1,2.5,0.1,3.6,0.2c0.1,0,0.2,0,0.2-0.1c0.1-0.3,0.2-0.7,0.7-0.5c0.4,0.2,0.6,0.6,0.7,1.1c0.1,0.9-0.1,1.7-0.6,2.4
							c-0.2,0.3-0.3,0.6,0.2,0.6c0.3,0,0.7,0,0.5,0.5C39.2,52,39.1,52.5,38.5,52.3 M44.1,11.4c0,2.1,0,4.2,0,6.3
							c0,0.2,0,0.4-0.1,0.4c-0.9,0.8-0.3,1.8-0.1,2.6c0.7,2.6,1.2,5.3,1.1,8c-0.1,2.3,0.2,4.5,0.3,6.8c0,0.6,0.1,1.1-0.1,1.7
							c-0.6,2.7-0.6,5.4-0.1,8.1c0.4,2.1,0.2,4.2-0.1,6.2c-0.3,2.7-0.3,5.5-1.1,8.2c-0.4,1.3-0.8,2.6-1.2,3.9
							c-0.1,0.4-0.5,0.7-0.7,1c-0.2,0.4-1.2,0.5-0.5,1.3c0.1,0.1-0.2,0.3-0.4,0.4c-0.6,0.3-0.9,0.9-1.3,1.4
							c-0.8,1.2-1.9,2.2-3.3,2.9C36.2,71,35.7,71,35.3,71c-1.2-0.2-2.4,0-3.6,0c-1.4,0-2.6-0.2-3.7-1.1c-2.4-2.1-4.5-4.5-6.4-7
							c-1.3-1.7-1.9-3.7-2.9-5.5c-0.2-0.4-0.3-0.9-0.7-1.2c-0.1-0.1-0.2-0.2-0.2-0.4c0.3-1.7-0.5-3.2-0.9-4.7
							c-0.6-2.1-1-4.3-1.6-6.4c-0.5-1.9-0.1-4,0-6c0.3-3.9,0.6-7.7,1.4-11.5c0.5-2.6,0.7-5.2,1.3-7.7c0.1-0.6,0.1-1.3,0-1.9
							c-0.4-2,0.2-3.9,0.3-5.9c0-0.4,0.2-0.9,0.4-1.2c1.7-2.1,2.2-4.9,3.5-7.1c0.4-0.7,1-1.3,1.6-1.9c2.3-2,5-2.8,7.9-2.9
							c3.4-0.2,6.2,0.9,8.1,3.9c1,1.6,2.1,3.3,3.5,4.7c0.8,0.8,0.9,1.8,1,2.9c0,0.5,0,1,0,1.5C44.2,11.4,44.1,11.4,44.1,11.4"/>
					</g>
					<g id="Group-6_11_" transform="translate(34.000000, 0.000000)">
						<defs>
							<filter id="Adobe_OpacityMaskFilter_1_" filterUnits="userSpaceOnUse" x="15.6" y="-1.7" width="28.1" height="74.4">
								<feColorMatrix  type="matrix" values="1 0 0 0 0  0 1 0 0 0  0 0 1 0 0  0 0 0 1 0"/>
							</filter>
						</defs>
						<mask maskUnits="userSpaceOnUse" x="15.6" y="-1.7" width="28.1" height="74.4" id="mask-5_1_">
							<g class="st3">
								<polygon id="path-4_1_" class="st1" points="15.6,-1.7 43.7,-1.7 43.7,72.7 15.6,72.7 								"/>
							</g>
						</mask>
						<path id="Fill-4_11_" class="st4" d="M24.1,67c0.3,0.2,0.6,0.3,0.9,0.2c0.3-0.1,0.7,0,0.6-0.4c0-0.4-0.4-0.2-0.7-0.2
							C24.7,66.7,24.4,66.7,24.1,67 M32.7,38.8c-0.1-0.4,0.2-1-0.5-1.1c-0.4-0.1-1-0.2-1.3,0.3c-0.2,0.5,0.5,0.7,0.7,1.1
							c0,0.1,0.1,0.1,0.1,0.1c0.2,0.2,0.4,0.7,0.7,0.6C32.8,39.6,32.7,39.2,32.7,38.8 M26.8,30.8c0.8,0.4,1.9,0.2,2.5,0.9
							c0.6,0.6,1.2,0.4,2,0.3c-0.6-0.7-1.4-0.6-2-1.1C28.5,30,27.8,30.1,26.8,30.8 M26.1,1.1C26.4,1,26.7,0.9,27,0.9
							c0.7-0.1,0.8-0.7,0.8-1.2c0-0.5-0.6-0.2-0.9-0.2c-0.3,0-0.7,0.1-1,0.2C25.4-0.2,25,0,25.1,0.6C25.1,1.3,25.7,0.9,26.1,1.1
							 M41.5,25.2c0,2.7,0.1,5.4,0.5,8.1C42.2,30.6,42.1,27.9,41.5,25.2 M21,2.1c1-0.2,1.9-0.3,2.8-0.8c0.5-0.3,0.7-0.8,0.6-1.2
							c-0.2-0.6-0.7-0.2-1.1-0.2C22.1,0.2,21.4,1,21,2.1 M28.9,49.5c-0.7-0.4-1.4-0.6-1.8-1.1c-0.7-0.8-1.3-0.6-2.1,0
							c0.4,0.4,0.8,0.7,1.1,1c1.1,1.3,0.7,1.5,2.4,0.4C28.5,49.7,28.6,49.6,28.9,49.5 M28.9,32.1c-0.6-0.6-1.3-0.5-1.9-0.6
							c-1.5-0.3-1.6-0.2-2,1.2c0,0.1-0.1,0.2-0.1,0.4c-0.1,0.2-0.2,0.4,0,0.5c0.2,0.1,0.4,0,0.5-0.1C26.5,32.9,27.6,32.5,28.9,32.1
							 M33.4,1.7c-0.3-1.3-0.9-2-2-2.1c-0.7-0.1-1.5-0.1-2.2-0.1c-0.3,0-0.5,0.2-0.6,0.5c-0.4,0.9,0.1,1.4,1.2,1.3
							C30.9,1,32.1,0.8,33.4,1.7 M19.4,4.6c-2.6,2.8-1.8,6.1-2,9.4c0.9-0.9,1.2-1.9,1.3-3c0-1.4,0.2-2.7,0.6-4
							C19.3,6.3,19.3,5.6,19.4,4.6 M31.8,44.9c-0.4-0.1-0.2-0.8-1-0.7c-1.1,0.1-2,0.6-3,1c-1.7,0.7-3.5,1.3-5,2.3
							c-0.4,0.3-1.2,0.6-0.9,1.1c0.4,0.7,0.9-0.2,1.3-0.3c0.1,0,0.1,0,0.2-0.1c2.5-1.2,5.1-2.2,7.8-3C31.4,45.3,31.8,45.4,31.8,44.9
							 M42.1,38.3c0.2,2.9,0,5.8,0,8.7c0,2.6-0.4,5.3-1.7,7.6c-0.5,0.9-0.4,1.4,0.5,1.8c0.7-1.9,1.4-3.8,1.7-5.8
							c0.1-0.7,0.2-1.4,0.2-2.1c-0.1-1.8-0.2-3.5-0.3-5.3C42.4,41.6,42.5,39.9,42.1,38.3 M22.2,20.1c-1.3,0.4-1.9,0.9-2,1.6
							c-0.2,1.5-0.3,2.9,0.1,4.4c0.1,0.5,0.3,0.7,0.8,0.6c1.3-0.2,1.4-0.3,1.3-1.5C22.3,23.5,22.5,21.8,22.2,20.1 M35,20.7
							c0-0.4-0.2-1-0.9-1.5c-1.1-0.7-2.2-0.5-3.3-0.5c-0.2,0-0.5,0.1-0.6,0.2c-0.1,0.2,0.1,0.5,0.3,0.6c0.7,0.4,0.8,1.1,1,1.8
							c0.2,0.6-0.1,1.6,0.6,1.8c0.6,0.2,1.3-0.5,1.9-0.9c0.2-0.1,0.5-0.3,0.7-0.5C35,21.5,35.1,21.3,35,20.7 M24.3,27.4
							c0.1,0.4,0,0.7-0.3,0.7c-0.4,0.1-0.5-0.3-0.4-0.6c0.2-0.8-0.3-0.8-0.8-0.6c-0.4,0.1-0.8,0.3-1.1,0.4c-1,0.2-1,0.7-0.7,1.5
							c0.1,0.1,0.2,0.3,0.2,0.4c0,0.5,0.3,0.5,0.7,0.3c2.1-1,4.1-1.9,6.4-2.4c0.9-0.2,0.8-0.8,0.5-1.3c-0.2-0.6-0.7-0.8-1.3-0.5
							c-0.6,0.4-1.3,0.7-2,0.7C24.4,26.1,24,26.5,24.3,27.4 M25.5,30.5c2.1-0.7,4.3-1.4,6.4-2.3c0.5-0.2,0.1-1,0-1
							c-0.5,0.1-0.9-0.4-1.4-0.2c-2.5,0.7-5,1.4-7.4,2.4c-0.4,0.2-0.6,0.4-0.9,0.7c-0.4,0.4-0.2,1-0.1,1.3c0.2,0.4,0.6-0.2,0.9-0.1
							C23.9,31.5,24.3,29.9,25.5,30.5 M24,54.8c0.1,0,0.3-0.1,0.4-0.1c2.3-0.6,4.4-1.5,6.5-2.6c1.2-0.6,1.2-0.6,0.7-1.8
							c-0.4-1.2-0.9-1.3-2-0.7c-1.1,0.6-1.9,1.5-3,2c-1.1,0.6-2.2,1.2-3.1,2.1c-0.1,0.1-0.4,0.3-0.2,0.5
							C23.5,54.5,23.6,54.8,24,54.8 M26.4,35.9c0-0.3-0.7-0.5-0.3-0.9c0.3-0.3,0.6,0,0.9,0.1c0.3,0.1,0.5,0.3,0.9,0.2
							c1-0.3,2-0.7,3-1c0.4-0.1,0.8-0.7,0.6-0.8c-0.3-0.3-0.3-1-1-0.9c-3.6,0.2-6.6,1.8-9.3,4.2c-0.3,0.3-0.2,1.3,0,1.2
							c0.4-0.2,1.4,0.2,1.1-0.8c-0.1-0.3,0.2-0.5,0.4-0.4C24.1,37.3,25.2,36.3,26.4,35.9 M20.6,41.4c-0.6,0.3-1,0.7-0.6,1.1
							c0.4,0.3,0.4,1.5,1.3,0.9c0.8-0.5,1.5-0.8,2.4-0.9c0.9-0.1,1.6-0.7,2.5-0.9c1.6-0.4,3.2-1,4.8-1.6c0.1,0,0.3-0.1,0.3-0.3
							c0-0.2-1.5-1.4-1.7-1.4c-0.7-0.2-1.2,0.6-1.7,0.6c-1.2-0.1-2.1,0.6-3,1.1c-1.2,0.6-2.4,1.4-3.6,2.1
							C20.6,42.4,20.3,42.2,20.6,41.4 M27.3,45c-1.6-0.5-3.1-0.6-4.5-1.4c-0.4-0.2-1,0.4-0.9,0.7c0.4,0.8-0.2,1.3-0.6,1.4
							c-0.5,0.2-1.2,0.3-1.6-0.3c-0.7-0.9-0.7-3.3-0.1-4.2c0.3-0.5,0.8-0.8,1.3-0.3c0.2,0.2,0.4,0.3,0.7,0.1
							c1.6-0.9,3.3-1.7,5.1-2.7c-1-0.5-1.8-1-2.8-0.9c-1.1,0.2-2,1-2.9,1.6c-0.8,0.5-1.2,0.7-1.5-0.2c-0.4-1-0.4-2,0-3
							c0.2-0.4,0.5-0.7,0.8-0.2c0.3,0.5,0.6,0.4,1,0.1c0.5-0.4,1-0.7,1.6-0.9c1.3-0.4,1.4-1.6,1.6-2.7c0-0.2,0.1-0.5-0.1-0.7
							c-0.2-0.1-0.4,0-0.6,0.1c-1.1,0.6-2.3,1-3.6,1.3c-0.4,0.1-0.4-0.1-0.5-0.2c-0.4-0.9-0.2-1.9,0.5-2.7c0.3-0.3,0.3-0.4,0.2-0.8
							c-0.2-1-1.2-1.6-1.1-2.7c0-0.1-0.2-0.2-0.3-0.3c-0.5-0.5-1.1-1-1.4-1.7c-0.1-0.2-0.1-0.4-0.4-0.3c-0.3,0-0.2,0.3-0.3,0.4
							c-0.1,0.7-0.1,1.4-0.1,2.1c-0.3,3.7-0.8,7.3-1,11c-0.1,1.4,0.2,2.8,0.2,4.2c0,2.7-0.1,5.5,0.5,8.2c0.8,3.7,1.7,7.3,2.6,10.9
							c1.2-0.4,2.3-1.2,3.6-1.5c1-0.3,1.7-1,1.6-2.2c-0.1-0.5,0.4-1.1-0.2-1.7c-0.4,0.5-0.7,1.3-1.5,0.9C22,56,21.8,54.9,21.8,54
							c-0.1-0.9,0.7-0.2,1-0.5c0,0,0.1,0,0.1,0c1-0.9,2.2-1.4,3.2-2.1c0.2-0.1,0.4-0.2,0.2-0.5c-0.5-0.6-0.9-1.2-1.4-1.6
							c-0.5-0.4-1.1-0.1-1.6,0.1c-0.1,0-0.3,0.1-0.2,0.3c0.6,1-0.5,1.1-0.9,1.4c-0.5,0.3-1.1,0-1.4-0.5c-0.5-0.7-0.6-1.5-0.4-2.3
							c0-0.3,0.1-1,0.8-0.4c0.2,0.2,0.3,0.1,0.5-0.1c0.5-0.7,1.3-0.9,2.1-1.2C24.7,46,25.9,45.5,27.3,45 M19.4,25.5
							c0.1-1.4,0.1-2.5,0.2-3.7c0-0.8,0.4-1.3,1-1.7c0.8-0.5,1.6-0.9,2.6-1c2.7-0.3,5.3-0.9,8.1-1c1.8-0.1,3.5,0.1,4.4,2.1
							c0.2-1,0.4-1.8,0.3-2.6c-0.5-3-0.8-6-0.7-9.1c0-1.9-0.5-3.8-2.2-5.1c-0.2-0.2-0.5-0.4-0.6-0.7c-0.1-0.9-0.8-0.8-1.4-0.9
							c-0.4,0-0.8,0-1.1,0.1c-1.1,0.3-2.1-0.2-3.2-0.1c-1.7,0.1-3.2,0.5-4.7,1.1c-1,0.3-1.8,0.8-1.9,2c-0.3,1.9-0.6,3.9-0.7,5.8
							c-0.1,1.4-0.4,2.7-1.4,3.8c-1,1.1-1,2.5-0.9,3.8c0.1,1.8,0.7,3.6,1.1,5.3C18.2,24.2,18.6,24.9,19.4,25.5 M30,43.9
							c0.6-1,1.5-0.8,2.3-0.5c1.2,0.4,1.5,1.3,0.7,2.3c-0.1,0.2-0.2,0.4-0.2,0.6c0,0.2-0.1,0.5-0.4,0.4c-0.3,0-0.4-0.2-0.4-0.5
							c0-0.4-0.1-0.5-0.5-0.4c-1.5,0.4-3,0.9-4.5,1.6c1,1.4,2.4,1.8,3.6,0.9c1.1-0.8,2.2-0.4,2.6,0.9c0.2,0.6,0.3,1.3,0.4,1.9
							c0.1,0.6-0.4,1.1-0.8,1c-0.8-0.1-1.4,0.2-2,0.5c-1.5,0.7-3,1.5-4.5,2c-0.8,0.3-1.2,0.7-1.1,1.7c0,0.8,0.3,1.7-0.2,2.5
							c-0.5,0.9-1.4,1.4-2.4,1.6c-1.2,0.3-2.1,0.9-3.1,1.6c0.3,0.3,0.5,0.1,0.6,0c2.3-0.8,4.4-1.7,7-1.5c2.4,0.2,4.8,0.3,7.1,1.1
							c1.8,0.6,1.8,0.6,2.6-1c0.2-0.3,0.3-0.7,0.5-1l0,0c0.8-1.6,1.6-3.2,2.3-4.9c0.5-1.3,1.1-2.5,1.4-3.8c0.5-2.3,0.5-4.6,0.5-6.9
							c0-3.2,0-6.3-0.2-9.5c-0.1-2.8-0.5-5.6-0.6-8.5c-0.1-2,0-4-0.3-6c-0.2-1.3-0.6-2.5-1.3-3.5c0.2,1-0.1,1.9-0.3,2.8
							c-0.1,0.3,0,0.6,0.1,0.9c0,0.4,0.1,0.8,0.1,1.1c0,0.2-0.1,0.4-0.3,0.4c-0.2,0-0.3-0.2-0.3-0.4c0-1.2-0.5-2.4,0-3.7
							c0.3-0.6,0.1-1.5,0-2.2c-0.4-2.2-0.5-4.4-1.1-6.6C36.8,7.5,37,6,35.9,5c-0.4-0.3-0.7-0.8-1-1.2c-0.4-0.6-1.1-1-1.7-1.1
							c1.9,1.5,2.5,3.6,2.5,5.7c0,3,0.3,5.9,0.7,8.9c0.1,1,0.5,2.1,0.1,3.2c-0.3,0.9-0.8,1.8-0.5,2.8c0.2,0.5,0.2,1,0.3,1.5
							c0,0.3,0,0.6-0.3,0.6c-0.4,0.1-0.3-0.3-0.4-0.5c-0.1-0.7-0.2-1.4-0.3-2c0-0.2-0.1-0.7-0.5-0.4c-1.6,1.1-3.5,1.7-5.2,2.6
							c-0.5,0.3-0.3,0.7-0.2,1.1c0,0.4,0.3,0.6,0.8,0.5c0.8-0.2,1.5-0.3,2.1-1c0.4-0.4,0.9-0.6,1.1,0.1c0.2,0.7,0.3,1.5,0.4,2.2
							c0.1,0.7-0.5,1.2-1,1.1c-1.3-0.3-2.3,0.5-3.6,0.8c1.1,0.8,2,1.4,3.2,1.7c0.3,0.1,0.6,0.3,0.8,0.6c0.7,0.9,0.2,2.7-0.9,3.2
							c-0.4,0.2-0.9,0.5-1.1-0.2c-0.1-0.2-0.3-0.2-0.4-0.2c-0.7,0.2-1.5,0.3-2.1,0.8c0.3,0.4,0.8,0.5,1.1,0.8
							c0.1,0.1,0.3,0.3,0.2,0.5c-0.1,0.2-0.3,0.1-0.4,0c-0.1-0.1-0.3-0.1-0.4-0.2c-1.3-1.2-2.5-0.6-3.8,0.1c1.8,1.4,3.7,1,5.5,0.1
							c0.9-0.4,2.2-0.1,2.5,0.7c0.3,1.2,0,2.3-0.4,3.4c-0.2,0.5-1.5,0.9-1.8,0.7c-0.5-0.5,0-0.8,0.2-1.2c0,0,0-0.1-0.1-0.2
							c-1.3,0.4-2.7,0.9-4.2,1.4c0.8,0.4,1.4,0.6,2,0.8C29.7,42.7,30.2,43,30,43.9c-0.8-0.7-1.9-0.8-2.8-1.3
							c-1.3-0.6-2.4-0.1-3.5,0.5C25.8,43.7,27.7,45,30,43.9 M42.6,28.4c0.3,2.5-0.1,5.3,0.1,8.2c0.1,1.8,0.4,3.5,0.7,5.3
							c0.1,0.8,0.7,1.6,0,2.5c-0.2,0.3-0.2,0.7-0.1,1.1c0.6,3.5-0.2,6.8-1.4,10.1c-0.6,1.8-1.2,3.6-1.9,5.4
							c-0.8,2.1-1.5,4.1-2.9,5.8c-1,1.3-1.8,2.9-3.2,4c-2.1,1.5-4.5,2.2-7.1,1.9c-2-0.3-3.8-0.9-5-2.7c-0.9-1.3-1.4-2.8-2.1-4.2
							c-0.8-1.4-0.5-3-0.9-4.4c-0.8-2.7-1.3-5.6-2-8.3c-0.4-1.6-0.7-3.1-0.8-4.7c-0.2-3.4-0.5-6.9-0.4-10.3
							c0.1-3.7,0.6-7.4,0.8-11.1c0.2-2.8,0.4-5.7,0-8.5c-0.2-1.2-0.2-2.5,0.1-3.8c0.3-1.2,0.3-2.5,0.3-3.8c-0.1-2.2,0.7-4,1.7-5.9
							c0.7-1.4,1.7-2.7,2.5-4c0.8-1.3,1.9-1.7,3.3-1.8c1.1-0.1,2.2-0.1,3.3-0.2c0.6,0,1.1-0.2,1.7-0.5c0.5-0.3,0.7,0.7,1.4,0.5
							c0.4-0.1,0.9,0,1.4,0c0.8,0.1,1.4,0.4,1.7,1.2c0.8,1.7,1.5,3.3,2.9,4.6c1.2,1.1,1,2.7,1.4,4.1c0.3,1.2,0.5,2.5,0.7,3.8
							c0.2,1.1,0.6,2.2,1.1,3.2c1.2,2.2,1.4,4.7,1.9,7.1c0.2,1,0.3,1.9,0.8,2.8C42.7,26.4,42.5,27.2,42.6,28.4"/>
					</g>
					<path id="Fill-7_11_" class="st1" d="M25.4,18c-0.1,0.6,0.3,1.6,0.4,2.6c0,0.3,0.2,0.7,0,1c-0.1,0.2-0.2,0.4-0.5,0.4
						c-0.2-0.1-0.2-0.2-0.2-0.4c-0.3-3.3,0.1-6.5,0.4-9.8c0-0.6,0.1-1,1-0.8c1.3,0.2,2.6-0.6,3.9-0.6c0.3,0,0.5-0.1,0.8-0.1
						c1.9-0.4,2.6,0,3.4,1.8c0.7,1.8,1,3.7,1,5.6c0,1.1,0.4,2.1,0.4,3.2c0,0.2,0.1,0.6-0.2,0.6c-0.4,0.1-0.4-0.3-0.4-0.6
						c-0.2-1.9-0.4-3.9-0.6-5.8c-0.1-1.1-0.4-2.3-1-3.3c-0.4-0.8-1.1-1.1-1.9-1c-1.8,0.2-3.6,0.8-5.4,1c-0.3,0-0.4,0.2-0.5,0.5
						C25.9,14,25.4,15.7,25.4,18"/>
					<path id="Fill-9_11_" class="st1" d="M71,60.2c-1.4,1.2-3,0.9-4.6,0.5c-1.6-0.4-3.1-1-4.7-1.4c-0.7-0.2-0.8-0.5-0.7-1.1
						c0.2-0.9,0.5-1.7,0.5-2.6c0-0.4,0.2-0.7,0.5-0.7c0.5,0,0.2,0.5,0.2,0.8c0,0.1-0.1,0.2-0.1,0.3c-0.5,2.3-0.2,2.8,2.1,3.3
						c0.9,0.2,1.7,0.5,2.6,0.8c1,0.3,2.1,0,3.2-0.1C70.5,59.9,70.7,60,71,60.2C71,60.2,71,60.2,71,60.2"/>
					<path id="Fill-11_11_" class="st1" d="M56.8,13.7c-0.1,1-0.1,1.9-0.2,2.8c0,0.6,0.2,1.1,0.4,1.7c0.1,0.3,0.2,0.7-0.2,0.8
						c-0.6,0.1-0.2-0.4-0.3-0.6c-1.1-2.7-0.3-5.4,0.1-8.1C56.7,9.6,57,8.8,57.2,8c0.1-0.4,0.3-0.7,0.8-0.6c1.8,0.4,3.6-0.1,5.3-0.3
						C65,6.9,65,6.9,65.4,8.3c0.2,0.7,0.2,1.4,0.1,2.1c-0.1,2.1,0.2,4.2,0.4,6.3c0,0.4,0,0.7-0.4,0.8c-0.5,0-0.3-0.4-0.4-0.7
						c-0.2-2.4-0.3-4.8-0.3-7.2c0-0.2-0.1-0.4-0.1-0.6c-0.2-1.2-0.4-1.4-1.7-1.2c-1.5,0.2-3,0.4-4.5,0.5c-0.5,0-0.6,0.3-0.7,0.6
						C57.2,10.5,56.6,12,56.8,13.7"/>
				</g>
			</g>
		</g>
	</g>
</g>
</svg>
