<?xml version="1.0" encoding="utf-8"?>
<!-- Generator: Adobe Illustrator 16.0.0, SVG Export Plug-In . SVG Version: 6.00 Build 0)  -->
<!DOCTYPE svg PUBLIC "-//W3C//DTD SVG 1.1//EN" "http://www.w3.org/Graphics/SVG/1.1/DTD/svg11.dtd">
<svg version="1.1" id="Layer_1" xmlns="http://www.w3.org/2000/svg" xmlns:xlink="http://www.w3.org/1999/xlink" x="0px" y="0px"
	 width="100px" height="78px" viewBox="0 0 100 78" enable-background="new 0 0 100 78" xml:space="preserve">
<g id="Page-1">
	<g id="Nairobi-Stay" transform="translate(-786.000000, -845.000000)">
		<g id="filters" transform="translate(168.000000, 785.000000)">
			<g id="shop_11_" transform="translate(622.000000, 62.000000)">
				<g>
					<g id="Group-3_11_" transform="translate(0.000000, 5.000000)">
						<defs>
							<filter id="Adobe_OpacityMaskFilter" filterUnits="userSpaceOnUse" x="15" y="-1.552" width="30.275" height="72.545">
								<feColorMatrix  type="matrix" values="1 0 0 0 0  0 1 0 0 0  0 0 1 0 0  0 0 0 1 0"/>
							</filter>
						</defs>
						<mask maskUnits="userSpaceOnUse" x="15" y="-1.552" width="30.275" height="72.545" id="mask-3_11_">
							<g filter="url(#Adobe_OpacityMaskFilter)">
								<polygon id="path-2_11_" fill="#FFFFFF" points="15,-1.552 45.275,-1.552 45.275,70.993 15,70.993 								"/>
							</g>
						</mask>
						<path id="Fill-1_11_" mask="url(#mask-3_11_)" fill="#231F20" d="M40.142,60.033c-1.367-0.729-1.491-0.76-2.156-0.506
							C38.766,59.438,39.136,60.778,40.142,60.033 M36.609,67.174c-0.911-0.51-1.405,0.08-1.909,0.643
							C35.356,67.672,36.055,67.643,36.609,67.174 M29,67.617c-0.544-0.645-1.225-0.842-1.58-1.429
							C27.075,66.961,27.526,67.393,29,67.617 M32.263,50.971c0.97,0.91,1.657,0.862,2.44-0.02
							C33.94,50.867,33.203,51.156,32.263,50.971 M40.503,65.241c1.08-0.892,1.808-1.853,2.05-3.124
							c0.197-1.035,0.129-1.129-1.118-1.329C42.985,62.623,40.814,63.676,40.503,65.241 M39.041,61.344
							c-0.812,0.604-1.49,1.09-2.143,1.606c-0.195,0.154-0.495,0.463-0.128,0.638c0.548,0.262,1.17,0.523,1.584-0.3
							C38.627,62.747,39.03,62.267,39.041,61.344 M27.592,41.369c0.861,0.321,1.542,0.605,2.325,0.586
							c0.872-0.021,1.343-0.711,1.629-1.243c0.207-0.383-0.701-0.458-1.105-0.663c-0.357-0.182-0.736-0.547-1.194-0.122
							C28.746,40.391,28.217,40.826,27.592,41.369 M35.45,46.022c-2.42-0.78-4.208,0.229-6.302,0.996
							C31.605,48.048,33.396,46.998,35.45,46.022 M42.198,16.269c-1.382,2.132-1.334,3.943,0.047,6.064
							c0.103-0.728,0.034-1.468,0.321-2.037C43.274,18.89,42.435,17.741,42.198,16.269 M37.753,51.12
							c-0.57-0.382-0.917,0.056-1.35,0.144c-1.828,0.371-3.273,1.459-4.843,2.303c-0.772,0.416-1.434,1.03-2.146,1.554
							c-0.24,0.177-0.306,0.381-0.137,0.646c0.114,0.177,0.28,0.189,0.385,0.056c0.45-0.577,1.211-0.442,1.779-0.791
							C33.53,53.748,35.691,52.58,37.753,51.12 M18.943,18.79c-0.079,0.009-0.158,0.018-0.237,0.027
							c-0.211,1.556-0.442,3.11-0.619,4.67c-0.032,0.285,0.092,0.624,0.241,0.884c0.642,1.116,1.544,1.999,2.766,2.873
							c-0.174-0.597-0.296-1.007-0.224-1.442c0.105-0.635,0.061-1.23-0.478-1.718c-0.167-0.151-0.223-0.437-0.292-0.67
							C19.649,21.89,18.726,20.496,18.943,18.79 M37.769,33.42c-0.019-1.146-0.752-1.628-1.657-1.23
							c-1.922,0.844-3.381,2.406-5.281,3.289c-0.136,0.063-0.261,0.192-0.206,0.369c0.102,0.33,1.428,0.732,1.645,0.473
							c0.501-0.602,1.206-0.782,1.909-0.953c0.804-0.196,1.605-0.403,2.326-0.802C37.053,34.263,37.566,33.885,37.769,33.42
							 M23.484,2.498c-0.555,0.468-0.712,1.018-1.009,1.473C21.54,5.402,21.371,7.2,20.37,8.563
							c-1.215,1.653-1.641,3.468-1.776,5.422c-0.057,0.809-0.24,1.613-0.108,2.426c0.036,0.219-0.033,0.563,0.298,0.609
							c0.325,0.046,0.378-0.258,0.471-0.492c0.378-0.955,0.742-1.912,1.329-2.778c0.553-0.816,0.772-1.759,0.943-2.721
							c0.482-2.713,0.379-5.559,1.871-8.048C23.453,2.887,23.44,2.754,23.484,2.498 M36.037,50.124
							c0.158-0.009,0.321-0.043,0.475-0.021c0.776,0.107,1.113-0.287,1.074-0.979c-0.032-0.596-0.555-0.729-1.044-0.817
							c-0.279-0.05-0.573-0.07-0.855-0.043c-2.795,0.262-5.524-0.339-8.28-0.582c-0.359-0.031-0.933-0.44-1.043,0.11
							c-0.105,0.521-0.014,1.216,0.683,1.481c0.382,0.146,0.789,0.237,1.192,0.318c0.775,0.156,1.588,0.063,2.347,0.344
							c1.414,0.523,2.864,0.479,4.322,0.236C35.284,50.109,35.653,50.002,36.037,50.124 M24.671,41.551
							c-0.319,0.08-0.832-0.181-0.9,0.398c-0.07,0.602-0.027,1.416,0.538,1.57c0.745,0.205,1.38,0.76,2.233,0.666
							c0.561-0.061,1.188-0.102,1.703,0.076c2.716,0.939,5.619,0.523,8.372,1.163c0.303,0.069,0.665,0.085,0.758-0.347
							c0.084-0.389-0.161-0.578-0.487-0.691c-1.317-0.461-2.661-0.865-4.04-1.055c-1.23-0.168-2.44-0.369-3.627-0.726
							C27.732,42.16,26.249,41.691,24.671,41.551 M29.495,59.742c2.32,0.477,4.467-0.703,6.779-0.95
							c-0.625-0.269-0.757-0.603-0.485-1.208c0.254-0.563,0.344-1.195,0.506-1.797c0.082-0.299,0.051-0.513-0.281-0.689
							c-1.841-0.975-1.835-0.982-3.631,0.094c-0.379,0.229-0.745,0.49-1.151,0.659c-0.509,0.212-0.585,0.501-0.315,0.935
							c0.387,0.623,0.258,1.158-0.251,1.665C30.247,58.867,29.87,59.324,29.495,59.742 M43.318,17.335
							c0.328-0.82-0.031-1.651,0.109-2.465c0.267-1.543,0.363-3.102,0.253-4.656c-0.068-0.974-0.096-2.021-0.878-2.782
							c-0.524-0.511-0.941-1.09-1.37-1.67c-1.056-1.429-1.924-2.994-3.189-4.286C39.994,6.745,41.538,12.064,43.318,17.335
							 M18.44,54.49c0.475-0.51,0.897-0.827,1.328-1.141c0.354-0.256,0.908-0.633,0.628-1.119c-0.778-1.351-0.923-2.898-1.558-4.303
							c-0.948-2.094-1.661-4.289-1.935-6.599c-0.18-1.518-0.626-2.995-0.673-4.704c-0.371,0.439-0.308,0.763-0.354,1.057
							c-0.237,1.486-0.077,2.992-0.206,4.484c-0.064,0.75-0.132,1.512,0.144,2.207c0.536,1.348,0.688,2.779,1.063,4.16
							C17.403,50.473,17.898,52.42,18.44,54.49 M35.466,40.508c0.232-0.032,0.328-0.061,0.422-0.057
							c0.69,0.028,1.246-0.238,1.322-0.926c0.073-0.65-0.631-0.549-1.021-0.725c-2.752-1.253-5.729-2.012-8.291-3.695
							c-0.988-0.648-2.026-1.229-3.261-1.46c-0.789-0.147-0.759,0.178-0.825,0.692c-0.208,1.642,1.213,2.387,2.181,2.939
							c1.207,0.691,2.55,1.502,4.11,1.455c0.225-0.007,0.353,0.123,0.353,0.35c0.001,0.322,0.248,0.438,0.491,0.488
							C32.495,39.902,34.046,40.215,35.466,40.508 M25.57,29.853c-1.355-0.208-1.142,0.379-1.005,0.946
							c0.109,0.453,0.242,0.911,0.263,1.371c0.026,0.555,0.323,0.863,0.791,1.044c1.22,0.472,2.325,1.158,3.477,1.757
							c0.251,0.13,0.485,0.31,0.799,0.158c0.826-0.398,1.677-0.754,2.479-1.194c1.494-0.82,2.669-2.137,4.339-2.692
							c0.356-0.118,0.234-0.291,0.145-0.611c-0.182-0.653-0.879-1.362-0.435-1.96c0.511-0.688,1.097-1.477,2.123-1.601
							c1.219-0.148,1.83-1.079,2.428-1.945c0.259-0.376,0.563-0.825,0.541-1.342c-0.054-1.221-0.376-2.381-0.817-3.52
							c-0.124-0.321-0.155-0.654-0.604-0.313c-0.127,0.097-0.27,0.176-0.42,0.028c-0.176-0.172-0.107-0.342,0.016-0.499
							c0.641-0.815,0.11-1.236-0.576-1.554c-0.722-0.335-1.486-0.514-2.278-0.361c0.229,1.154,0.787,2.22,0.659,3.397
							c-0.115,1.066,0.002,2.118,0.048,3.177c0.028,0.654,0.049,1.318-0.039,1.963c-0.1,0.725-0.419,1.258-1.36,1.198
							c-0.755-0.048-1.524,0.144-2.283,0.118c-0.978-0.033-1.826,0.608-2.804,0.469c-1.838-0.263-3.684-0.208-5.529-0.155
							c-0.714,0.021-1.021-0.249-1.251-0.955c-0.75-2.307-0.493-4.707-0.831-7.047c-0.045-0.31,0.133-0.833-0.294-0.877
							c-0.506-0.053-1.162-0.035-1.426,0.534c-0.568,1.224-1.022,2.461-0.691,3.876c0.33,1.414,0.86,2.808,0.675,4.306
							c-0.031,0.256,0.209,0.413,0.425,0.432C23.43,28.114,24.239,29.042,25.57,29.853 M17.772,24.822
							c-0.465,2.43-0.625,4.685-0.653,6.947c-0.032,2.636-0.454,5.239,0.1,7.918c0.627,3.033,1.311,6.001,2.558,8.861
							c0.579,1.327,0.987,2.739,1.546,4.091c1.123,2.715,2.177,5.457,3.468,8.102c0.085,0.174,0.161,0.363,0.41,0.278
							c1.981-0.669,3.822-1.548,5.011-3.35c0.271-0.409-0.04-0.927-0.329-0.815c-0.563,0.217-0.832-0.18-1.213-0.297
							c-1.484-0.455-2.04-2.326-1.073-3.509c0.12-0.146,0.224-0.309,0.461-0.24c0.553,0.161,0.844,0.845,0.58,1.364
							c-0.076,0.15-0.08,0.298,0.075,0.453c0.663-0.222,1.13-0.729,1.813-1.22c-1.13-0.438-1.621-1.418-2.433-2.065
							c-0.213-0.17-0.585-0.291-0.314-0.635c0.293-0.371,0.551-0.092,0.782,0.137c0.559,0.553,1.101,1.126,1.684,1.654
							c0.667,0.604,1.353,0.355,2.006-0.053c0.146-0.09,0.396-0.265,0.154-0.426c-0.651-0.436-1.024-1.28-1.859-1.404
							c-1.538-0.229-3.089-0.814-4.624,0.113c-0.595,0.359-1.132,0.06-1.414-0.514c-0.483-0.988-0.357-1.992,0.331-2.811
							c0.591-0.703,1.462-0.77,2.341-0.48c0.702,0.229,1.372,0.357,1.785-0.479c0.14-0.284,0.436-0.322,0.723-0.388
							c0.421-0.095,0.862-0.165,1.256-0.465c-2.348-0.637-4.666-1-7.049-0.932c-0.752,0.021-1.351-0.306-1.654-1.031
							c-0.323-0.775,0.137-2.523,0.787-3.043c0.196-0.157,0.466-0.242,0.613-0.107c0.475,0.434,1.08,0.329,1.623,0.454
							c1.246,0.284,2.942-0.479,3.671-1.641c-0.516-0.243-1.008-0.556-1.547-0.706c-0.496-0.139-1.104-0.646-1.475-0.295
							c-0.295,0.279,0.127,0.91,0.305,1.369c0.13,0.335,0.18,0.792-0.236,0.869c-0.416,0.078-0.39-0.416-0.428-0.695
							c-0.16-1.154-0.347-2.268-1.579-2.872c-0.25-0.123-0.466-0.27-0.758-0.329c-0.931-0.191-1.423-0.727-1.379-1.719
							c0.02-0.473,0.048-0.932,0.179-1.386c0.414-1.444,0.697-1.614,2.327-1.228c-0.596-1.188,0.038-2.925-2.042-3.087
							c-0.056-0.004-0.131-0.052-0.157-0.1c-0.44-0.811-1.346-1.101-1.976-1.708C19.365,26.627,18.507,25.905,17.772,24.822
							 M20.323,21.645c0.212-0.5,0.237-1.012,0.381-1.501c0.383-1.312,1.053-1.961,2.522-2.165c1.934-0.267,3.774-1.06,5.808-0.824
							c1.256,0.145,2.521,0.282,3.802,0.247c0.541-0.015,0.848-0.668,1.268-0.44c0.75,0.407,1.418,0.145,2.112-0.017
							c1.376-0.32,2.664-0.203,3.77,0.732c0.458,0.386,0.602,0.239,0.9-0.213c1.144-1.732,1.013-3.459,0.154-5.23
							c-0.709-1.462-1.44-2.916-1.545-4.578c-0.05-0.785-0.311-1.533-0.586-2.261c-0.452-1.196-0.952-2.374-1.39-3.578
							c-0.262-0.719-0.596-1.592-1.438-1.876c-1.589-0.536-3.202-1.059-4.933-0.78c-0.72,0.116-1.435,0.265-2.158,0.355
							c-2.364,0.296-4.073,1.558-5.13,3.573c-0.737,1.407-1.242,2.924-1.317,4.555c-0.05,1.087-0.314,2.164-0.375,3.25
							c-0.122,2.193-1.789,3.801-2.213,5.902C19.613,18.479,19.387,20.066,20.323,21.645 M38.465,52.329
							c-0.407-0.375-0.861-0.343-1.292-0.085c-0.648,0.389-1.264,0.831-1.91,1.224c-0.445,0.271-0.259,0.45,0.031,0.682
							c0.655,0.522,1.527,0.338,2.242,0.684c0.187,0.091,0.306-0.188,0.276-0.381c-0.049-0.306-0.125-0.609-0.214-0.905
							c-0.368-1.21-0.372-1.209,0.875-1.232c-0.146,0.54,0.184,0.958,0.374,1.412c0.622,1.486,0.074,2.514-1.542,2.586
							c-0.867,0.039-0.584,0.622-0.758,0.992c-0.236,0.506,0.153,0.707,0.534,0.783c1.83,0.361,3.448,1.25,5.088,2.039
							c0.912,0.438,0.992,0.099,1.19-0.608c0.766-2.729,0.775-5.552,1.138-8.329c0.272-2.082,0.461-4.162-0.061-6.234
							c-0.132-0.521-0.143-1.049-0.159-1.58c-0.071-2.344,0.443-4.701,0.33-6.984c-0.204-4.136,0.028-8.311-0.719-12.418
							c-0.089-0.491-0.103-0.994-0.202-1.482c-0.099-0.485-0.185-0.987-0.585-1.401c-0.018,1.568-0.628,2.945-1.361,4.239
							c-0.642,1.133-1.398,2.245-2.951,2.383c-0.518,0.046-0.943,0.376-1.262,0.786c-0.519,0.668-0.433,1.843,0.154,1.994
							c0.988,0.254,1.644,0.897,2.222,1.668c0.439,0.586,0.637,1.27,0.136,1.802c-0.34,0.36-0.185,1.702-1.367,0.894
							c-0.046-0.031-0.246,0.168-0.382,0.246c-0.102,0.059-0.281,0.176-0.324,0.028c-0.301-1.03-0.773-0.196-1.083-0.06
							c-0.783,0.346-1.555,0.696-2.403,0.873c-0.587,0.121-1.107,0.395-1.644,0.851c1.311,0.231,2.302,0.974,3.455,1.308
							c0.616,0.178,1.223,0.688,1.938,0.131c0.225-0.174,0.527,0.011,0.702,0.301c0.598,0.991,0.539,2.92-0.16,3.816
							c-0.187,0.239-0.477,0.572-0.751,0.162c-0.286-0.427-0.764-0.83-0.323-1.494c0.24-0.358,0.373-0.846,0.341-1.338
							c-0.312,0.085-0.381,0.357-0.515,0.554c-0.757,1.109-1.13,1.268-2.45,0.972c-0.339-0.076-0.674-0.172-1.008-0.27
							c-1.489-0.436-1.801-0.329-2.784,0.848c-0.377,0.451-0.407,0.652,0.277,0.734c1.257,0.149,2.512,0.325,3.734,0.691
							c0.45,0.135,0.934,0.309,1.304-0.33c0.235-0.404,0.714-0.072,0.836,0.214c0.451,1.058,0.727,2.169,0.55,3.327
							c-0.049,0.319-0.289,0.54-0.549,0.087c-0.236-0.41-0.684-0.438-0.999-0.31c-0.802,0.324-1.558,0.758-2.585,1.275
							c1.402,0.08,2.523,0.147,3.645,0.205c0.084,0.004,0.225-0.033,0.246-0.088c0.127-0.316,0.188-0.734,0.69-0.507
							c0.444,0.2,0.598,0.604,0.662,1.066c0.121,0.884-0.137,1.668-0.577,2.415c-0.174,0.297-0.34,0.573,0.224,0.633
							c0.269,0.027,0.669,0.042,0.537,0.458C39.165,52.002,39.056,52.473,38.465,52.329 M44.056,11.432
							c0,2.088,0.002,4.176-0.002,6.265c0,0.152,0.014,0.361-0.075,0.447c-0.878,0.843-0.316,1.755-0.094,2.602
							c0.693,2.644,1.154,5.328,1.077,8.048c-0.064,2.288,0.234,4.547,0.277,6.821c0.011,0.56,0.061,1.139-0.053,1.679
							c-0.568,2.697-0.57,5.41-0.115,8.102c0.356,2.104,0.191,4.173-0.071,6.244c-0.345,2.721-0.34,5.49-1.11,8.153
							c-0.382,1.318-0.808,2.624-1.219,3.935c-0.125,0.397-0.45,0.676-0.66,1.012c-0.231,0.374-1.187,0.543-0.483,1.293
							c0.1,0.106-0.192,0.279-0.354,0.369c-0.608,0.337-0.944,0.896-1.32,1.444c-0.844,1.232-1.925,2.238-3.28,2.926
							c-0.399,0.203-0.846,0.273-1.302,0.185c-1.2-0.231-2.398-0.018-3.599,0.004c-1.352,0.023-2.633-0.152-3.704-1.111
							c-2.375-2.13-4.463-4.479-6.387-7.023c-1.302-1.724-1.898-3.707-2.897-5.53c-0.224-0.409-0.333-0.876-0.747-1.161
							c-0.14-0.098-0.244-0.217-0.218-0.386c0.253-1.673-0.495-3.163-0.905-4.709c-0.566-2.138-1.049-4.296-1.573-6.44
							c-0.474-1.94-0.132-3.99,0.036-5.971c0.326-3.851,0.647-7.718,1.419-11.508c0.523-2.563,0.689-5.173,1.286-7.72
							c0.139-0.594,0.137-1.263,0.018-1.863c-0.394-1.988,0.249-3.912,0.292-5.871c0.009-0.417,0.16-0.907,0.418-1.23
							c1.7-2.135,2.153-4.855,3.543-7.134c0.447-0.732,0.966-1.331,1.62-1.91c2.256-1.994,4.992-2.778,7.875-2.926
							c3.359-0.172,6.222,0.911,8.102,3.924c1.023,1.639,2.068,3.283,3.464,4.674c0.782,0.78,0.858,1.846,0.959,2.869
							c0.049,0.495,0.008,0.999,0.008,1.499C44.207,11.431,44.131,11.431,44.056,11.432"/>
					</g>
					<g id="Group-6_11_" transform="translate(34.000000, 0.000000)">
						<defs>
							<filter id="Adobe_OpacityMaskFilter_1_" filterUnits="userSpaceOnUse" x="15.6" y="-1.691" width="28.13" height="74.366">
								<feColorMatrix  type="matrix" values="1 0 0 0 0  0 1 0 0 0  0 0 1 0 0  0 0 0 1 0"/>
							</filter>
						</defs>
						<mask maskUnits="userSpaceOnUse" x="15.6" y="-1.691" width="28.13" height="74.366" id="mask-5_11_">
							<g filter="url(#Adobe_OpacityMaskFilter_1_)">
								<polygon id="path-4_11_" fill="#FFFFFF" points="15.6,-1.691 43.73,-1.691 43.73,72.675 15.6,72.675 								"/>
							</g>
						</mask>
						<path id="Fill-4_11_" mask="url(#mask-5_11_)" fill="#231F20" d="M24.073,67.002c0.327,0.23,0.618,0.283,0.933,0.219
							c0.263-0.054,0.656-0.035,0.627-0.396c-0.035-0.438-0.428-0.223-0.666-0.198C24.674,66.657,24.359,66.691,24.073,67.002
							 M32.74,38.832c-0.135-0.397,0.174-1.019-0.511-1.149c-0.448-0.086-1.048-0.218-1.274,0.278
							c-0.246,0.541,0.454,0.725,0.68,1.104c0.031,0.053,0.08,0.098,0.129,0.137c0.228,0.194,0.355,0.66,0.668,0.561
							C32.804,39.644,32.664,39.172,32.74,38.832 M26.822,30.768c0.836,0.355,1.865,0.161,2.521,0.853
							c0.611,0.643,1.219,0.421,1.975,0.299c-0.596-0.674-1.412-0.638-1.965-1.129C28.52,30.049,27.834,30.069,26.822,30.768
							 M26.099,1.055c0.304-0.058,0.606-0.137,0.912-0.168c0.728-0.075,0.849-0.715,0.815-1.173
							c-0.032-0.463-0.607-0.216-0.94-0.233c-0.337-0.018-0.667,0.112-0.999,0.179c-0.535,0.108-0.895,0.326-0.834,0.897
							C25.126,1.25,25.738,0.875,26.099,1.055 M41.459,25.201c0.025,2.716,0.064,5.432,0.518,8.117
							C42.211,30.584,42.11,27.874,41.459,25.201 M21.01,2.107c1.013-0.225,1.928-0.313,2.768-0.787
							c0.547-0.309,0.721-0.774,0.57-1.231C24.165-0.47,23.6-0.157,23.24-0.069C22.133,0.201,21.445,0.969,21.01,2.107
							 M28.869,49.479c-0.701-0.367-1.377-0.6-1.846-1.111c-0.689-0.75-1.335-0.613-2.096,0c0.374,0.359,0.764,0.672,1.075,1.049
							c1.11,1.34,0.748,1.463,2.391,0.391C28.523,49.723,28.648,49.631,28.869,49.479 M28.906,32.14
							c-0.605-0.582-1.303-0.529-1.926-0.646c-1.523-0.285-1.576-0.227-1.981,1.219c-0.034,0.121-0.073,0.241-0.114,0.359
							c-0.061,0.178-0.158,0.379,0.013,0.523c0.169,0.144,0.357,0.015,0.517-0.075C26.479,32.92,27.629,32.533,28.906,32.14
							 M33.359,1.68c-0.252-1.343-0.887-1.957-1.974-2.129c-0.745-0.118-1.489-0.066-2.235-0.08
							c-0.327-0.005-0.508,0.158-0.629,0.451c-0.352,0.855,0.1,1.394,1.207,1.259C30.93,1.034,32.11,0.801,33.359,1.68
							 M19.356,4.637c-2.567,2.826-1.798,6.144-2.05,9.397c0.876-0.917,1.242-1.923,1.271-3.038c0.036-1.357,0.249-2.681,0.58-3.99
							C19.337,6.298,19.304,5.583,19.356,4.637 M31.846,44.924c-0.416-0.092-0.24-0.771-1.013-0.695
							c-1.122,0.112-2.036,0.631-3.006,1.047c-1.689,0.725-3.466,1.276-5.013,2.295c-0.381,0.25-1.205,0.557-0.891,1.115
							c0.369,0.652,0.859-0.19,1.323-0.25c0.06-0.008,0.116-0.045,0.173-0.071c2.523-1.169,5.1-2.204,7.774-2.976
							C31.416,45.324,31.775,45.368,31.846,44.924 M42.102,38.314c0.189,2.896-0.045,5.813-0.041,8.729
							c0.004,2.639-0.409,5.273-1.73,7.619c-0.502,0.892-0.365,1.359,0.514,1.834c0.672-1.941,1.361-3.84,1.744-5.838
							c0.137-0.713,0.207-1.413,0.165-2.149c-0.101-1.77-0.166-3.541-0.257-5.31C42.412,41.576,42.477,39.947,42.102,38.314
							 M22.225,20.09c-1.255,0.405-1.906,0.882-1.998,1.584c-0.19,1.466-0.311,2.931,0.068,4.396
							c0.121,0.47,0.258,0.689,0.805,0.622c1.303-0.163,1.429-0.264,1.329-1.486C22.291,23.502,22.453,21.788,22.225,20.09
							 M35.047,20.69c-0.03-0.448-0.207-1.042-0.868-1.494c-1.056-0.722-2.21-0.484-3.338-0.531
							c-0.192-0.008-0.505,0.086-0.564,0.221c-0.106,0.243,0.106,0.498,0.316,0.613c0.722,0.397,0.804,1.14,1.046,1.808
							c0.223,0.612-0.1,1.612,0.579,1.792c0.625,0.166,1.269-0.543,1.878-0.916c0.238-0.146,0.461-0.319,0.677-0.498
							C35,21.498,35.139,21.259,35.047,20.69 M24.271,27.406c0.089,0.386-0.015,0.658-0.344,0.709
							c-0.419,0.065-0.452-0.288-0.397-0.564c0.158-0.799-0.295-0.774-0.813-0.631c-0.39,0.108-0.754,0.33-1.147,0.398
							c-0.982,0.17-0.995,0.732-0.666,1.476c0.063,0.144,0.166,0.286,0.175,0.434c0.034,0.536,0.284,0.514,0.675,0.328
							c2.06-0.975,4.143-1.907,6.369-2.42c0.905-0.209,0.753-0.773,0.543-1.31c-0.217-0.556-0.666-0.809-1.273-0.469
							c-0.63,0.352-1.307,0.694-2.004,0.732C24.403,26.144,23.971,26.45,24.271,27.406 M25.47,30.511
							c2.091-0.729,4.254-1.443,6.38-2.253c0.525-0.2,0.072-1.012-0.004-0.994c-0.51,0.117-0.869-0.375-1.371-0.234
							c-2.497,0.697-4.992,1.394-7.373,2.447c-0.354,0.157-0.626,0.384-0.892,0.66c-0.41,0.426-0.21,0.97-0.081,1.313
							c0.153,0.408,0.561-0.16,0.858-0.12C23.943,31.455,24.297,29.903,25.47,30.511 M23.956,54.782
							c0.122-0.037,0.27-0.089,0.42-0.128c2.271-0.6,4.438-1.465,6.517-2.563c1.158-0.611,1.162-0.604,0.734-1.791
							c-0.438-1.208-0.864-1.327-2.022-0.707c-1.069,0.57-1.901,1.463-2.992,2.029c-1.095,0.566-2.192,1.211-3.089,2.108
							c-0.148,0.146-0.398,0.282-0.213,0.538C23.467,54.488,23.576,54.789,23.956,54.782 M26.361,35.948
							c-0.037-0.343-0.678-0.485-0.256-0.884c0.309-0.293,0.584-0.036,0.859,0.069c0.287,0.11,0.54,0.316,0.885,0.198
							c1.004-0.347,2.013-0.681,3.02-1.019c0.408-0.136,0.754-0.684,0.617-0.805c-0.332-0.295-0.301-0.961-0.978-0.929
							c-3.642,0.176-6.613,1.835-9.271,4.193c-0.315,0.28-0.164,1.303,0.021,1.193c0.392-0.232,1.35,0.222,1.117-0.848
							c-0.063-0.286,0.188-0.456,0.398-0.377C24.147,37.253,25.157,36.284,26.361,35.948 M20.575,41.371
							c-0.643,0.279-1.042,0.71-0.606,1.113c0.357,0.332,0.382,1.521,1.285,0.865c0.756-0.549,1.541-0.846,2.441-0.925
							c0.916-0.08,1.637-0.688,2.514-0.919c1.627-0.43,3.209-1.027,4.809-1.557c0.146-0.048,0.305-0.099,0.287-0.304
							c-0.016-0.185-1.515-1.374-1.725-1.419c-0.727-0.158-1.244,0.623-1.706,0.604c-1.216-0.054-2.062,0.627-3.003,1.102
							c-1.249,0.628-2.433,1.388-3.643,2.095C20.566,42.414,20.338,42.228,20.575,41.371 M27.289,44.95
							c-1.609-0.55-3.132-0.635-4.463-1.366c-0.375-0.207-1.021,0.39-0.855,0.7c0.414,0.776-0.188,1.253-0.648,1.409
							c-0.48,0.164-1.211,0.263-1.645-0.32c-0.684-0.917-0.709-3.258-0.055-4.168c0.349-0.484,0.793-0.767,1.326-0.262
							c0.237,0.225,0.416,0.31,0.727,0.146c1.648-0.869,3.309-1.722,5.113-2.657c-0.99-0.497-1.825-1.01-2.764-0.878
							c-1.126,0.159-2,0.996-2.949,1.553c-0.774,0.455-1.198,0.66-1.539-0.186c-0.399-0.992-0.43-2.029-0.049-3.046
							c0.165-0.439,0.495-0.661,0.813-0.179c0.317,0.481,0.559,0.43,0.969,0.137c0.509-0.362,1.041-0.749,1.624-0.934
							c1.345-0.426,1.431-1.569,1.645-2.654c0.046-0.231,0.119-0.535-0.118-0.703c-0.205-0.145-0.421,0.035-0.604,0.138
							c-1.117,0.631-2.33,0.98-3.56,1.312c-0.352,0.095-0.371-0.062-0.454-0.249c-0.407-0.918-0.225-1.941,0.543-2.651
							c0.285-0.263,0.25-0.429,0.182-0.784c-0.191-0.982-1.188-1.63-1.065-2.727c0.011-0.103-0.177-0.241-0.292-0.34
							c-0.547-0.475-1.085-0.955-1.354-1.657c-0.071-0.186-0.15-0.357-0.39-0.321c-0.252,0.039-0.244,0.258-0.26,0.437
							c-0.057,0.688-0.096,1.378-0.149,2.067c-0.284,3.665-0.774,7.311-0.95,10.988c-0.068,1.423,0.224,2.806,0.208,4.228
							c-0.031,2.729-0.101,5.494,0.462,8.175c0.764,3.651,1.729,7.261,2.616,10.917c1.242-0.438,2.317-1.15,3.56-1.514
							c1.009-0.295,1.742-1.023,1.602-2.238c-0.063-0.54,0.377-1.143-0.152-1.685c-0.435,0.491-0.7,1.333-1.475,0.865
							c-0.904-0.546-1.055-1.563-1.121-2.534c-0.063-0.93,0.699-0.244,1.008-0.469c0.025-0.019,0.06-0.024,0.082-0.045
							c0.971-0.86,2.172-1.365,3.215-2.113c0.172-0.123,0.414-0.248,0.192-0.514c-0.461-0.555-0.887-1.152-1.417-1.631
							c-0.494-0.449-1.065-0.094-1.586,0.092c-0.121,0.043-0.33,0.104-0.205,0.32c0.595,1.03-0.48,1.098-0.9,1.36
							c-0.512,0.321-1.109-0.021-1.447-0.528c-0.455-0.68-0.561-1.479-0.42-2.266c0.045-0.255,0.143-1.039,0.753-0.355
							c0.2,0.225,0.341,0.071,0.45-0.068c0.535-0.686,1.341-0.896,2.083-1.216C24.742,46.031,25.916,45.536,27.289,44.95
							 M19.364,25.477c0.062-1.356,0.115-2.545,0.167-3.732c0.033-0.754,0.375-1.349,1.016-1.705
							c0.818-0.453,1.649-0.936,2.592-1.043c2.693-0.306,5.349-0.893,8.063-1.036c1.816-0.096,3.488,0.07,4.405,2.121
							c0.242-0.976,0.411-1.807,0.261-2.64c-0.541-3.008-0.769-6.026-0.745-9.089c0.016-1.934-0.536-3.803-2.176-5.115
							C32.701,3.042,32.427,2.814,32.39,2.5c-0.108-0.915-0.8-0.834-1.405-0.865c-0.369-0.02-0.756,0.019-1.115,0.112
							c-1.096,0.287-2.148-0.177-3.246-0.144c-1.659,0.051-3.176,0.501-4.688,1.058c-0.95,0.35-1.753,0.807-1.942,2.021
							c-0.303,1.929-0.555,3.858-0.69,5.805c-0.099,1.412-0.44,2.721-1.429,3.803c-0.992,1.087-0.994,2.505-0.932,3.811
							c0.088,1.816,0.654,3.581,1.096,5.348C18.223,24.198,18.572,24.917,19.364,25.477 M29.953,43.883
							c0.591-1.035,1.457-0.833,2.342-0.523c1.181,0.412,1.451,1.262,0.721,2.295c-0.136,0.192-0.174,0.395-0.209,0.611
							c-0.035,0.223-0.097,0.455-0.385,0.445c-0.272-0.01-0.377-0.205-0.364-0.451c0.019-0.366-0.103-0.549-0.491-0.437
							c-1.521,0.444-3.049,0.87-4.496,1.565c1.041,1.433,2.447,1.785,3.625,0.941c1.098-0.785,2.213-0.412,2.604,0.9
							c0.188,0.631,0.316,1.281,0.432,1.929c0.113,0.646-0.364,1.063-0.836,0.978c-0.811-0.146-1.396,0.227-2.022,0.54
							c-1.479,0.745-2.969,1.47-4.521,2.048c-0.783,0.291-1.175,0.711-1.149,1.658c0.021,0.813,0.262,1.683-0.193,2.484
							c-0.535,0.948-1.391,1.393-2.391,1.631c-1.164,0.276-2.141,0.904-3.115,1.582c0.274,0.295,0.458,0.064,0.644,0.003
							c2.261-0.754,4.427-1.729,6.954-1.478c2.383,0.236,4.769,0.32,7.063,1.097c1.755,0.594,1.758,0.591,2.605-1.007
							c0.176-0.331,0.327-0.674,0.49-1.014l-0.016,0.018c0.78-1.639,1.631-3.234,2.291-4.943c0.491-1.275,1.131-2.479,1.439-3.846
							c0.52-2.297,0.508-4.614,0.529-6.943c0.029-3.17-0.039-6.339-0.176-9.505c-0.121-2.826-0.485-5.634-0.648-8.46
							c-0.115-2.006,0.021-4.027-0.324-6.021c-0.218-1.257-0.594-2.451-1.322-3.542c0.18,0.985-0.139,1.882-0.319,2.8
							c-0.059,0.296,0.028,0.623,0.052,0.936c0.027,0.376,0.073,0.752,0.078,1.129c0.004,0.205-0.137,0.369-0.344,0.381
							c-0.236,0.015-0.309-0.172-0.307-0.378c0.012-1.23-0.466-2.431,0.047-3.708c0.259-0.646,0.149-1.511,0.006-2.237
							c-0.432-2.181-0.504-4.421-1.098-6.574c-0.358-1.299-0.127-2.787-1.288-3.831c-0.388-0.348-0.667-0.82-0.989-1.241
							c-0.437-0.569-1.074-1.02-1.668-1.105c1.859,1.49,2.508,3.56,2.537,5.66c0.04,2.995,0.342,5.941,0.698,8.901
							c0.126,1.043,0.454,2.071,0.1,3.227c-0.264,0.858-0.817,1.767-0.477,2.789c0.156,0.472,0.196,0.987,0.253,1.486
							c0.027,0.251-0.04,0.568-0.315,0.611c-0.353,0.054-0.336-0.298-0.367-0.532c-0.093-0.683-0.15-1.37-0.259-2.05
							c-0.038-0.235-0.064-0.69-0.496-0.382c-1.594,1.144-3.502,1.656-5.17,2.65c-0.523,0.311-0.26,0.715-0.217,1.077
							c0.049,0.407,0.344,0.592,0.752,0.483c0.752-0.199,1.524-0.331,2.091-0.971c0.354-0.399,0.851-0.607,1.056,0.107
							c0.207,0.718,0.275,1.48,0.359,2.228c0.083,0.731-0.496,1.179-1.006,1.076c-1.316-0.265-2.281,0.544-3.619,0.793
							c1.096,0.801,2.023,1.446,3.15,1.745c0.336,0.089,0.621,0.273,0.847,0.561c0.687,0.876,0.202,2.668-0.893,3.229
							c-0.421,0.215-0.882,0.491-1.12-0.233c-0.082-0.248-0.254-0.23-0.448-0.167c-0.704,0.228-1.454,0.331-2.103,0.773
							c0.299,0.424,0.785,0.545,1.137,0.845c0.135,0.113,0.315,0.251,0.164,0.466c-0.111,0.158-0.281,0.105-0.428,0.047
							c-0.145-0.056-0.303-0.112-0.416-0.212c-1.305-1.151-2.528-0.588-3.78,0.141c1.847,1.373,3.7,1.009,5.529,0.103
							c0.854-0.423,2.241-0.083,2.458,0.744c0.307,1.175-0.03,2.305-0.395,3.404c-0.151,0.455-1.515,0.925-1.789,0.672
							c-0.504-0.461-0.041-0.84,0.16-1.236c0.015-0.027-0.04-0.091-0.097-0.209c-1.331,0.441-2.67,0.885-4.173,1.384
							c0.762,0.44,1.391,0.632,2.025,0.762c0.738,0.151,1.199,0.456,1,1.302c-0.819-0.67-1.877-0.809-2.79-1.262
							c-1.285-0.641-2.368-0.127-3.469,0.549C25.75,43.703,27.703,45.033,29.953,43.883 M42.582,28.388
							c0.328,2.479-0.068,5.338,0.08,8.188c0.094,1.783,0.428,3.533,0.732,5.291c0.135,0.775,0.672,1.62,0.018,2.478
							c-0.193,0.252-0.17,0.749-0.107,1.108c0.619,3.504-0.232,6.8-1.379,10.051c-0.635,1.801-1.207,3.623-1.864,5.419
							c-0.759,2.07-1.511,4.132-2.862,5.848c-1.049,1.33-1.776,2.949-3.211,3.954c-2.146,1.504-4.54,2.196-7.145,1.871
							c-1.996-0.25-3.838-0.908-5.027-2.721c-0.864-1.314-1.391-2.807-2.15-4.168c-0.787-1.412-0.481-2.975-0.889-4.437
							c-0.768-2.748-1.27-5.57-2-8.33c-0.414-1.563-0.714-3.126-0.785-4.734c-0.151-3.425-0.455-6.853-0.381-10.272
							c0.08-3.702,0.579-7.393,0.781-11.095c0.156-2.844,0.445-5.692-0.019-8.548c-0.201-1.238-0.217-2.528,0.052-3.764
							c0.273-1.249,0.342-2.5,0.258-3.754c-0.146-2.179,0.715-4.023,1.66-5.895c0.724-1.431,1.721-2.669,2.502-4.046
							c0.752-1.327,1.93-1.687,3.273-1.795c1.086-0.087,2.176-0.109,3.265-0.167c0.596-0.032,1.124-0.188,1.666-0.511
							c0.472-0.281,0.688,0.73,1.36,0.531c0.43-0.128,0.936-0.047,1.399,0.003c0.768,0.083,1.368,0.356,1.741,1.163
							c0.768,1.657,1.537,3.327,2.916,4.611c1.191,1.107,1.006,2.723,1.373,4.125c0.325,1.238,0.457,2.525,0.666,3.791
							c0.18,1.091,0.621,2.176,1.134,3.166c1.151,2.224,1.399,4.672,1.903,7.057c0.199,0.953,0.34,1.905,0.788,2.794
							C42.712,26.355,42.517,27.207,42.582,28.388"/>
					</g>
					<path id="Fill-7_11_" fill="#231F20" d="M25.419,17.975c-0.059,0.625,0.267,1.619,0.409,2.637
						c0.046,0.332,0.152,0.685-0.005,1.017c-0.09,0.19-0.19,0.436-0.46,0.355c-0.188-0.056-0.219-0.239-0.24-0.447
						c-0.337-3.287,0.101-6.542,0.36-9.804c0.047-0.601,0.103-0.979,0.984-0.84c1.323,0.208,2.6-0.554,3.945-0.603
						c0.269-0.009,0.536-0.094,0.804-0.147c1.936-0.392,2.621-0.035,3.377,1.82c0.727,1.783,1.008,3.668,1.004,5.583
						c-0.002,1.079,0.393,2.086,0.392,3.153c-0.001,0.248,0.084,0.591-0.21,0.643c-0.373,0.065-0.402-0.332-0.431-0.588
						c-0.217-1.923-0.38-3.853-0.627-5.771c-0.147-1.142-0.418-2.255-0.969-3.295c-0.44-0.832-1.067-1.114-1.931-1.03
						c-1.818,0.178-3.562,0.766-5.364,1.016c-0.311,0.043-0.444,0.201-0.456,0.473C25.925,13.961,25.41,15.727,25.419,17.975"/>
					<path id="Fill-9_11_" fill="#231F20" d="M71,60.156c-1.408,1.184-3.028,0.877-4.577,0.539c-1.599-0.352-3.14-0.965-4.729-1.371
						c-0.665-0.17-0.768-0.456-0.652-1.068c0.162-0.863,0.495-1.695,0.46-2.598c-0.015-0.355,0.192-0.688,0.53-0.656
						c0.516,0.047,0.154,0.496,0.216,0.758c0.019,0.081-0.052,0.18-0.069,0.271c-0.485,2.346-0.223,2.752,2.148,3.318
						c0.877,0.21,1.731,0.494,2.592,0.769c1.045,0.334,2.148-0.036,3.22-0.137c0.354-0.033,0.577,0.06,0.843,0.196
						C70.984,60.174,71,60.156,71,60.156"/>
					<path id="Fill-11_11_" fill="#231F20" d="M56.822,13.712c-0.066,0.957-0.134,1.892-0.197,2.827
						c-0.039,0.591,0.176,1.129,0.408,1.668c0.125,0.288,0.166,0.705-0.215,0.777c-0.573,0.109-0.197-0.362-0.274-0.559
						c-1.058-2.691-0.313-5.381,0.062-8.063c0.111-0.803,0.435-1.58,0.62-2.376c0.099-0.418,0.261-0.687,0.79-0.579
						c1.805,0.37,3.563-0.074,5.323-0.299c1.68-0.215,1.69-0.237,2.083,1.224c0.186,0.693,0.16,1.389,0.139,2.076
						c-0.07,2.125,0.222,4.226,0.43,6.331c0.04,0.403-0.033,0.745-0.412,0.771c-0.46,0.032-0.35-0.406-0.375-0.694
						c-0.212-2.407-0.34-4.816-0.34-7.231c0.002-0.21-0.059-0.419-0.092-0.628c-0.196-1.249-0.375-1.381-1.73-1.222
						c-1.514,0.178-3.023,0.393-4.543,0.537c-0.478,0.045-0.597,0.277-0.717,0.61C57.208,10.457,56.59,12.024,56.822,13.712"/>
				</g>
			</g>
		</g>
	</g>
</g>
</svg>
