<?xml version="1.0" encoding="utf-8"?>
<!-- Generator: Adobe Illustrator 16.0.0, SVG Export Plug-In . SVG Version: 6.00 Build 0)  -->
<!DOCTYPE svg PUBLIC "-//W3C//DTD SVG 1.1//EN" "http://www.w3.org/Graphics/SVG/1.1/DTD/svg11.dtd">
<svg version="1.1" id="Layer_1" xmlns="http://www.w3.org/2000/svg" xmlns:xlink="http://www.w3.org/1999/xlink" x="0px" y="0px"
	 width="100px" height="78px" viewBox="0 0 100 78" enable-background="new 0 0 100 78" xml:space="preserve">
<g id="Page-1">
	<g id="Nairobi-Stay" transform="translate(-401.000000, -850.000000)">
		<g id="filters" transform="translate(168.000000, 785.000000)">
			<g id="stay-white_11_" transform="translate(237.000000, 67.000000)">
				<g id="stay_11_" transform="translate(0.000000, 0.532847)">
					<path id="Fill-1_11_" fill="#FFFFFF" stroke="#FFFFFF" stroke-miterlimit="10" d="M48.891,24.328
						c0.519-0.055,1.037-0.109,1.555-0.163C49.902,24.045,49.331,23.481,48.891,24.328 M51.396,13.273
						c-1.164-0.544-1.672-0.604-2.754-0.333C49.541,12.823,50.354,13.334,51.396,13.273 M50.234,52.516
						c1.117,0.475,3.19,0.689,3.57,0.366C52.639,52.762,51.533,52.649,50.234,52.516 M75.625,40.254
						c-0.305,0.977-0.283,1.966-0.139,2.975c0.568-0.16,0.754-0.525,0.557-1.059C75.816,41.553,75.73,40.916,75.625,40.254
						 M53.287,68.334c-0.83,0.158-0.969,0.604-0.676,1.299c0.125,0.297,0.166,0.633,0.227,0.953
						c0.053,0.275-0.053,0.759,0.313,0.709c0.371-0.051,0.723-0.315,0.621-0.924C53.654,69.67,53.477,69.004,53.287,68.334
						 M58.396,15.799c-0.418,0.133-0.65,0.274-0.877,0.265c-0.494-0.022-0.584,0.221-0.461,0.603
						c0.17,0.534,0.016,1.048-0.115,1.535c-0.106,0.404,0.105,1.066-0.688,1.115c-0.166,0.01-0.113,0.34-0.072,0.521
						c0.057,0.261,0.285,0.196,0.471,0.207c0.318,0.021,0.562-0.11,0.617-0.419C57.502,18.362,57.801,17.119,58.396,15.799
						 M43.363,25.475c0.333,0.113,0.639,0.169,0.893,0.316c0.286,0.166,0.376,0.035,0.504-0.182
						c0.406-0.687,0.831-1.363,1.243-2.046c0.075-0.125,0.278-0.329,0.04-0.396c-0.363-0.103-0.797-0.39-1.126,0.069
						C44.39,23.97,43.884,24.721,43.363,25.475 M41.201,20.108c-1.648,0.758-2.667,2.211-3.855,3.517
						c0.827,0.467,1.071,0.518,1.296,0.158C39.431,22.523,40.577,21.526,41.201,20.108 M47.609,24.269
						c0.608,0.235,0.715-0.281,0.757-0.537c0.06-0.366-0.354-0.292-0.601-0.327c-0.787-0.111-1.395,0.055-1.663,0.927
						c-0.117,0.38-0.371,0.731-0.611,1.059c-0.416,0.566-0.445,0.904,0.358,1.144c0.418,0.125,0.544,0.09,0.716-0.276
						c0.22-0.468,0.519-0.889,0.479-1.452C47.02,24.412,47.234,24.188,47.609,24.269 M40.316,24.557
						c0.292-0.014,0.371-0.016,0.443-0.325c0.299-1.282,1.273-2.143,1.956-3.184c0.124-0.188,0.492-0.34,0.12-0.55
						c-0.236-0.133-0.563-0.442-0.869-0.032c-0.833,1.119-1.815,2.123-2.582,3.296c-0.203,0.311-0.176,0.475,0.184,0.575
						C39.831,24.41,40.093,24.491,40.316,24.557 M43.383,21.607c-0.723,0.823-1.384,1.586-1.855,2.49
						c-0.12,0.23-0.577,0.522-0.178,0.732c0.472,0.248,1.133,0.732,1.581,0.25c0.573-0.619,1.135-1.308,1.529-2.173
						C43.477,22.981,43.729,22.148,43.383,21.607 M73.734,26.235c-1.336,2.141-1.93,4.617-3.584,6.526
						c-0.324,0.375-0.283,0.75,0.229,1.069c1.042-2.259,2.671-4.149,3.753-6.385C74.502,26.681,74.1,26.595,73.734,26.235
						 M61.283,29.004c-0.016,0.791,0.292,1.015,1.023,0.721c1.17-0.469,1.799-1.396,2.116-2.565c0.097-0.355-0.03-0.591-0.444-0.606
						C62.992,26.52,61.301,28.053,61.283,29.004 M74.943,27.707c-0.297,0.36-0.611,0.668-0.838,1.031
						c-1.024,1.632-1.991,3.3-3.049,4.91c-0.482,0.734-0.246,1.175,0.351,1.663c0.141-0.235,0.257-0.42,0.364-0.609
						c0.963-1.699,1.922-3.399,2.889-5.096c0.146-0.254,0.257-0.53,0.668-0.486c0.309,0.033,0.361-0.183,0.205-0.437
						C75.35,28.385,75.172,28.084,74.943,27.707 M75.867,29.605c-0.691,0.633-1.324,1.234-1.762,2
						c-0.449,0.789-0.949,1.55-1.367,2.354c-1.08,2.074-1.067,2.08,0.469,3.825c0.018,0.021,0.033,0.043,0.047,0.066
						c0.172,0.286,0.316,0.264,0.564,0.037c1.053-0.959,2.082-1.911,1.772-3.544c-0.036-0.188-0.024-0.385-0.053-0.576
						c-0.024-0.183,0.019-0.312,0.192-0.401c0.662-0.335,0.66-0.338,0.418-1.22c-0.258,0.275-0.607,0.495-0.723,0.801
						c-0.48,1.288-1.441,2.275-2.08,3.46c-0.088,0.162-0.173,0.415-0.396,0.347c-0.284-0.086-0.204-0.395-0.138-0.568
						c0.188-0.485,0.41-0.961,0.666-1.415c0.699-1.248,1.308-2.573,2.183-3.686C76.129,30.494,76.5,30.184,75.867,29.605
						 M76.434,29.276c0.01-1.095,0.063-2.047-0.066-3c-0.35-2.581-0.738-5.155-1.124-7.731c-0.525-3.509-0.929-7.04-0.79-10.604
						c0.035-0.906,0.256-1.8,0.163-2.716c-0.06-0.572-0.228-0.929-0.923-0.731c-0.469,0.134-0.967,0.17-1.5,0.258
						c0.563,1.691,1.084,3.367,1.365,5.109c0.43,2.666,0.779,5.321,0.754,8.042c-0.021,2.455-0.528,4.88-0.336,7.34
						c0.023,0.308-0.02,0.608,0.25,0.828C75.223,26.886,75.615,28.104,76.434,29.276 M62.045,58.45
						c0.043,0.035,0.087,0.07,0.131,0.104c0.162-0.181,0.324-0.362,0.488-0.54c2.373-2.581,4.695-5.201,6.504-8.227
						c1.996-3.338,4.673-6.256,6.055-9.982c0.568-1.531,0.785-2.04,0.418-3.328c-0.434,0.553-0.82,1.127-1.291,1.621
						c-0.401,0.424-0.59,0.74,0.058,1.068c0.163,0.084,0.266,0.211,0.145,0.395c-0.075,0.114-0.221,0.089-0.293,0.021
						c-0.67-0.637-0.827-0.045-1.067,0.418c-0.178,0.342-0.385,0.67-0.606,0.982c-0.597,0.846-1.3,1.631-1.786,2.535
						c-0.41,0.764-0.652,1.626-1.056,2.409c-0.882,1.713-1.363,3.603-2.325,5.278c-0.461,0.805-1.096,1.437-2.07,1.451
						c-0.531,0.008-0.604,0.252-0.679,0.648c-0.302,1.595-0.896,3.055-2.017,4.271C62.412,57.834,62.244,58.157,62.045,58.45
						 M60.209,25.245c1.244,0.044,1.24,0.044,1.434-0.985c0.098-0.514,0.234-1.021,0.31-1.538c0.169-1.189,0.155-1.186-0.998-1.527
						c-0.181-0.053-0.356-0.154-0.504-0.271c-0.369-0.296-0.779-0.359-1.241-0.344c-0.605,0.02-1.221,0.012-1.82-0.062
						c-0.431-0.053-0.861-0.028-1.193,0.173c-0.373,0.226-0.426,0.098-0.687-0.168c-0.565-0.579-1.386-0.819-2.157-0.825
						c-0.49-0.004-0.485,0.716-0.687,1.115c-0.431,0.86-0.817,1.743-1.204,2.625c-0.355,0.812-0.258,0.955,0.551,0.977
						c0.91,0.025,1.817-0.044,2.731,0.086C56.627,24.771,58.49,25.211,60.209,25.245 M64.205,40.162
						c0.162-0.022,0.339-0.013,0.484-0.073c0.383-0.158,0.676-0.808,0.563-0.813c-0.735-0.051-1.03-0.805-1.683-0.924
						c-1.243-0.227-2.484-0.475-3.729-0.693c-2.252-0.396-4.53-0.674-6.752-1.197c-2.513-0.59-5.012-1.251-7.497-1.979
						c-2.732-0.799-5.346-1.855-7.975-2.901c-1.33-0.528-2.686-0.977-4.06-1.378c-0.575-0.168-0.891,0.19-1.011,0.595
						c-0.108,0.364,0.33,0.349,0.601,0.425c1.141,0.321,2.237,0.76,3.342,1.189c1.897,0.738,3.703,1.696,5.659,2.293
						c3.893,1.188,7.877,2.071,11.663,3.621c1.797,0.733,3.741,0.894,5.653,1.151C61.045,39.692,62.596,40.112,64.205,40.162
						 M69.581,33.674c-1.427,1.537-2.331,3.309-3.397,4.974c-0.265,0.413-0.213,0.722,0.168,0.972
						c1.252,0.822,2.168,1.935,2.854,3.248c0.104,0.199,0.231,0.377,0.431,0.485c0.223,0.122,0.521,0.241,0.236,0.528
						c-0.242,0.246-0.467,0.014-0.615-0.18c-0.283-0.373-0.568-0.75-0.795-1.156c-0.477-0.853-1.082-1.574-1.85-2.188
						c-1.014-0.812-0.971-0.815-1.658,0.296c-0.251,0.408-0.162,0.625,0.154,0.894c0.295,0.247,0.547,0.542,0.83,0.804
						c0.965,0.891,1.481,2.115,2.332,3.093c0.502,0.577,0.918,0.544,1.225-0.131c0.217-0.476,0.406-0.962,0.624-1.437
						c0.237-0.521,0.368-1.18,0.767-1.517c1.051-0.887,1.617-2.063,2.271-3.202c0.202-0.355,0.112-0.625-0.162-0.875
						c-0.864-0.787-1.435-1.804-2.113-2.732C70.445,34.953,70.039,34.336,69.581,33.674 M51.168,54.416
						c0.248,0.012,0.5,0.055,0.743,0.026c0.442-0.052,0.874-0.315,0.862-0.729c-0.01-0.324-0.506-0.31-0.836-0.316
						c-0.248-0.005-0.502,0.017-0.744-0.028c-3.064-0.561-6.152-0.975-9.208-1.594c-2.587-0.523-5.246-0.681-7.817-1.307
						c-4.251-1.036-8.517-2.006-12.821-2.793c-0.355-0.064-0.737-0.561-1.142-0.107c-0.306,0.344-0.723,0.545-1.006,0.943
						c-0.3,0.421-0.136,0.583,0.195,0.74c1.163,0.557,2.327,1.111,3.615,1.332c2.551,0.438,5.074,1.064,7.656,1.291
						c2.034,0.18,4.025,0.727,6.079,0.697c1.86-0.029,3.67,0.389,5.499,0.618C45.222,53.567,48.162,54.227,51.168,54.416
						 M63.118,26.185c-0.681-0.59-1.511-0.303-2.192-0.367c-2.363-0.22-4.688-0.74-7.049-0.874
						c-1.094-0.062-2.313-0.473-3.329,0.399c-0.085,0.073-0.245,0.012-0.278-0.096c-0.248-0.819-0.832-0.437-1.33-0.39
						c-0.271,0.026-0.571,0.086-0.817,0.005c-0.454-0.149-0.644,0.107-0.741,0.429c-0.361,1.189-0.938,2.29-1.461,3.404
						c-0.311,0.662-0.091,0.816,0.46,0.937c2.108,0.464,4.247,0.702,6.401,0.533c0.748-0.059,1.466-0.047,2.21,0.012
						c1.729,0.139,3.465,0.102,5.176-0.257c0.194-0.041,0.479,0.035,0.479-0.31C60.652,27.912,61.832,27.047,63.118,26.185
						 M41.541,2.95c1.224,0.319,2.39-0.04,3.564-0.064c2.486-0.052,4.973,0.005,7.463,0.089C57.425,3.14,62.25,3.943,67.129,3.73
						c0.652-0.029,1.313,0.195,1.973,0.213c1.547,0.041,3.092,0.281,4.642,0.064c0.231-0.033,0.629-0.002,0.614-0.276
						c-0.02-0.348,0.05-0.803-0.369-1.031c-0.166-0.091-0.346-0.183-0.529-0.221c-2.107-0.433-4.204-0.945-6.329-1.257
						c-2.753-0.404-5.532-0.635-8.315-0.729c-2.896-0.098-5.789-0.019-8.676,0.276c-1.81,0.184-3.607,0.443-5.448,0.382
						c-1.237-0.041-2.71-0.145-3.126,1.592C41.552,2.796,41.552,2.85,41.541,2.95 M52.449,55.637
						c0.066,1.248,0.531,2.49,0.527,3.796c-0.002,0.089,0.108,0.263,0.127,0.257c0.633-0.176,0.981,0.426,1.52,0.538
						c1.389,0.293,2.738,0.013,4.098-0.16c0.59-0.075,1.043-0.437,1.547-0.726c1.072-0.619,1.603-1.709,2.379-2.568
						c1.097-1.213,1.854-2.656,1.554-4.422c-0.067-0.395,0.187-0.438,0.526-0.357c1.115,0.258,1.701,0.019,2.325-0.978
						c0.843-1.342,1.249-2.874,1.857-4.317c0.046-0.109,0.104-0.351-0.042-0.334c-0.998,0.117-1.104-0.785-1.465-1.313
						c-0.689-0.999-1.396-1.982-2.187-2.9c-0.396-0.463-0.694-0.66-1.284-0.039c-1.332,1.406-2.213,3.172-3.679,4.455
						c-0.351,0.309-0.351,0.676-0.188,1.053c0.912,2.121,1.443,4.388,2.506,6.451c0.255,0.492,0.201,1.039-0.2,1.375
						c-1.75,1.463-3.41,3.035-5.39,4.223c-0.681,0.41-0.772,0.205-1-0.381c-0.549-1.42-0.772-2.91-1.121-4.375
						c-0.1-0.422-0.072-0.985-0.655-1.138c-0.608-0.159-0.944,0.274-1.345,0.622C52.471,54.739,52.49,55.161,52.449,55.637
						 M68.932,25.018c-0.754-0.033-1.012,0.818-1.742,0.738c-0.625-0.068-1.045,0.322-1.347,0.895
						c-0.522,0.994-1.286,1.836-1.815,2.841c-0.241,0.459-0.155,0.623,0.188,0.841c0.863,0.548,1.793,0.962,2.729,1.37
						c0.295,0.129,0.352,0.004,0.479-0.2c1.172-1.895,2.354-3.785,3.387-5.761c0.103-0.193,0.236-0.374,0.381-0.539
						c0.168-0.191,0.412-0.222,0.595-0.064c0.266,0.231,0.04,0.374-0.155,0.5c-0.295,0.19-0.424,0.499-0.57,0.796
						c-0.734,1.485-1.586,2.9-2.522,4.268c-0.265,0.386-0.681,0.826-0.647,1.208c0.033,0.386,0.717,0.35,1.096,0.539
						c0.147,0.073,0.354,0.12,0.283,0.329c-0.067,0.208-0.274,0.28-0.479,0.221c-0.289-0.084-0.569-0.196-0.851-0.31
						c-1.625-0.66-3.305-1.22-4.582-2.51c-0.094-0.097-0.196-0.285-0.317-0.144c-0.627,0.737-1.447,0.27-2.172,0.377
						c-2.248,0.334-4.498,0.47-6.763,0.149c-0.349-0.049-0.707-0.005-1.067,0.058c-0.905,0.157-1.826,0.136-2.731,0.016
						c-1.605-0.214-3.226-0.291-4.815-0.712c-0.746-0.198-0.529-0.371-0.321-0.761c0.257-0.484,0.499-0.978,0.765-1.457
						c0.158-0.285,0.094-0.451-0.203-0.567c-0.794-0.31-1.491-0.826-2.313-1.082c-1.941-0.604-3.848-1.316-5.837-1.771
						c-0.407-0.093-0.593-0.04-0.805,0.284c-1.028,1.567-1.92,3.224-3.078,4.706c-0.234,0.299-0.139,0.438,0.158,0.53
						c2.161,0.667,4.26,1.497,6.343,2.372c2.262,0.95,4.633,1.569,6.97,2.297c2.479,0.773,5.002,1.373,7.542,1.823
						c3.224,0.571,6.474,0.989,9.677,1.688c0.381,0.084,0.932-0.025,0.828,0.713c-0.033,0.235,0.313,0.184,0.449,0.065
						c0.162-0.138,0.281-0.338,0.38-0.531c0.972-1.887,2.169-3.668,3.483-5.284c1.697-2.086,2.511-4.547,3.689-6.854
						c0.096-0.184,0.221-0.499-0.066-0.669c-0.807-0.479-1.715-0.58-2.623-0.591c-0.545-0.007-0.547,0.613-0.775,0.922
						c-0.934,1.26-1.777,2.587-2.585,3.932c-0.257,0.427-0.373,0.892-0.972,0.961c-0.154,0.019-0.273,0.34-0.479,0.14
						c-0.211-0.204-0.015-0.415,0.091-0.594c0.573-0.972,1.063-1.991,1.797-2.87C68.158,26.653,68.518,25.852,68.932,25.018
						 M60.529,45.76c1.162-1.398,2.006-2.865,3.265-3.991c0.466-0.417,0.206-1.097-0.438-1.104
						c-1.453-0.017-2.813-0.534-4.232-0.696c-1.702-0.193-3.424-0.371-5.018-0.993c-2.854-1.111-5.799-1.919-8.715-2.823
						c-2.416-0.748-4.869-1.346-7.173-2.48c-1.536-0.756-3.134-1.473-4.822-1.911c-1.292-0.335-1.285-0.351-2.079,0.709
						c-0.231,0.31-0.524,0.583-0.708,0.917c-1.045,1.889-2.952,3.219-3.439,5.497c-0.153,0.716-0.846,1.317-1.333,2.032
						c0.819-0.139,1.546,0.043,2.26,0.111c3.881,0.371,7.68,1.266,11.445,2.219c4.488,1.135,8.988,2.188,13.529,3.084
						c1.732,0.341,3.498,0.481,5.221,0.826c0.77,0.152,0.973-0.107,1.23-0.641c0.349-0.723,0.726-1.43,1.162-2.284
						C60.836,44.821,60.457,45.121,60.529,45.76 M42.865,19.889c0-0.578-0.058-1.159,0.012-1.726
						c0.158-1.299,0.133-2.657,0.991-3.773c0.47-0.611,0.955-1.213,1.269-1.922c0.163-0.37,0.353-0.542,0.805-0.491
						c0.953,0.107,1.914,0.171,2.873,0.183c0.799,0.011,1.6-0.034,2.373,0.191c1.357,0.396,2.756,0.499,4.154,0.599
						c0.815,0.059,1.551,0.759,1.648,1.483c0.049,0.36-0.295,0.852,0.281,1.078c0.64,0.252,0.974-0.192,1.319-0.585
						c0.163-0.184,0.324-0.379,0.435-0.596c0.183-0.357,0.429-0.452,0.84-0.504c1.597-0.203,3.136,0.196,4.697,0.344
						c0.853,0.08,1.703,0.191,2.545,0.349c0.761,0.143,1.535,0.007,2.295,0.489c0.464,0.294,0.754,0.426,0.74,1.001
						c-0.011,0.405,0.078,0.824,0.183,1.221c0.6,2.3,0.387,4.517-0.646,6.658c-0.275,0.571,0.232,0.427,0.465,0.455
						c0.978,0.117,1.982,0.026,2.91,0.491c0.486,0.245,0.391-0.181,0.393-0.425c0.007-1.132,0.068-2.258,0.195-3.384
						c0.248-2.195,0.297-4.412,0.084-6.597c-0.295-3.035-0.805-6.051-1.791-8.958c-0.146-0.43-0.307-0.969-0.899-0.943
						c-1.39,0.062-2.742-0.268-4.115-0.325c-2.729-0.113-5.457,0.023-8.192-0.31c-2.896-0.352-5.834-0.363-8.752-0.54
						c-2.875-0.174-5.736,0.227-8.607,0.173c-0.535-0.01-0.669,0.356-0.719,0.819c-0.266,2.459-0.495,4.92-0.454,7.398
						c0.01,0.58-0.064,1.154-0.103,1.729c-0.125,1.871-0.094,3.744,0.115,5.61c0.023,0.206,0.126,0.592,0.253,0.538
						C41.3,19.266,41.989,19.943,42.865,19.889 M61.754,58.942c-0.063-0.007-0.128-0.035-0.158-0.014
						c-0.271,0.191-0.541,0.384-0.801,0.589c-2.088,1.646-4.441,1.585-6.84,0.998c-0.973-0.237-1.27-0.124-1.289,0.896
						c-0.037,1.898,0.734,3.681,0.828,5.562c0.012,0.229,0.563,0.457,0.095,0.644c-0.376,0.149-0.433-0.32-0.56-0.572
						c-0.125-0.242-0.316-0.504-0.307-0.752c0.063-1.611-0.5-3.148-0.552-4.746c-0.006-0.17,0.136-0.4-0.256-0.453
						c-0.572-0.078-0.347-0.364-0.048-0.563c0.632-0.423,0.658-1.02,0.556-1.685c-0.155-1.004-0.344-2.011-0.403-3.021
						c-0.035-0.613-0.305-0.834-0.836-0.893c-0.961-0.105-1.933-0.154-2.884-0.323c-3.389-0.599-6.789-1.161-10.21-1.491
						c-2.991-0.287-5.967-0.697-8.937-1.104c-3.318-0.455-6.668-0.922-9.78-2.293c-0.574-0.252-0.792-0.076-0.956,0.439
						c-0.619,1.944-1.519,3.77-2.395,5.605c-0.142,0.297-0.445,0.646-0.376,0.887c0.139,0.477,0.604,0,0.915,0.137
						c0.251,0.108,0.526,0.162,0.789,0.246c0.548,0.179,1.082,0.453,1.643,0.524c1.772,0.231,3.552,0.429,5.271-0.351
						c0.694-0.313,1.286-0.184,1.845,0.426c0.895,0.973,2.139,1.324,3.389,1.561c1.333,0.248,2.715,0.281,4.035,0.131
						c1.201-0.139,2.235-0.033,3.385,0.346c2.16,0.713,4.399,0.615,6.632,0.125c0.967-0.213,2.027-0.281,2.946,0.148
						c1.273,0.596,2.518,1.109,3.963,0.773c0.229-0.055,0.553-0.034,0.542,0.324c-0.011,0.343-0.303,0.32-0.56,0.332
						c-1.344,0.06-2.631-0.131-3.856-0.729c-0.833-0.407-1.749-0.53-2.658-0.354c-2.387,0.466-4.753,0.549-7.132-0.073
						c-0.658-0.171-1.266-0.651-1.975-0.5c-1.319,0.28-2.64,0.104-3.956,0.077c-1.837-0.041-3.59-0.527-5.017-1.678
						c-0.778-0.625-1.406-0.601-2.183-0.242c-0.5,0.229-1.012,0.541-1.567,0.44c-1.453-0.26-2.994,0.037-4.372-0.702
						c-0.307-0.164-0.569-0.078-0.459,0.35c0.173,0.676,0.118,1.371,0.202,2.055c0.163,1.334,0.481,2.686,0.496,3.991
						c0.014,1.216,0.6,0.933,1.248,1.017c1.184,0.15,2.403-0.016,3.552,0.225c2.454,0.515,4.931,0.863,7.4,1.271
						c0.951,0.156,1.891,0.341,2.864,0.349c0.964,0.008,1.925,0.084,2.884,0.235c3.268,0.517,6.547,0.888,9.867,0.91
						c2.381,0.017,4.754-0.129,7.131-0.207c0.33-0.013,0.656,0.358,0.988,0.003c0.561-0.6,1.229-1.072,1.763-1.722
						C57.648,63.674,59.713,61.323,61.754,58.942 M74.916,42.09c-2.629,3.873-5.197,7.803-7.93,11.615
						c-1.279,1.783-2.819,3.396-4.342,4.99c-2.16,2.262-4.031,4.762-6.139,7.062c-0.541,0.592-1.048,1.227-1.654,1.741
						c-0.994,0.842-0.968,1.84-0.625,2.929c0.104,0.328,0.373,0.655,0.029,0.979c-0.43,0.405-1.001,0.555-1.548,0.672
						c-0.22,0.047-0.383-0.345-0.328-0.572c0.206-0.87-0.163-1.672-0.243-2.506c-0.049-0.479-0.324-0.674-0.859-0.639
						c-3.396,0.229-6.798,0.219-10.188-0.066c-2.024-0.17-4.023-0.682-6.047-0.785c-2.9-0.148-5.734-0.742-8.61-1.029
						c-0.679-0.068-1.345-0.287-2.013-0.455c-1.92-0.48-3.887-0.416-5.84-0.533c-0.636-0.037-0.843,0.246-0.799,0.834
						c0.054,0.74,0.1,1.48,0.12,2.224c0.018,0.684,0.473,0.69,0.962,0.68c0.163-0.448-0.113-0.935,0.187-1.46
						c0.342,0.612,0.294,1.253,0.492,1.82c0.07,0.199-0.171,0.344-0.368,0.365c-0.978,0.109-1.75-0.596-1.744-1.606
						c0.007-1.313,0.183-2.646,0.026-3.937c-0.27-2.229-0.154-4.489-0.587-6.705c-0.061-0.311-0.203-0.354-0.423-0.358
						c-0.303-0.008-0.607,0.03-0.911,0.024c-0.537-0.012-0.673-0.184-0.387-0.715c1.302-2.418,2.354-4.935,3.228-7.547
						c0.308-0.922,1.144-1.787,1.956-2.492c1.63-1.414,3.023-3.039,4.219-4.817c0.284-0.423,0.594-0.771,0.91-1.147
						c0.472-0.563,1.063-1.08,1.091-1.992c0.02-0.656,0.647-1.188,1.048-1.749c2.945-4.125,6.298-7.967,8.807-12.394
						c0.887-1.565,2.159-2.769,3.349-4.06c0.295-0.32,0.48-0.541,0.167-0.97c-0.163-0.224-0.198-0.576-0.207-0.872
						c-0.113-3.634-0.079-7.259,0.218-10.892c0.111-1.357,0.301-2.728,0.271-4.101c-0.008-0.347,0.084-0.518,0.425-0.681
						c0.697-0.333,1.057-0.992,1.304-1.691c0.11-0.312,0.186-0.554,0.596-0.538c2.458,0.095,4.91-0.042,7.345-0.357
						c2.311-0.299,4.63-0.309,6.951-0.35c3.324-0.059,6.633,0.216,9.896,0.743c2.424,0.391,4.899,0.602,7.243,1.43
						c1.002-0.385,0.716,0.254,0.851,0.863c0.59,2.637-0.078,5.273,0.149,7.904c0.298,3.4,0.628,6.787,1.209,10.16
						c0.4,2.316,0.741,4.667,0.779,7.046c0.028,1.722,0.127,3.44-0.103,5.153c-0.069,0.516-0.121,1.074-0.358,1.518
						c-0.365,0.686-0.484,1.386-0.208,2.058c0.429,1.043-0.087,2.031-0.023,3.048c0.049,0.786,0.004,1.532,0.577,2.226
						c0.247,0.299,0.044,0.982-0.405,1.189c-0.529,0.244-0.894,1.102-1.392,0.859c-0.546-0.265,0.043-1.035-0.092-1.58
						C74.9,42.428,75.018,42.2,74.916,42.09"/>
					<path id="Fill-4_11_" fill="#FFFFFF" stroke="#FFFFFF" stroke-miterlimit="10" d="M19.054,67.159
						c-0.077-0.02-0.12-0.018-0.127-0.033c-0.188-0.411-0.476-0.812-0.236-1.297c0.02-0.041,0.182-0.067,0.207-0.039
						C19.272,66.211,19.073,66.684,19.054,67.159"/>
				</g>
			</g>
		</g>
	</g>
</g>
</svg>
