<?xml version="1.0" encoding="utf-8"?>
<!-- Generator: Adobe Illustrator 16.0.0, SVG Export Plug-In . SVG Version: 6.00 Build 0)  -->
<!DOCTYPE svg PUBLIC "-//W3C//DTD SVG 1.1//EN" "http://www.w3.org/Graphics/SVG/1.1/DTD/svg11.dtd">
<svg version="1.1" id="Layer_1" xmlns="http://www.w3.org/2000/svg" xmlns:xlink="http://www.w3.org/1999/xlink" x="0px" y="0px"
	 width="100px" height="78px" viewBox="0 0 100 78" enable-background="new 0 0 100 78" xml:space="preserve">
<filter  width="101.1%" height="108.3%" id="filter-1" x="-0.5%" y="-3.0%" filterUnits="objectBoundingBox">
	<feOffset  dx="0" dy="2" in="SourceAlpha" result="shadowOffsetOuter1"></feOffset>
	<feGaussianBlur  stdDeviation="2" in="shadowOffsetOuter1" result="shadowBlurOuter1"></feGaussianBlur>
	
		<feColorMatrix  type="matrix" values="0 0 0 0 0   0 0 0 0 0   0 0 0 0 0  0 0 0 0.0761435688 0" in="shadowBlurOuter1" result="shadowMatrixOuter1">
		</feColorMatrix>
	<feMerge>
		<feMergeNode  in="shadowMatrixOuter1"></feMergeNode>
		<feMergeNode  in="SourceGraphic"></feMergeNode>
	</feMerge>
</filter>
<g id="Page-1">
	<g id="Nairobi-Stay" transform="translate(-401.000000, -850.000000)">
		<g id="filters" transform="translate(168.000000, 785.000000)" filter="url(#filter-1)">
			<g id="stay-white_1_" transform="translate(237.000000, 67.000000)">
				<g id="stay_1_" transform="translate(0.000000, 0.532847)">
					<path id="Fill-1_1_" d="M48.891,24.494c0.519-0.055,1.038-0.109,1.556-0.163C49.903,24.211,49.332,23.647,48.891,24.494
						 M51.397,13.439c-1.163-0.544-1.672-0.604-2.754-0.333C49.542,12.989,50.354,13.5,51.397,13.439 M50.235,52.682
						c1.117,0.475,3.191,0.689,3.57,0.366C52.64,52.928,51.534,52.815,50.235,52.682 M75.626,40.42
						c-0.305,0.977-0.283,1.966-0.139,2.975c0.568-0.16,0.754-0.525,0.557-1.059C75.817,41.719,75.731,41.082,75.626,40.42
						 M53.288,68.501c-0.83,0.158-0.969,0.604-0.676,1.298c0.125,0.297,0.166,0.633,0.227,0.954
						c0.052,0.275-0.053,0.758,0.313,0.708c0.37-0.051,0.722-0.315,0.621-0.924C53.655,69.837,53.478,69.17,53.288,68.501
						 M58.396,15.965c-0.418,0.133-0.65,0.274-0.876,0.265c-0.494-0.022-0.584,0.221-0.462,0.603
						c0.171,0.534,0.016,1.048-0.114,1.535c-0.107,0.404,0.105,1.066-0.688,1.115c-0.166,0.01-0.113,0.34-0.073,0.521
						c0.057,0.261,0.286,0.196,0.472,0.207c0.317,0.021,0.561-0.11,0.617-0.419C57.503,18.528,57.802,17.285,58.396,15.965
						 M43.364,25.641c0.334,0.113,0.639,0.169,0.893,0.316c0.286,0.166,0.377,0.035,0.504-0.182
						c0.406-0.687,0.832-1.363,1.244-2.046c0.074-0.125,0.277-0.329,0.039-0.396c-0.363-0.103-0.797-0.39-1.126,0.069
						C44.391,24.136,43.886,24.887,43.364,25.641 M41.202,20.274c-1.648,0.758-2.667,2.211-3.855,3.517
						c0.826,0.467,1.07,0.518,1.296,0.158C39.433,22.689,40.578,21.692,41.202,20.274 M47.61,24.435
						c0.609,0.235,0.715-0.281,0.757-0.537c0.06-0.366-0.354-0.292-0.601-0.327c-0.787-0.111-1.395,0.055-1.662,0.927
						c-0.117,0.38-0.371,0.731-0.611,1.059c-0.416,0.566-0.444,0.904,0.358,1.144c0.419,0.125,0.544,0.09,0.716-0.276
						c0.22-0.468,0.519-0.889,0.48-1.452C47.021,24.578,47.235,24.354,47.61,24.435 M40.317,24.723
						c0.292-0.014,0.37-0.016,0.442-0.325c0.299-1.282,1.273-2.143,1.956-3.184c0.123-0.188,0.491-0.34,0.119-0.55
						c-0.236-0.133-0.563-0.442-0.869-0.032c-0.832,1.119-1.814,2.123-2.582,3.296c-0.203,0.311-0.176,0.475,0.185,0.575
						C39.832,24.576,40.095,24.657,40.317,24.723 M43.384,21.773c-0.723,0.823-1.384,1.586-1.855,2.49
						c-0.119,0.23-0.576,0.522-0.178,0.732c0.472,0.248,1.133,0.732,1.58,0.25c0.573-0.619,1.135-1.308,1.529-2.173
						C43.478,23.147,43.729,22.314,43.384,21.773 M73.736,26.401c-1.336,2.141-1.931,4.617-3.584,6.527
						c-0.325,0.375-0.284,0.749,0.229,1.068c1.042-2.26,2.671-4.149,3.753-6.385C74.503,26.847,74.101,26.761,73.736,26.401
						 M61.284,29.17c-0.016,0.791,0.292,1.015,1.023,0.721c1.171-0.469,1.799-1.396,2.117-2.565c0.096-0.355-0.03-0.591-0.444-0.606
						C62.993,26.686,61.302,28.219,61.284,29.17 M74.944,27.873c-0.297,0.36-0.611,0.668-0.838,1.031
						c-1.024,1.632-1.991,3.299-3.049,4.91c-0.482,0.734-0.246,1.175,0.351,1.663c0.141-0.234,0.257-0.42,0.364-0.609
						c0.963-1.699,1.923-3.399,2.889-5.096c0.146-0.254,0.257-0.53,0.668-0.486c0.309,0.033,0.361-0.183,0.205-0.437
						C75.351,28.551,75.173,28.25,74.944,27.873 M75.868,29.771c-0.691,0.633-1.324,1.234-1.762,2.001
						c-0.449,0.788-0.949,1.55-1.367,2.354c-1.08,2.074-1.067,2.08,0.469,3.824c0.018,0.021,0.033,0.044,0.047,0.067
						c0.172,0.286,0.316,0.263,0.564,0.037c1.053-0.959,2.083-1.911,1.773-3.544c-0.036-0.189-0.025-0.386-0.053-0.576
						c-0.025-0.184,0.018-0.312,0.193-0.4c0.661-0.336,0.66-0.338,0.417-1.221c-0.257,0.275-0.607,0.495-0.722,0.801
						c-0.48,1.289-1.441,2.275-2.08,3.461c-0.088,0.162-0.173,0.415-0.396,0.347c-0.284-0.086-0.204-0.395-0.137-0.568
						c0.188-0.485,0.41-0.961,0.666-1.415c0.699-1.248,1.307-2.572,2.182-3.686C76.13,30.66,76.501,30.35,75.868,29.771
						 M76.434,29.442c0.011-1.095,0.063-2.047-0.066-3c-0.35-2.581-0.738-5.155-1.124-7.731c-0.525-3.509-0.928-7.04-0.79-10.604
						c0.036-0.906,0.256-1.8,0.163-2.716c-0.059-0.572-0.228-0.929-0.923-0.731c-0.469,0.134-0.966,0.17-1.499,0.258
						c0.563,1.691,1.084,3.367,1.365,5.109c0.43,2.666,0.779,5.321,0.754,8.042c-0.021,2.455-0.529,4.88-0.336,7.34
						c0.023,0.308-0.02,0.608,0.25,0.828C75.224,27.052,75.616,28.27,76.434,29.442 M62.046,58.616
						c0.043,0.035,0.087,0.07,0.131,0.104c0.162-0.181,0.324-0.362,0.488-0.54c2.373-2.581,4.695-5.201,6.504-8.226
						c1.996-3.339,4.673-6.257,6.055-9.983c0.568-1.531,0.785-2.04,0.418-3.328c-0.434,0.552-0.82,1.127-1.291,1.621
						c-0.402,0.424-0.59,0.74,0.057,1.069c0.164,0.083,0.266,0.211,0.145,0.394c-0.075,0.114-0.221,0.089-0.293,0.021
						c-0.67-0.636-0.828-0.044-1.068,0.419c-0.178,0.341-0.385,0.669-0.606,0.982c-0.597,0.846-1.3,1.631-1.786,2.535
						c-0.41,0.764-0.652,1.626-1.056,2.409c-0.882,1.713-1.363,3.602-2.325,5.279c-0.461,0.804-1.096,1.436-2.071,1.45
						c-0.53,0.009-0.603,0.253-0.678,0.649c-0.302,1.595-0.895,3.055-2.017,4.271C62.413,58,62.245,58.323,62.046,58.616
						 M60.21,25.411c1.244,0.044,1.24,0.044,1.434-0.985c0.097-0.514,0.234-1.021,0.309-1.538c0.169-1.189,0.156-1.186-0.998-1.527
						c-0.18-0.053-0.357-0.154-0.504-0.271c-0.369-0.296-0.779-0.359-1.241-0.344c-0.606,0.02-1.22,0.012-1.821-0.062
						c-0.43-0.053-0.861-0.028-1.193,0.173c-0.373,0.226-0.426,0.098-0.686-0.168c-0.565-0.579-1.386-0.819-2.158-0.825
						c-0.49-0.004-0.485,0.716-0.686,1.115c-0.43,0.86-0.817,1.743-1.204,2.625c-0.356,0.812-0.258,0.955,0.551,0.977
						c0.91,0.025,1.817-0.044,2.731,0.086C56.628,24.937,58.491,25.377,60.21,25.411 M64.206,40.328
						c0.162-0.022,0.339-0.012,0.485-0.073c0.382-0.158,0.675-0.807,0.563-0.813c-0.736-0.051-1.031-0.805-1.682-0.924
						c-1.244-0.227-2.485-0.475-3.73-0.693c-2.252-0.397-4.531-0.674-6.752-1.197c-2.513-0.59-5.012-1.252-7.497-1.979
						c-2.731-0.799-5.346-1.855-7.975-2.9c-1.329-0.529-2.686-0.978-4.06-1.379c-0.575-0.168-0.891,0.19-1.011,0.595
						c-0.108,0.364,0.33,0.349,0.601,0.425c1.141,0.322,2.237,0.76,3.343,1.189c1.896,0.738,3.702,1.697,5.658,2.294
						c3.893,1.188,7.879,2.071,11.663,3.62c1.796,0.734,3.741,0.894,5.653,1.152C61.046,39.858,62.597,40.278,64.206,40.328
						 M69.582,33.84c-1.427,1.537-2.331,3.309-3.397,4.974c-0.265,0.413-0.213,0.721,0.168,0.971
						c1.252,0.823,2.168,1.935,2.854,3.248c0.104,0.2,0.232,0.378,0.431,0.486c0.223,0.122,0.52,0.241,0.236,0.528
						c-0.242,0.246-0.467,0.014-0.615-0.18c-0.283-0.372-0.568-0.749-0.795-1.156c-0.477-0.852-1.082-1.574-1.85-2.188
						c-1.014-0.811-0.971-0.816-1.658,0.296c-0.251,0.408-0.162,0.625,0.155,0.893c0.294,0.247,0.546,0.542,0.829,0.804
						c0.965,0.891,1.482,2.115,2.332,3.093c0.502,0.577,0.918,0.543,1.225-0.131c0.217-0.475,0.406-0.962,0.624-1.437
						c0.237-0.52,0.368-1.179,0.767-1.516c1.05-0.887,1.617-2.063,2.27-3.202c0.203-0.356,0.113-0.626-0.162-0.876
						c-0.864-0.787-1.434-1.803-2.113-2.732C70.446,35.119,70.04,34.502,69.582,33.84 M51.169,54.583
						c0.248,0.011,0.5,0.054,0.743,0.026c0.443-0.052,0.874-0.316,0.862-0.729c-0.009-0.324-0.506-0.31-0.835-0.316
						c-0.249-0.005-0.503,0.017-0.745-0.028c-3.064-0.561-6.152-0.975-9.209-1.594c-2.587-0.524-5.246-0.681-7.816-1.307
						c-4.251-1.036-8.517-2.006-12.821-2.793c-0.355-0.064-0.737-0.561-1.142-0.107c-0.306,0.343-0.723,0.545-1.006,0.943
						c-0.3,0.421-0.136,0.583,0.195,0.741c1.163,0.556,2.327,1.11,3.615,1.331c2.551,0.439,5.074,1.065,7.656,1.292
						c2.034,0.179,4.025,0.726,6.079,0.696c1.86-0.028,3.67,0.389,5.499,0.619C45.223,53.733,48.163,54.393,51.169,54.583
						 M63.119,26.351c-0.681-0.59-1.51-0.303-2.192-0.367c-2.363-0.22-4.688-0.74-7.049-0.874c-1.094-0.062-2.312-0.473-3.329,0.399
						c-0.085,0.073-0.245,0.012-0.278-0.096c-0.248-0.819-0.832-0.437-1.33-0.39c-0.272,0.026-0.572,0.086-0.818,0.005
						c-0.454-0.149-0.644,0.107-0.741,0.429c-0.362,1.189-0.938,2.29-1.462,3.404c-0.311,0.662-0.09,0.816,0.461,0.937
						c2.109,0.464,4.247,0.702,6.401,0.533c0.748-0.059,1.466-0.047,2.21,0.012c1.729,0.139,3.465,0.102,5.176-0.257
						c0.195-0.041,0.479,0.035,0.48-0.31C60.654,28.078,61.833,27.213,63.119,26.351 M41.542,3.116
						c1.224,0.319,2.39-0.04,3.564-0.064C47.593,3,50.079,3.057,52.569,3.14c4.857,0.165,9.682,0.968,14.561,0.755
						c0.652-0.029,1.313,0.195,1.973,0.213c1.546,0.041,3.092,0.281,4.641,0.064c0.232-0.033,0.629-0.002,0.615-0.276
						c-0.02-0.348,0.049-0.803-0.369-1.031c-0.167-0.091-0.346-0.183-0.53-0.221C71.352,2.212,69.255,1.7,67.13,1.388
						c-2.753-0.404-5.533-0.635-8.316-0.729c-2.895-0.098-5.788-0.019-8.676,0.276C48.329,1.12,46.53,1.379,44.69,1.318
						c-1.236-0.041-2.709-0.145-3.125,1.592C41.553,2.962,41.553,3.016,41.542,3.116 M52.45,55.803
						c0.066,1.248,0.532,2.49,0.527,3.796c-0.001,0.089,0.109,0.262,0.128,0.257c0.632-0.176,0.981,0.425,1.519,0.538
						c1.389,0.293,2.738,0.013,4.098-0.16c0.589-0.075,1.043-0.437,1.547-0.726c1.072-0.619,1.602-1.709,2.379-2.568
						c1.096-1.213,1.853-2.657,1.553-4.422c-0.067-0.394,0.187-0.438,0.527-0.357c1.115,0.258,1.701,0.018,2.325-0.978
						c0.842-1.342,1.249-2.874,1.857-4.317c0.046-0.11,0.105-0.351-0.042-0.334c-0.998,0.117-1.103-0.785-1.465-1.313
						c-0.689-0.999-1.395-1.982-2.186-2.9c-0.396-0.463-0.695-0.661-1.285-0.039c-1.332,1.406-2.212,3.172-3.678,4.455
						c-0.351,0.308-0.351,0.676-0.188,1.053c0.911,2.121,1.443,4.387,2.506,6.45c0.254,0.493,0.201,1.039-0.201,1.375
						c-1.75,1.463-3.41,3.036-5.389,4.224c-0.681,0.409-0.773,0.204-1-0.381c-0.55-1.42-0.773-2.911-1.121-4.376
						c-0.1-0.421-0.073-0.985-0.656-1.137c-0.609-0.159-0.944,0.274-1.344,0.622C52.472,54.905,52.491,55.327,52.45,55.803
						 M68.933,25.184c-0.754-0.033-1.012,0.818-1.742,0.738c-0.626-0.068-1.045,0.322-1.347,0.895
						c-0.522,0.994-1.287,1.836-1.815,2.841c-0.242,0.459-0.156,0.623,0.188,0.841c0.863,0.548,1.793,0.962,2.729,1.369
						c0.295,0.129,0.352,0.005,0.479-0.199c1.172-1.895,2.353-3.785,3.387-5.761c0.102-0.193,0.236-0.374,0.381-0.539
						c0.168-0.191,0.412-0.222,0.594-0.064c0.266,0.231,0.04,0.374-0.155,0.5c-0.295,0.19-0.424,0.499-0.571,0.796
						c-0.734,1.485-1.586,2.9-2.522,4.268c-0.264,0.386-0.681,0.826-0.647,1.208c0.033,0.386,0.716,0.351,1.096,0.538
						c0.147,0.073,0.354,0.12,0.283,0.33c-0.068,0.207-0.275,0.279-0.48,0.221c-0.289-0.084-0.57-0.196-0.851-0.311
						c-1.624-0.66-3.304-1.22-4.581-2.509c-0.095-0.097-0.197-0.285-0.318-0.144c-0.627,0.737-1.447,0.27-2.172,0.377
						c-2.248,0.334-4.498,0.47-6.762,0.149c-0.349-0.049-0.708-0.005-1.068,0.058c-0.905,0.157-1.826,0.136-2.732,0.016
						c-1.605-0.214-3.225-0.291-4.815-0.712c-0.745-0.198-0.528-0.371-0.321-0.761c0.258-0.484,0.5-0.978,0.766-1.457
						c0.158-0.285,0.094-0.451-0.203-0.567c-0.794-0.31-1.49-0.826-2.313-1.082c-1.941-0.604-3.849-1.316-5.837-1.771
						c-0.407-0.093-0.594-0.04-0.805,0.284c-1.028,1.567-1.921,3.224-3.078,4.706c-0.234,0.299-0.139,0.438,0.158,0.53
						c2.16,0.667,4.26,1.498,6.343,2.372c2.262,0.95,4.633,1.569,6.97,2.298c2.479,0.773,5.002,1.372,7.542,1.822
						c3.223,0.571,6.474,0.99,9.676,1.688c0.382,0.084,0.932-0.025,0.829,0.713c-0.033,0.236,0.313,0.184,0.449,0.066
						c0.162-0.138,0.281-0.338,0.38-0.531c0.972-1.887,2.169-3.668,3.483-5.283c1.698-2.086,2.511-4.548,3.69-6.854
						c0.095-0.184,0.22-0.499-0.067-0.669c-0.807-0.479-1.715-0.58-2.623-0.591c-0.545-0.007-0.547,0.613-0.775,0.922
						c-0.933,1.26-1.777,2.587-2.585,3.932c-0.257,0.427-0.373,0.892-0.972,0.961c-0.154,0.019-0.273,0.34-0.479,0.14
						c-0.211-0.204-0.015-0.415,0.091-0.594c0.573-0.972,1.063-1.991,1.796-2.87C68.159,26.819,68.519,26.018,68.933,25.184
						 M60.53,45.926c1.162-1.399,2.006-2.865,3.265-3.991c0.466-0.417,0.206-1.097-0.438-1.104
						c-1.454-0.017-2.813-0.535-4.233-0.697c-1.702-0.193-3.424-0.371-5.018-0.993c-2.854-1.112-5.798-1.919-8.715-2.823
						c-2.416-0.748-4.869-1.346-7.173-2.48c-1.536-0.756-3.134-1.473-4.822-1.91c-1.292-0.336-1.285-0.352-2.079,0.709
						c-0.231,0.309-0.524,0.582-0.708,0.916c-1.045,1.889-2.952,3.219-3.439,5.497c-0.153,0.716-0.846,1.317-1.333,2.032
						c0.819-0.139,1.546,0.043,2.26,0.111c3.881,0.372,7.68,1.266,11.445,2.219c4.488,1.135,8.989,2.188,13.53,3.084
						c1.732,0.341,3.497,0.482,5.22,0.826c0.77,0.153,0.973-0.107,1.23-0.64c0.349-0.722,0.726-1.429,1.162-2.284
						C60.837,44.987,60.458,45.287,60.53,45.926 M42.866,20.055c0-0.578-0.058-1.159,0.012-1.726
						c0.158-1.299,0.133-2.657,0.991-3.773c0.47-0.611,0.955-1.213,1.269-1.922c0.164-0.37,0.354-0.542,0.806-0.491
						c0.952,0.107,1.913,0.171,2.872,0.183c0.799,0.011,1.6-0.034,2.373,0.191c1.358,0.396,2.756,0.499,4.155,0.599
						c0.815,0.059,1.55,0.759,1.648,1.483c0.049,0.36-0.294,0.852,0.282,1.078c0.639,0.252,0.973-0.192,1.319-0.585
						c0.163-0.184,0.324-0.379,0.435-0.596c0.182-0.357,0.428-0.452,0.839-0.504c1.597-0.203,3.136,0.196,4.697,0.344
						c0.853,0.08,1.704,0.191,2.545,0.349c0.761,0.143,1.535,0.007,2.295,0.489c0.464,0.294,0.754,0.426,0.74,1.001
						c-0.01,0.405,0.079,0.824,0.183,1.221c0.6,2.3,0.387,4.517-0.645,6.658c-0.275,0.571,0.232,0.427,0.464,0.455
						c0.978,0.117,1.983,0.026,2.91,0.491c0.487,0.245,0.392-0.181,0.393-0.425c0.007-1.132,0.069-2.258,0.196-3.384
						c0.247-2.195,0.297-4.412,0.084-6.597c-0.296-3.035-0.805-6.051-1.792-8.958c-0.146-0.43-0.306-0.969-0.899-0.943
						c-1.389,0.062-2.742-0.268-4.115-0.325c-2.729-0.113-5.457,0.023-8.193-0.31c-2.896-0.352-5.834-0.363-8.752-0.54
						c-2.875-0.174-5.736,0.227-8.607,0.173c-0.535-0.01-0.669,0.356-0.719,0.819c-0.266,2.459-0.496,4.92-0.454,7.398
						c0.011,0.58-0.063,1.154-0.103,1.729c-0.125,1.871-0.094,3.744,0.115,5.61c0.023,0.206,0.126,0.592,0.254,0.538
						C41.301,19.432,41.99,20.109,42.866,20.055 M61.755,59.108c-0.063-0.007-0.128-0.035-0.158-0.014
						c-0.271,0.191-0.541,0.384-0.801,0.589c-2.088,1.645-4.442,1.585-6.84,0.998c-0.972-0.238-1.27-0.124-1.289,0.896
						c-0.037,1.898,0.734,3.68,0.828,5.561c0.012,0.229,0.562,0.457,0.095,0.643c-0.376,0.15-0.433-0.32-0.56-0.572
						c-0.124-0.242-0.316-0.504-0.307-0.751c0.063-1.612-0.5-3.149-0.551-4.746c-0.006-0.171,0.135-0.401-0.256-0.454
						c-0.572-0.078-0.346-0.364-0.048-0.563c0.632-0.422,0.658-1.019,0.556-1.684c-0.156-1.004-0.344-2.01-0.403-3.021
						c-0.036-0.612-0.305-0.833-0.837-0.892c-0.961-0.105-1.932-0.154-2.883-0.323c-3.389-0.599-6.789-1.162-10.21-1.491
						c-2.991-0.288-5.967-0.697-8.937-1.104c-3.318-0.455-6.668-0.922-9.78-2.293c-0.574-0.252-0.792-0.076-0.956,0.439
						c-0.619,1.945-1.519,3.77-2.395,5.606c-0.142,0.297-0.445,0.647-0.376,0.887c0.139,0.476,0.604-0.001,0.915,0.136
						c0.251,0.109,0.526,0.162,0.789,0.246c0.548,0.179,1.082,0.453,1.643,0.525c1.772,0.231,3.552,0.428,5.271-0.35
						c0.694-0.314,1.286-0.184,1.845,0.425c0.895,0.973,2.139,1.325,3.389,1.56c1.333,0.249,2.715,0.282,4.035,0.131
						c1.201-0.138,2.235-0.033,3.386,0.346c2.159,0.713,4.398,0.615,6.632,0.125c0.968-0.213,2.027-0.281,2.946,0.148
						c1.273,0.596,2.518,1.11,3.963,0.774c0.229-0.054,0.553-0.034,0.542,0.325c-0.011,0.342-0.303,0.32-0.56,0.331
						c-1.344,0.06-2.63-0.13-3.856-0.729c-0.833-0.408-1.749-0.531-2.657-0.355c-2.387,0.466-4.754,0.549-7.133-0.073
						c-0.658-0.171-1.266-0.651-1.975-0.5c-1.319,0.28-2.64,0.105-3.956,0.077c-1.837-0.041-3.59-0.527-5.017-1.677
						c-0.778-0.626-1.406-0.601-2.183-0.243c-0.5,0.229-1.012,0.541-1.567,0.441c-1.453-0.26-2.994,0.037-4.372-0.702
						c-0.307-0.165-0.569-0.079-0.459,0.349c0.173,0.676,0.118,1.371,0.202,2.055c0.163,1.334,0.481,2.686,0.496,3.991
						c0.014,1.216,0.6,0.933,1.248,1.017c1.184,0.15,2.403-0.016,3.552,0.225c2.454,0.514,4.931,0.862,7.4,1.27
						c0.951,0.156,1.891,0.34,2.864,0.348c0.964,0.009,1.925,0.085,2.883,0.236c3.268,0.516,6.547,0.888,9.867,0.91
						c2.381,0.016,4.754-0.129,7.131-0.207c0.33-0.012,0.657,0.359,0.989,0.003c0.56-0.6,1.228-1.072,1.762-1.722
						C57.649,63.84,59.714,61.489,61.755,59.108 M74.917,42.256c-2.629,3.873-5.197,7.803-7.93,11.615
						c-1.279,1.783-2.819,3.396-4.342,4.99c-2.159,2.262-4.031,4.762-6.138,7.062c-0.541,0.592-1.048,1.227-1.655,1.742
						c-0.994,0.841-0.967,1.839-0.624,2.928c0.103,0.328,0.372,0.655,0.029,0.979c-0.43,0.406-1.001,0.555-1.548,0.672
						c-0.219,0.047-0.383-0.344-0.328-0.572c0.206-0.87-0.163-1.672-0.244-2.506c-0.048-0.478-0.323-0.674-0.858-0.639
						c-3.396,0.229-6.799,0.219-10.188-0.066c-2.023-0.17-4.023-0.682-6.047-0.785c-2.9-0.148-5.734-0.742-8.61-1.029
						c-0.679-0.068-1.345-0.287-2.013-0.455c-1.92-0.48-3.887-0.416-5.84-0.533c-0.636-0.038-0.843,0.246-0.799,0.834
						c0.054,0.74,0.1,1.48,0.12,2.223c0.018,0.684,0.473,0.691,0.962,0.68c0.163-0.448-0.113-0.934,0.187-1.46
						c0.342,0.612,0.294,1.253,0.492,1.82c0.07,0.2-0.171,0.344-0.368,0.366c-0.978,0.109-1.75-0.596-1.744-1.607
						c0.007-1.313,0.183-2.645,0.026-3.937c-0.27-2.229-0.154-4.489-0.587-6.704c-0.061-0.311-0.203-0.354-0.423-0.359
						c-0.303-0.008-0.607,0.031-0.911,0.025c-0.537-0.012-0.673-0.184-0.387-0.716c1.302-2.418,2.354-4.934,3.228-7.547
						c0.308-0.921,1.144-1.786,1.956-2.491c1.63-1.414,3.023-3.039,4.219-4.818c0.284-0.422,0.594-0.771,0.91-1.148
						c0.472-0.563,1.063-1.079,1.091-1.992c0.02-0.656,0.647-1.187,1.048-1.748c2.945-4.125,6.298-7.967,8.807-12.394
						c0.888-1.565,2.159-2.769,3.349-4.06c0.295-0.32,0.48-0.541,0.167-0.97c-0.163-0.224-0.198-0.576-0.206-0.872
						c-0.113-3.634-0.079-7.259,0.218-10.892c0.111-1.357,0.302-2.728,0.271-4.101c-0.008-0.347,0.085-0.518,0.426-0.681
						c0.697-0.333,1.057-0.992,1.304-1.691c0.11-0.312,0.187-0.554,0.596-0.538c2.458,0.095,4.909-0.042,7.345-0.357
						c2.311-0.299,4.63-0.309,6.951-0.35c3.324-0.059,6.633,0.216,9.896,0.743c2.424,0.391,4.9,0.602,7.244,1.43
						c1.002-0.385,0.715,0.254,0.851,0.863c0.589,2.637-0.079,5.273,0.149,7.904c0.297,3.4,0.628,6.787,1.209,10.16
						c0.4,2.316,0.741,4.667,0.779,7.046c0.028,1.722,0.127,3.44-0.103,5.153c-0.069,0.516-0.12,1.074-0.358,1.519
						c-0.365,0.687-0.484,1.386-0.208,2.058c0.429,1.043-0.087,2.032-0.024,3.048c0.049,0.786,0.004,1.532,0.578,2.226
						c0.247,0.298,0.044,0.982-0.406,1.189c-0.529,0.244-0.893,1.102-1.391,0.86c-0.546-0.265,0.043-1.036-0.092-1.58
						C74.901,42.594,75.019,42.365,74.917,42.256"/>
					<path id="Fill-4_1_" d="M19.055,67.325c-0.077-0.02-0.12-0.018-0.127-0.033c-0.188-0.412-0.476-0.812-0.236-1.297
						c0.02-0.041,0.182-0.068,0.207-0.04C19.273,66.377,19.074,66.85,19.055,67.325"/>
				</g>
			</g>
		</g>
	</g>
</g>
</svg>
