<?xml version="1.0" encoding="utf-8"?>
<!-- Generator: Adobe Illustrator 16.0.0, SVG Export Plug-In . SVG Version: 6.00 Build 0)  -->
<!DOCTYPE svg PUBLIC "-//W3C//DTD SVG 1.1//EN" "http://www.w3.org/Graphics/SVG/1.1/DTD/svg11.dtd">
<svg version="1.1" id="Layer_1" xmlns="http://www.w3.org/2000/svg" xmlns:xlink="http://www.w3.org/1999/xlink" x="0px" y="0px"
	 width="100px" height="78px" viewBox="0 0 100 78" enable-background="new 0 0 100 78" xml:space="preserve">
<filter  height="108.3%" width="101.1%" id="filter-1" filterUnits="objectBoundingBox" y="-3.0%" x="-0.5%">
	<feOffset  result="shadowOffsetOuter1" in="SourceAlpha" dy="2" dx="0"></feOffset>
	<feGaussianBlur  stdDeviation="2" result="shadowBlurOuter1" in="shadowOffsetOuter1"></feGaussianBlur>
	
		<feColorMatrix  type="matrix" values="0 0 0 0 0   0 0 0 0 0   0 0 0 0 0  0 0 0 0.0761435688 0" result="shadowMatrixOuter1" in="shadowBlurOuter1">
		</feColorMatrix>
	<feMerge>
		<feMergeNode  in="shadowMatrixOuter1"></feMergeNode>
		<feMergeNode  in="SourceGraphic"></feMergeNode>
	</feMerge>
</filter>
<g id="Page-1_1_">
	<g id="Nairobi-Stay" transform="translate(-1171.000000, -848.000000)">
		<g id="filters" transform="translate(168.000000, 785.000000)" filter="url(#filter-1)">
			<g id="work_1_" transform="translate(1007.000000, 65.000000)">
				<g id="Page-1_2_">
					<defs>
						<filter id="Adobe_OpacityMaskFilter" filterUnits="userSpaceOnUse" x="21" y="-0.375" width="47.66" height="75.375">
							<feColorMatrix  type="matrix" values="1 0 0 0 0  0 1 0 0 0  0 0 1 0 0  0 0 0 1 0"/>
						</filter>
					</defs>
					<mask maskUnits="userSpaceOnUse" x="21" y="-0.375" width="47.66" height="75.375" id="mask-3_1_">
						<g filter="url(#Adobe_OpacityMaskFilter)">
							<polygon id="path-2_1_" fill="#FFFFFF" points="21,-0.375 68.66,-0.375 68.66,75 21,75 							"/>
						</g>
					</mask>
					<path id="Fill-1_1_" mask="url(#mask-3_1_)" fill="#231F20" d="M49.65,70.804c-0.597,0.046-1.143,0.073-1.685,0.132
						c-1.048,0.111-1.458,0.834-1.312,2.178c0.133,1.215,0.968,0.565,1.523,0.584c0.427,0.014,0.865-0.066,1.283-0.164
						c0.715-0.167,1.072-1.01,0.566-1.49C49.621,71.655,49.681,71.236,49.65,70.804 M53.604,64.934
						c-4.195,0.143-8.424-0.434-12.105,2.303c0.871,0.443,1.717,0.657,2.633,0.197c1.897-0.951,3.96-1.22,6.023-1.568
						C51.282,65.675,52.621,66.124,53.604,64.934 M54.316,61.989c-1.625,0.323-3.285,0.529-4.867,0.999
						c-2.533,0.748-5.021,1.19-7.578,0.172c-0.355-0.142-0.762-0.221-1.123,0.059c-0.271,0.209-0.619,0.344-0.599,0.793
						c0.014,0.306,0.078,0.611,0.39,0.637c0.812,0.067,1.63,0.394,2.438,0.139c2.266-0.713,4.635-1.006,6.942-0.836
						C51.837,64.094,53.164,63.5,54.316,61.989 M48.965,45.012c-0.436,0.166-0.416,0.964-1.008,0.811
						c-0.635-0.164-0.69-0.797-0.816-1.328c-0.1-0.42-0.164-0.848-0.243-1.271c-0.063-0.336,0.001-0.775-0.464-0.844
						c-0.318-0.046-0.604,0.144-0.807,0.41c-1.135,1.5-1.46,3.757,0.286,5.287c0.321,0.281,0.651,0.359,1.044,0.022
						c0.799-0.684,1.221-1.719,2.195-2.253C49.36,45.73,49.227,45.263,48.965,45.012 M40.628,61.271
						c0.967-0.086,1.46,0.74,2.2,0.995c1.382,0.476,2.803,0.548,4.271,0.187c1.592-0.393,3.136-1.003,4.798-1.115
						c0.573-0.038,0.865-0.452,0.943-1.109c-2.184,0.396-4.33,0.292-6.476,0.072c-0.595-0.063-0.729,0.21-0.722,0.748
						c0.004,0.228-0.125,0.573-0.478,0.575c-0.399,0.003-0.378-0.321-0.388-0.595c-0.013-0.352-0.107-0.669-0.535-0.587
						C43.052,60.67,41.771,60.487,40.628,61.271 M42.068,26.742c-0.295,0.852,0.239,1.643,0.319,2.491
						c0.04,0.417,0.198,0.807,0.748,0.347c0.596-0.497,1.15-0.315,1.674,0.182c0.676,0.639,1.403,0.557,1.715-0.28
						c0.284-0.766,0.536-1.441,1.156-2.078c0.89-0.912,0.548-1.59-0.734-1.783c-0.44-0.066-0.87-0.094-1.175-0.443
						c-0.413-0.471-0.821-0.545-1.315-0.116c-0.221,0.191-0.505,0.135-0.79,0.109C42.473,25.057,42.034,25.489,42.068,26.742
						 M41.573,69.692c1.455,0.362,0.773,0.863,0.087,1.366c-0.063,0.047-0.116,0.107-0.177,0.156
						c-0.261,0.213-0.475,0.451-0.233,0.797c0.247,0.352,0.542,0.175,0.836,0.05c0.375-0.159,0.69-0.344,0.783-0.798
						c0.098-0.479,0.495-0.717,0.92-0.808c1.263-0.267,2.521-0.554,3.831-0.558c2.232-0.006,4.404-0.233,6.1-1.959
						c0.231-0.236,0.475-0.432,0.433-0.772c-0.054-0.432-0.415-0.377-0.73-0.405c-3.801-0.331-7.241,1.15-10.775,2.146
						C42.274,69.012,41.812,69.174,41.573,69.692 M34.334,24.936c0.061,1.709,0.523,2.964,1.181,4.2
						c1.121,2.106,1.735,4.504,3.395,6.295c1.685,1.819,2.804,3.972,3.959,6.114c0.349,0.646,0.608,1.342,0.91,2.015
						c0.668-0.42,0.801-1.22,1.274-1.782c0.859-1.023,2.063-0.858,2.617,0.379c0.125,0.281,0.217,0.576,0.373,0.996
						c0.588-0.615,1.539-0.599,1.936-1.079c0.449-0.542,0.463-1.466,0.599-2.235c0.578-3.278,1.151-6.547,2.002-9.779
						c0.476-1.81,1.911-3.646,0.591-5.699c-0.162-0.252-0.15-0.644-0.529-0.695c-0.393-0.055-0.516,0.302-0.672,0.563
						c-0.365,0.605-0.719,1.217-1.068,1.83c-0.152,0.268-0.43,0.519-0.654,0.299c-1.114-1.092-0.902,0.095-1.063,0.597
						c-0.215,0.676-0.394,1.36-0.371,2.083c0.014,0.426-0.176,0.928-0.562,0.913c-0.733-0.027-0.577,0.542-0.833,0.855
						c-0.471,0.573-0.843,1.582-1.81,1.249c-0.489-0.169-1.112-0.401-1.444-0.944c-0.362-0.595-0.605-0.254-0.835,0.121
						c-0.142,0.23-0.258,0.482-0.432,0.686c-0.217,0.255-0.369,0.67-0.814,0.567c-0.479-0.112-0.346-0.559-0.398-0.882
						c-0.315-1.937-0.572-3.879-0.674-5.841c-0.03-0.563-0.146-1.145-0.73-1.381c-0.664-0.268-1.196,0.138-1.517,0.631
						c-0.664,1.021-1.103,0.389-1.47-0.174c-0.475-0.728-0.842-1.069-1.388-0.067C35.593,25.341,35.129,25.694,34.334,24.936
						 M21.862,23.009c0.098,1.185-0.188,2.875,0.332,4.469c1.026,3.144,2.239,6.263,4.163,8.938
						c2.522,3.505,4.759,7.209,7.48,10.574c2.479,3.063,3.953,6.67,5.481,10.246c0.353,0.826,0.27,2.092,1.026,2.408
						c0.754,0.317,1.824-0.205,2.751-0.182c1.086,0.027,1.646-0.141,1.303-1.424c-0.177-0.662,0.002-1.41-0.054-2.115
						c-0.32-4.052,0.436-8.211-1.675-12.076c-1.142-2.089-2.004-4.338-3.457-6.252c-2.7-3.559-4.938-7.344-6-11.729
						c-0.144-0.595-0.445-1.081-0.833-1.54c-0.254-0.302-0.479-0.63-0.14-1.041c0.319-0.386,0.721-0.507,1.161-0.331
						c0.359,0.144,0.74,0.332,1.003,0.605c0.647,0.671,1.044,0.514,1.339-0.29c0.319-0.866,0.825-0.838,1.425-0.281
						c0.201,0.187,0.407,0.377,0.567,0.597c0.323,0.446,0.601,0.533,1.001,0.056c0.677-0.81,1.435-0.856,2.247-0.146
						c0.32,0.28,0.99,0.725,1.014,0.696c0.699-0.85,1.695-0.251,2.461-0.548c0.636-0.246,1.056-0.188,1.617,0.195
						c0.762,0.521,1.598,1.029,2.576,0.286c0.324-0.246,0.861-0.438,1.221-0.104c0.724,0.67,0.835,0.183,1.192-0.388
						c0.448-0.718,0.926-1.746,2.062-1.347c0.821,0.289,1.059,1.476,2.117,1.575c0.162,0.014,0.123,0.411,0.053,0.648
						c-0.182,0.601-0.352,1.204-0.522,1.808c-0.714,2.527-1.693,5.014-2.085,7.59c-0.822,5.417-2.186,10.731-2.824,16.188
						c-0.295,2.517-0.596,5.044-0.906,7.564c-0.064,0.523-0.014,1.148-0.717,1.117c-0.747-0.032-0.686-0.755-0.568-1.193
						c0.59-2.204,0.404-4.52,1.038-6.715c0.204-0.711,0.257-1.47,0.336-2.211c0.031-0.289,0.143-0.695-0.245-0.821
						c-0.31-0.1-0.432,0.28-0.633,0.448c-0.771,0.645-1.424,1.535-2.656,0.759c-0.505-0.318-0.547,0.236-0.521,0.571
						c0.214,2.781,0.419,5.563,0.292,8.359c-0.038,0.819,0.383,1.105,1.281,1.192c2.388,0.229,4.771,0.062,7.152,0.152
						c0.479,0.019,0.705-0.127,0.757-0.648c0.14-1.437,0.412-2.862,0.497-4.301c0.155-2.638,1.285-4.894,2.936-6.806
						c2.861-3.314,5.592-6.686,7.197-10.809c1.325-3.4,2.703-6.877,2.532-10.547c-0.149-3.219-0.785-6.457-1.753-9.568
						c-0.828-2.663-1.986-5.185-3.686-7.451c-1.488-1.988-2.846-4.08-5.236-5.135c-1.149-0.507-2.389-0.862-3.444-1.516
						c-1.633-1.012-3.379-1.392-5.247-1.473c-2.256-0.098-4.51-0.226-6.765-0.339c-3.298-0.167-6.503,0.323-9.55,1.578
						c-3.296,1.358-5.244,4.172-7.042,7.02C22.371,13.351,21.696,17.873,21.862,23.009 M41.211,68.533
						c-0.441-0.218-0.639-0.355-0.859-0.418c-0.994-0.286-0.835-0.803-0.246-1.335c0.534-0.483,0.867-0.718-0.111-1.183
						c-0.98-0.465-1.015-1.537-0.652-2.463c0.232-0.592,0.26-1.031-0.166-1.504c-0.213-0.235-0.441-0.555-0.282-0.854
						c0.578-1.086,0.024-1.994-0.439-2.885c-1.125-2.164-1.44-4.672-2.846-6.709c-1.76-2.551-3.675-5.004-5.301-7.635
						c-1.533-2.48-3.651-4.533-5.027-7.104c-1.481-2.767-2.869-5.583-3.882-8.561c-0.187-0.549-0.259-1.157-0.274-1.74
						c-0.106-4.121-0.473-8.312,0.901-12.27c1.981-5.706,4.941-10.782,11.002-13.081c1.957-0.742,4.043-1.03,6.212-1.141
						c3.361-0.172,6.658,0.488,9.992,0.325c1.267-0.063,2.454,0.347,3.503,0.92c1.489,0.813,3.037,1.48,4.574,2.175
						c2.566,1.159,4.086,3.35,5.65,5.521c2.823,3.917,4.287,8.35,5.049,13.058c0.125,0.772,0.271,1.542,0.418,2.311
						c0.854,4.529-0.787,8.622-2.326,12.698c-1.529,4.047-3.895,7.611-6.898,10.732c-2.4,2.496-3.15,5.609-3.478,8.896
						c-0.183,1.84,0.026,3.659,0.147,5.492c0.058,0.895-1.129,1.856,0.042,2.834c0.007,0.006-0.186,0.34-0.339,0.432
						c-0.564,0.341-0.482,0.598,0.05,0.871c0.128,0.065,0.26,0.213,0.297,0.35c0.295,1.071-0.261,2.091,0.054,3.302
						c0.323,1.248-1.438,1.682-2.563,1.88c-1.165,0.205-1.966,0.467-2.068,1.841c-0.072,0.972-0.837,1.317-1.775,1.372
						c-0.86,0.049-1.72,0.165-2.569,0.306c-0.997,0.164-1.598-0.3-1.564-1.303c0.012-0.351,0.111-0.697,0.166-1.046
						c0.069-0.441,0.416-0.99-0.039-1.289c-0.43-0.283-0.946,0.107-1.29,0.379c-0.688,0.545-1.432,0.971-2.248,1.236
						c-1.442,0.471-2.239-0.186-2.003-1.635c0.059-0.357,0.008-0.541-0.322-0.598c-0.412-0.07-0.652-0.3-0.673-0.697
						c-0.026-0.474,0.338-0.67,0.709-0.834C40.152,68.996,40.573,68.814,41.211,68.533"/>
				</g>
			</g>
		</g>
	</g>
</g>
</svg>
