<?xml version="1.0" encoding="utf-8"?>
<!-- Generator: Adobe Illustrator 16.0.0, SVG Export Plug-In . SVG Version: 6.00 Build 0)  -->
<!DOCTYPE svg PUBLIC "-//W3C//DTD SVG 1.1//EN" "http://www.w3.org/Graphics/SVG/1.1/DTD/svg11.dtd">
<svg version="1.1" id="Layer_1" xmlns="http://www.w3.org/2000/svg" xmlns:xlink="http://www.w3.org/1999/xlink" x="0px" y="0px"
	 width="100px" height="78px" viewBox="0 0 100 78" enable-background="new 0 0 100 78" xml:space="preserve">
<filter  width="101.1%" height="108.3%" id="filter-1" x="-0.5%" y="-3.0%" filterUnits="objectBoundingBox">
	<feOffset  dx="0" dy="2" in="SourceAlpha" result="shadowOffsetOuter1"></feOffset>
	<feGaussianBlur  stdDeviation="2" in="shadowOffsetOuter1" result="shadowBlurOuter1"></feGaussianBlur>
	
		<feColorMatrix  type="matrix" values="0 0 0 0 0   0 0 0 0 0   0 0 0 0 0  0 0 0 0.0761435688 0" in="shadowBlurOuter1" result="shadowMatrixOuter1">
		</feColorMatrix>
	<feMerge>
		<feMergeNode  in="shadowMatrixOuter1"></feMergeNode>
		<feMergeNode  in="SourceGraphic"></feMergeNode>
	</feMerge>
</filter>
<g id="Page-1_1_">
	<g id="Nairobi-Stay" transform="translate(-1171.000000, -848.000000)">
		<g id="filters" transform="translate(168.000000, 785.000000)" filter="url(#filter-1)">
			<g id="work_2_" transform="translate(1007.000000, 65.000000)">
				<g id="Page-1_3_">
					<defs>
						<filter id="Adobe_OpacityMaskFilter" filterUnits="userSpaceOnUse" x="21.001" y="-0.379" width="47.66" height="75.377">
							<feColorMatrix  type="matrix" values="1 0 0 0 0  0 1 0 0 0  0 0 1 0 0  0 0 0 1 0"/>
						</filter>
					</defs>
					<mask maskUnits="userSpaceOnUse" x="21.001" y="-0.379" width="47.66" height="75.377" id="mask-3_2_">
						<g filter="url(#Adobe_OpacityMaskFilter)">
							<polygon id="path-2_2_" fill="#FFFFFF" points="21,-0.375 68.66,-0.375 68.66,75 21,75 							"/>
						</g>
					</mask>
					<path id="Fill-1_2_" mask="url(#mask-3_2_)" fill="#FFFFFF" d="M49.65,70.805c-0.598,0.045-1.144,0.072-1.686,0.131
						c-1.048,0.111-1.458,0.834-1.313,2.179c0.134,1.215,0.969,0.565,1.523,0.584c0.428,0.014,0.865-0.066,1.283-0.164
						c0.715-0.167,1.072-1.011,0.566-1.49C49.621,71.654,49.682,71.236,49.65,70.805 M53.604,64.934
						c-4.194,0.144-8.423-0.434-12.104,2.303c0.871,0.443,1.717,0.658,2.633,0.197c1.897-0.951,3.96-1.22,6.022-1.567
						C51.282,65.675,52.621,66.124,53.604,64.934 M54.316,61.989c-1.625,0.323-3.285,0.528-4.867,0.999
						c-2.533,0.748-5.021,1.189-7.578,0.172c-0.355-0.143-0.762-0.221-1.123,0.059c-0.271,0.209-0.619,0.344-0.599,0.793
						c0.014,0.307,0.078,0.611,0.39,0.637c0.812,0.067,1.63,0.395,2.438,0.14c2.266-0.713,4.634-1.006,6.942-0.836
						C51.837,64.094,53.164,63.5,54.316,61.989 M48.965,45.012c-0.436,0.166-0.416,0.965-1.008,0.812
						c-0.635-0.164-0.689-0.798-0.816-1.328c-0.1-0.42-0.164-0.849-0.242-1.271c-0.063-0.336,0-0.775-0.464-0.845
						c-0.318-0.046-0.604,0.144-0.807,0.41c-1.135,1.5-1.46,3.757,0.286,5.287c0.321,0.28,0.651,0.358,1.044,0.022
						c0.799-0.685,1.221-1.72,2.195-2.254C49.359,45.73,49.227,45.264,48.965,45.012 M40.628,61.271
						c0.967-0.086,1.46,0.739,2.2,0.994c1.382,0.477,2.803,0.549,4.271,0.188c1.592-0.393,3.135-1.003,4.797-1.115
						c0.574-0.038,0.865-0.452,0.943-1.109c-2.184,0.396-4.33,0.293-6.476,0.072c-0.595-0.063-0.729,0.21-0.722,0.748
						c0.004,0.229-0.125,0.573-0.478,0.575c-0.399,0.003-0.378-0.321-0.388-0.595c-0.013-0.353-0.107-0.67-0.535-0.588
						C43.052,60.67,41.771,60.486,40.628,61.271 M42.068,26.742c-0.295,0.852,0.239,1.643,0.319,2.491
						c0.04,0.417,0.198,0.807,0.748,0.347c0.596-0.497,1.15-0.315,1.674,0.182c0.676,0.639,1.403,0.557,1.714-0.28
						c0.285-0.766,0.537-1.441,1.156-2.078c0.891-0.912,0.549-1.59-0.734-1.783c-0.439-0.066-0.869-0.094-1.174-0.443
						c-0.413-0.471-0.821-0.545-1.315-0.116c-0.221,0.191-0.505,0.135-0.79,0.109C42.473,25.057,42.034,25.489,42.068,26.742
						 M41.573,69.691c1.455,0.363,0.773,0.863,0.087,1.367c-0.063,0.047-0.116,0.106-0.177,0.155
						c-0.261,0.213-0.475,0.451-0.233,0.797c0.247,0.353,0.542,0.175,0.836,0.05c0.375-0.158,0.69-0.344,0.783-0.797
						c0.098-0.479,0.495-0.718,0.92-0.809c1.263-0.268,2.521-0.555,3.831-0.559c2.231-0.006,4.403-0.232,6.101-1.959
						c0.23-0.235,0.475-0.432,0.432-0.771c-0.053-0.432-0.414-0.377-0.729-0.405c-3.801-0.331-7.241,1.15-10.775,2.146
						C42.274,69.012,41.812,69.174,41.573,69.691 M34.334,24.936c0.061,1.709,0.523,2.964,1.181,4.2
						c1.121,2.106,1.735,4.504,3.395,6.295c1.685,1.819,2.804,3.971,3.959,6.114c0.349,0.646,0.608,1.342,0.91,2.016
						c0.668-0.42,0.801-1.221,1.274-1.783c0.859-1.022,2.063-0.857,2.617,0.38c0.125,0.28,0.217,0.575,0.373,0.995
						c0.588-0.614,1.539-0.598,1.936-1.078c0.449-0.542,0.463-1.467,0.6-2.235c0.578-3.278,1.15-6.547,2.002-9.779
						c0.477-1.81,1.911-3.646,0.591-5.699c-0.162-0.252-0.149-0.644-0.528-0.695c-0.394-0.055-0.517,0.302-0.672,0.563
						c-0.365,0.605-0.72,1.217-1.068,1.83c-0.152,0.268-0.43,0.519-0.654,0.299c-1.114-1.092-0.902,0.095-1.063,0.597
						c-0.215,0.676-0.395,1.36-0.371,2.083c0.014,0.426-0.176,0.928-0.563,0.913c-0.732-0.027-0.577,0.542-0.833,0.855
						c-0.471,0.573-0.843,1.582-1.81,1.249c-0.489-0.169-1.112-0.401-1.444-0.944c-0.362-0.595-0.605-0.254-0.835,0.121
						c-0.142,0.23-0.258,0.482-0.432,0.686c-0.217,0.255-0.369,0.67-0.814,0.567c-0.479-0.112-0.346-0.559-0.398-0.882
						c-0.315-1.937-0.572-3.879-0.674-5.841c-0.03-0.563-0.146-1.145-0.73-1.381c-0.664-0.268-1.196,0.138-1.517,0.631
						c-0.664,1.021-1.103,0.389-1.47-0.174c-0.475-0.728-0.842-1.069-1.388-0.067C35.593,25.341,35.129,25.694,34.334,24.936
						 M21.862,23.009c0.098,1.185-0.188,2.875,0.332,4.469c1.026,3.144,2.239,6.263,4.163,8.938
						c2.522,3.505,4.759,7.209,7.48,10.574c2.479,3.063,3.953,6.67,5.481,10.246c0.353,0.826,0.27,2.092,1.026,2.408
						c0.754,0.316,1.824-0.205,2.751-0.183c1.086,0.027,1.646-0.142,1.303-1.424c-0.177-0.662,0.002-1.41-0.054-2.115
						c-0.32-4.052,0.436-8.211-1.675-12.075c-1.142-2.09-2.004-4.339-3.457-6.252c-2.7-3.56-4.938-7.345-6-11.729
						c-0.144-0.595-0.445-1.081-0.833-1.54c-0.254-0.302-0.479-0.63-0.14-1.041c0.319-0.386,0.721-0.507,1.161-0.331
						c0.359,0.144,0.74,0.332,1.003,0.605c0.647,0.671,1.044,0.514,1.339-0.29c0.319-0.866,0.825-0.838,1.425-0.281
						c0.201,0.187,0.407,0.377,0.567,0.597c0.323,0.446,0.601,0.533,1.001,0.056c0.677-0.81,1.435-0.856,2.247-0.146
						c0.32,0.28,0.99,0.725,1.014,0.696c0.699-0.85,1.695-0.251,2.461-0.548c0.636-0.246,1.056-0.188,1.617,0.195
						c0.762,0.521,1.598,1.029,2.576,0.286c0.324-0.246,0.861-0.438,1.221-0.104c0.725,0.67,0.835,0.183,1.191-0.388
						c0.449-0.718,0.926-1.746,2.063-1.347c0.82,0.289,1.059,1.476,2.117,1.575c0.162,0.014,0.123,0.411,0.053,0.648
						c-0.182,0.601-0.352,1.204-0.521,1.808c-0.715,2.527-1.693,5.014-2.086,7.59c-0.821,5.417-2.186,10.73-2.823,16.188
						c-0.296,2.518-0.597,5.045-0.906,7.564c-0.063,0.523-0.015,1.148-0.717,1.117c-0.747-0.032-0.687-0.756-0.568-1.193
						c0.591-2.204,0.404-4.52,1.038-6.715c0.204-0.711,0.257-1.471,0.336-2.211c0.031-0.289,0.143-0.695-0.245-0.821
						c-0.31-0.101-0.432,0.28-0.633,0.448c-0.771,0.645-1.424,1.535-2.656,0.759c-0.505-0.317-0.547,0.235-0.521,0.571
						c0.214,2.781,0.419,5.563,0.292,8.359c-0.038,0.818,0.383,1.104,1.28,1.191c2.389,0.229,4.771,0.063,7.152,0.152
						c0.479,0.019,0.705-0.127,0.758-0.648c0.14-1.438,0.412-2.861,0.496-4.301c0.155-2.639,1.285-4.895,2.937-6.807
						c2.86-3.313,5.592-6.686,7.196-10.809c1.326-3.4,2.703-6.877,2.533-10.547c-0.15-3.219-0.785-6.457-1.754-9.568
						c-0.828-2.663-1.986-5.185-3.686-7.451c-1.488-1.988-2.846-4.08-5.236-5.135c-1.148-0.507-2.389-0.862-3.443-1.516
						c-1.634-1.012-3.379-1.392-5.248-1.473c-2.255-0.098-4.51-0.226-6.765-0.339c-3.298-0.167-6.503,0.323-9.55,1.578
						c-3.296,1.358-5.244,4.172-7.042,7.02C22.371,13.351,21.696,17.873,21.862,23.009 M41.211,68.533
						c-0.441-0.219-0.639-0.355-0.859-0.418c-0.994-0.286-0.835-0.803-0.246-1.336c0.534-0.482,0.867-0.717-0.111-1.182
						c-0.98-0.466-1.015-1.537-0.652-2.464c0.232-0.592,0.26-1.03-0.166-1.504c-0.213-0.235-0.441-0.555-0.282-0.854
						c0.578-1.086,0.024-1.993-0.439-2.885c-1.125-2.164-1.44-4.672-2.846-6.709c-1.76-2.551-3.675-5.004-5.301-7.635
						c-1.533-2.48-3.651-4.533-5.027-7.104c-1.481-2.767-2.869-5.583-3.882-8.561c-0.187-0.549-0.259-1.157-0.274-1.74
						c-0.106-4.121-0.473-8.312,0.901-12.27C24.008,8.166,26.968,3.09,33.029,0.791c1.957-0.742,4.043-1.03,6.212-1.141
						c3.361-0.172,6.658,0.488,9.991,0.325c1.268-0.063,2.455,0.347,3.504,0.92c1.488,0.813,3.037,1.48,4.574,2.175
						c2.565,1.159,4.086,3.35,5.649,5.521c2.823,3.917,4.287,8.35,5.049,13.058c0.125,0.772,0.271,1.542,0.418,2.311
						c0.854,4.529-0.786,8.622-2.325,12.698c-1.529,4.047-3.896,7.611-6.898,10.732c-2.4,2.495-3.15,5.608-3.479,8.896
						c-0.183,1.84,0.026,3.659,0.147,5.491c0.058,0.896-1.129,1.856,0.042,2.834c0.007,0.007-0.186,0.341-0.339,0.433
						c-0.563,0.341-0.482,0.599,0.05,0.871c0.128,0.065,0.26,0.213,0.297,0.351c0.295,1.07-0.261,2.09,0.055,3.301
						c0.322,1.248-1.438,1.683-2.563,1.881c-1.165,0.205-1.966,0.467-2.067,1.841c-0.072,0.972-0.838,1.317-1.775,1.372
						c-0.86,0.049-1.721,0.165-2.569,0.306c-0.997,0.164-1.598-0.3-1.564-1.303c0.012-0.351,0.111-0.697,0.166-1.046
						c0.069-0.441,0.416-0.99-0.039-1.289c-0.43-0.283-0.946,0.107-1.29,0.379c-0.688,0.545-1.432,0.971-2.248,1.236
						c-1.442,0.471-2.239-0.187-2.003-1.635c0.059-0.357,0.008-0.541-0.322-0.599c-0.412-0.069-0.652-0.3-0.673-0.696
						c-0.026-0.475,0.338-0.671,0.709-0.834C40.152,68.996,40.573,68.814,41.211,68.533"/>
				</g>
			</g>
		</g>
	</g>
</g>
</svg>
