<?xml version="1.0" encoding="UTF-8"?>
<svg width="23px" height="19px" viewBox="0 0 23 19" version="1.1" xmlns="http://www.w3.org/2000/svg" xmlns:xlink="http://www.w3.org/1999/xlink">
    <!-- Generator: Sketch 49.3 (51167) - http://www.bohemiancoding.com/sketch -->
    <title>twitter</title>
    <desc>Created with Sketch.</desc>
    <defs></defs>
    <g id="Symbols" stroke="none" stroke-width="1" fill="none" fill-rule="evenodd">
        <g id="Footer-Copy" transform="translate(-1328.000000, -24.000000)" fill="#000000">
            <g id="Group-4" transform="translate(193.000000, 15.000000)">
                <g id="Group-3" transform="translate(1135.000000, 5.000000)">
                    <g id="twitter" transform="translate(0.000000, 4.000000)">
                        <g id="Shape">
                            <path d="M22.7261905,2.53619913 C21.8887102,2.88790623 21.0512299,3.16927186 20.0741697,3.23961333 C21.0512299,2.67688195 21.7491301,1.76244346 22.0980802,0.707322053 C21.1908099,1.27005344 20.2137497,1.62176054 19.1668993,1.83278482 C18.329419,0.918346335 17.1429887,0.355614953 15.8867682,0.355614953 C13.3743274,0.355614953 11.2806267,2.3955162 11.2806267,4.99814894 C11.2806267,5.34985604 11.3504168,5.70156314 11.4202068,6.05327024 C7.58175549,5.84224596 4.2318344,4.01336899 1.92876357,1.19971208 C1.51002349,1.90312628 1.3006534,2.67688195 1.3006534,3.52097908 C1.3006534,5.13883176 2.13813367,6.54566027 3.32456402,7.38975729 C2.55687386,7.38975729 1.85897358,7.17873301 1.2308634,6.82702591 C1.2308634,6.82702591 1.2308634,6.89736737 1.2308634,6.89736737 C1.2308634,9.1482929 2.83603395,10.9771699 4.92973457,11.3992184 C4.51099449,11.4695599 4.1620443,11.5399014 3.74330421,11.5399014 C3.46414412,11.5399014 3.18498403,11.5399014 2.90582394,11.4695599 C3.46414412,13.2984369 5.20889466,14.6349239 7.1630153,14.7052654 C5.62763485,15.971411 3.60372411,16.6748252 1.4402335,16.6748252 C1.0912833,16.6748252 0.672543219,16.6748252 0.323593024,16.6044837 C2.41729376,17.8706294 4.85994458,18.644385 7.44217539,18.644385 C15.8867682,18.644385 20.4929098,11.6102427 20.4929098,5.49053886 C20.4929098,5.27951458 20.4929098,5.06849029 20.4929098,4.92780748 C21.33039,4.22439328 22.0980802,3.45063761 22.7261905,2.53619913 Z" fill-rule="nonzero"></path>
                        </g>
                    </g>
                </g>
            </g>
        </g>
    </g>
</svg>